Balmhorn-Bold.ufo
<glyph name="exclam" format="1">
	<unicode hex="0021"/>
	<advance width="298"/>
	<outline>
		<contour>
			<point x="237" y="580" type="curve" smooth="yes"/>
			<point x="237" y="632"/>
			<point x="205" y="657"/>
			<point x="151" y="657" type="curve" smooth="yes"/>
			<point x="118" y="657"/>
			<point x="82" y="648"/>
			<point x="55" y="633" type="curve"/>
			<point x="55" y="532"/>
			<point x="64" y="322"/>
			<point x="76" y="260" type="curve" smooth="yes"/>
			<point x="83" y="226"/>
			<point x="111" y="216"/>
			<point x="149" y="216" type="curve" smooth="yes"/>
			<point x="167" y="216"/>
			<point x="201" y="222"/>
			<point x="212" y="231" type="curve"/>
			<point x="231" y="329"/>
			<point x="237" y="519"/>
		</contour>
		<contour>
			<point x="53" y="76" type="curve" smooth="yes"/>
			<point x="53" y="22"/>
			<point x="90" y="-18"/>
			<point x="149" y="-18" type="curve" smooth="yes"/>
			<point x="208" y="-18"/>
			<point x="245" y="22"/>
			<point x="245" y="76" type="curve" smooth="yes"/>
			<point x="245" y="130"/>
			<point x="208" y="170"/>
			<point x="149" y="170" type="curve" smooth="yes"/>
			<point x="90" y="170"/>
			<point x="53" y="130"/>
		</contour>
	</outline>
</glyph>
<glyph name="quotedbl" format="1">
	<unicode hex="0022"/>
	<advance width="410"/>
	<outline>
		<contour>
			<point x="158" y="404" type="curve"/>
			<point x="169" y="457"/>
			<point x="181" y="564"/>
			<point x="181" y="601" type="curve" smooth="yes"/>
			<point x="181" y="646"/>
			<point x="152" y="661"/>
			<point x="105" y="661" type="curve" smooth="yes"/>
			<point x="72" y="661"/>
			<point x="44" y="652"/>
			<point x="25" y="637" type="curve"/>
			<point x="38" y="438" type="line" smooth="yes"/>
			<point x="40" y="405"/>
			<point x="67" y="394"/>
			<point x="100" y="394" type="curve" smooth="yes"/>
			<point x="123" y="394"/>
			<point x="144" y="396"/>
		</contour>
		<contour>
			<point x="359" y="404" type="curve"/>
			<point x="370" y="457"/>
			<point x="382" y="564"/>
			<point x="382" y="601" type="curve" smooth="yes"/>
			<point x="382" y="646"/>
			<point x="353" y="661"/>
			<point x="306" y="661" type="curve" smooth="yes"/>
			<point x="273" y="661"/>
			<point x="245" y="652"/>
			<point x="226" y="637" type="curve"/>
			<point x="239" y="438" type="line" smooth="yes"/>
			<point x="241" y="405"/>
			<point x="268" y="394"/>
			<point x="301" y="394" type="curve" smooth="yes"/>
			<point x="324" y="394"/>
			<point x="345" y="396"/>
		</contour>
	</outline>
</glyph>
<glyph name="numbersign" format="1">
	<unicode hex="0023"/>
	<advance width="714"/>
	<outline>
		<contour>
			<point x="512" y="129" type="line"/>
			<point x="601" y="129" type="line" smooth="yes"/>
			<point x="632" y="129"/>
			<point x="657" y="148"/>
			<point x="657" y="194" type="curve" smooth="yes"/>
			<point x="657" y="218"/>
			<point x="648" y="243"/>
			<point x="639" y="256" type="curve"/>
			<point x="541" y="256" type="line"/>
			<point x="563" y="357" type="line"/>
			<point x="628" y="357" type="line" smooth="yes"/>
			<point x="659" y="357"/>
			<point x="684" y="376"/>
			<point x="684" y="422" type="curve" smooth="yes"/>
			<point x="684" y="446"/>
			<point x="675" y="471"/>
			<point x="666" y="484" type="curve"/>
			<point x="591" y="484" type="line"/>
			<point x="594" y="495" type="line" smooth="yes"/>
			<point x="598" y="514"/>
			<point x="601" y="534"/>
			<point x="601" y="548" type="curve" smooth="yes"/>
			<point x="601" y="596"/>
			<point x="574" y="615"/>
			<point x="518" y="615" type="curve" smooth="yes"/>
			<point x="503" y="615"/>
			<point x="488" y="615"/>
			<point x="469" y="613" type="curve"/>
			<point x="440" y="484" type="line"/>
			<point x="351" y="484" type="line"/>
			<point x="354" y="495" type="line" smooth="yes"/>
			<point x="358" y="514"/>
			<point x="361" y="534"/>
			<point x="361" y="548" type="curve" smooth="yes"/>
			<point x="361" y="596"/>
			<point x="334" y="615"/>
			<point x="278" y="615" type="curve" smooth="yes"/>
			<point x="263" y="615"/>
			<point x="248" y="615"/>
			<point x="229" y="613" type="curve"/>
			<point x="200" y="484" type="line"/>
			<point x="114" y="484" type="line" smooth="yes"/>
			<point x="82" y="484"/>
			<point x="57" y="465"/>
			<point x="57" y="418" type="curve" smooth="yes"/>
			<point x="57" y="395"/>
			<point x="67" y="371"/>
			<point x="74" y="357" type="curve"/>
			<point x="172" y="357" type="line"/>
			<point x="150" y="256" type="line"/>
			<point x="87" y="256" type="line" smooth="yes"/>
			<point x="55" y="256"/>
			<point x="30" y="237"/>
			<point x="30" y="190" type="curve" smooth="yes"/>
			<point x="30" y="167"/>
			<point x="40" y="143"/>
			<point x="47" y="129" type="curve"/>
			<point x="122" y="129" type="line"/>
			<point x="120" y="118" type="line" smooth="yes"/>
			<point x="116" y="99"/>
			<point x="114" y="80"/>
			<point x="114" y="66" type="curve" smooth="yes"/>
			<point x="114" y="18"/>
			<point x="141" y="-2"/>
			<point x="196" y="-2" type="curve" smooth="yes"/>
			<point x="211" y="-2"/>
			<point x="226" y="-2"/>
			<point x="244" y="1" type="curve"/>
			<point x="272" y="129" type="line"/>
			<point x="362" y="129" type="line"/>
			<point x="360" y="118" type="line" smooth="yes"/>
			<point x="356" y="99"/>
			<point x="354" y="80"/>
			<point x="354" y="66" type="curve" smooth="yes"/>
			<point x="354" y="18"/>
			<point x="381" y="-2"/>
			<point x="436" y="-2" type="curve" smooth="yes"/>
			<point x="451" y="-2"/>
			<point x="466" y="-2"/>
			<point x="484" y="1" type="curve"/>
		</contour>
		<contour>
			<point x="323" y="357" type="line"/>
			<point x="412" y="357" type="line"/>
			<point x="390" y="256" type="line"/>
			<point x="301" y="256" type="line"/>
		</contour>
	</outline>
</glyph>
<glyph name="dollar" format="1">
	<unicode hex="0024"/>
	<advance width="565"/>
	<outline>
		<contour>
			<point x="283" y="227" type="line" smooth="yes"/>
			<point x="322" y="214"/>
			<point x="344" y="203"/>
			<point x="344" y="176" type="curve" smooth="yes"/>
			<point x="344" y="149"/>
			<point x="320" y="126"/>
			<point x="255" y="126" type="curve" smooth="yes"/>
			<point x="191" y="126"/>
			<point x="135" y="151"/>
			<point x="98" y="180" type="curve"/>
			<point x="71" y="165"/>
			<point x="44" y="138"/>
			<point x="44" y="99" type="curve" smooth="yes"/>
			<point x="44" y="35"/>
			<point x="111" y="-3"/>
			<point x="206" y="-13" type="curve"/>
			<point x="206" y="-23" type="line" smooth="yes"/>
			<point x="206" y="-82"/>
			<point x="237" y="-94"/>
			<point x="289" y="-94" type="curve" smooth="yes"/>
			<point x="315" y="-94"/>
			<point x="344" y="-89"/>
			<point x="356" y="-86" type="curve"/>
			<point x="356" y="-6" type="line"/>
			<point x="466" y="17"/>
			<point x="525" y="84"/>
			<point x="525" y="174" type="curve" smooth="yes"/>
			<point x="525" y="281"/>
			<point x="456" y="337"/>
			<point x="330" y="377" type="curve" smooth="yes"/>
			<point x="277" y="394" type="line" smooth="yes"/>
			<point x="243" y="405"/>
			<point x="225" y="416"/>
			<point x="225" y="436" type="curve" smooth="yes"/>
			<point x="225" y="461"/>
			<point x="252" y="480"/>
			<point x="312" y="480" type="curve" smooth="yes"/>
			<point x="370" y="480"/>
			<point x="423" y="464"/>
			<point x="452" y="445" type="curve"/>
			<point x="474" y="462"/>
			<point x="493" y="487"/>
			<point x="493" y="521" type="curve" smooth="yes"/>
			<point x="493" y="577"/>
			<point x="438" y="609"/>
			<point x="356" y="619" type="curve"/>
			<point x="356" y="632" type="line" smooth="yes"/>
			<point x="356" y="691"/>
			<point x="325" y="703"/>
			<point x="273" y="703" type="curve" smooth="yes"/>
			<point x="247" y="703"/>
			<point x="218" y="698"/>
			<point x="206" y="695" type="curve"/>
			<point x="206" y="614" type="line"/>
			<point x="102" y="591"/>
			<point x="44" y="526"/>
			<point x="44" y="436" type="curve" smooth="yes"/>
			<point x="44" y="319"/>
			<point x="124" y="280"/>
			<point x="241" y="241" type="curve" smooth="yes"/>
		</contour>
	</outline>
</glyph>
<glyph name="ampersand" format="1">
	<unicode hex="0026"/>
	<advance width="673"/>
	<outline>
		<contour>
			<point x="467" y="378" type="curve"/>
			<point x="467" y="326"/>
			<point x="463" y="286"/>
			<point x="457" y="257" type="curve"/>
			<point x="329" y="381" type="line" smooth="yes"/>
			<point x="304" y="406"/>
			<point x="284" y="426"/>
			<point x="284" y="446" type="curve" smooth="yes"/>
			<point x="284" y="474"/>
			<point x="309" y="483"/>
			<point x="344" y="483" type="curve" smooth="yes"/>
			<point x="365" y="483"/>
			<point x="385" y="478"/>
			<point x="400" y="472" type="curve"/>
			<point x="417" y="489"/>
			<point x="426" y="512"/>
			<point x="426" y="534" type="curve" smooth="yes"/>
			<point x="426" y="580"/>
			<point x="395" y="614"/>
			<point x="311" y="614" type="curve" smooth="yes"/>
			<point x="195" y="614"/>
			<point x="124" y="551"/>
			<point x="124" y="467" type="curve" smooth="yes"/>
			<point x="124" y="435"/>
			<point x="135" y="397"/>
			<point x="161" y="365" type="curve"/>
			<point x="101" y="338"/>
			<point x="36" y="284"/>
			<point x="36" y="185" type="curve" smooth="yes"/>
			<point x="36" y="71"/>
			<point x="123" y="-16"/>
			<point x="279" y="-16" type="curve" smooth="yes"/>
			<point x="356" y="-16"/>
			<point x="420" y="6"/>
			<point x="469" y="42" type="curve"/>
			<point x="488" y="24" type="line" smooth="yes"/>
			<point x="514" y="-2"/>
			<point x="538" y="-14"/>
			<point x="566" y="-14" type="curve" smooth="yes"/>
			<point x="610" y="-14"/>
			<point x="646" y="22"/>
			<point x="649" y="72" type="curve"/>
			<point x="572" y="146" type="line"/>
			<point x="599" y="194"/>
			<point x="613" y="247"/>
			<point x="613" y="300" type="curve" smooth="yes"/>
			<point x="613" y="354"/>
			<point x="599" y="393"/>
			<point x="536" y="393" type="curve" smooth="yes"/>
			<point x="514" y="393"/>
			<point x="492" y="389"/>
		</contour>
		<contour>
			<point x="196" y="196" type="curve" smooth="yes"/>
			<point x="196" y="225"/>
			<point x="213" y="253"/>
			<point x="245" y="267" type="curve"/>
			<point x="373" y="138" type="line"/>
			<point x="346" y="121"/>
			<point x="315" y="114"/>
			<point x="289" y="114" type="curve" smooth="yes"/>
			<point x="228" y="114"/>
			<point x="196" y="150"/>
		</contour>
	</outline>
</glyph>
<glyph name="quotesingle" format="1">
	<unicode hex="0027"/>
	<advance width="219"/>
	<outline>
		<contour>
			<point x="168" y="408" type="curve"/>
			<point x="179" y="461"/>
			<point x="191" y="560"/>
			<point x="191" y="597" type="curve" smooth="yes"/>
			<point x="191" y="642"/>
			<point x="160" y="661"/>
			<point x="110" y="661" type="curve" smooth="yes"/>
			<point x="74" y="661"/>
			<point x="44" y="648"/>
			<point x="25" y="633" type="curve"/>
			<point x="38" y="442" type="line" smooth="yes"/>
			<point x="40" y="409"/>
			<point x="69" y="394"/>
			<point x="105" y="394" type="curve" smooth="yes"/>
			<point x="131" y="394"/>
			<point x="154" y="400"/>
		</contour>
	</outline>
</glyph>
<glyph name="parenleft" format="1">
	<unicode hex="0028"/>
	<advance width="305"/>
	<outline>
		<contour>
			<point x="42" y="266" type="curve" smooth="yes"/>
			<point x="42" y="127"/>
			<point x="70" y="20"/>
			<point x="108" y="-51" type="curve" smooth="yes"/>
			<point x="133" y="-98"/>
			<point x="169" y="-136"/>
			<point x="223" y="-136" type="curve" smooth="yes"/>
			<point x="259" y="-136"/>
			<point x="288" y="-112"/>
			<point x="303" y="-89" type="curve"/>
			<point x="239" y="8"/>
			<point x="204" y="111"/>
			<point x="204" y="266" type="curve"/>
			<point x="204" y="421"/>
			<point x="239" y="524"/>
			<point x="303" y="621" type="curve"/>
			<point x="288" y="644"/>
			<point x="259" y="668"/>
			<point x="223" y="668" type="curve" smooth="yes"/>
			<point x="169" y="668"/>
			<point x="133" y="630"/>
			<point x="108" y="583" type="curve" smooth="yes"/>
			<point x="70" y="512"/>
			<point x="42" y="405"/>
		</contour>
	</outline>
</glyph>
<glyph name="parenright" format="1">
	<unicode hex="0029"/>
	<advance width="305"/>
	<outline>
		<contour>
			<point x="263" y="266" type="curve" smooth="yes"/>
			<point x="263" y="405"/>
			<point x="235" y="512"/>
			<point x="197" y="583" type="curve" smooth="yes"/>
			<point x="172" y="630"/>
			<point x="136" y="668"/>
			<point x="82" y="668" type="curve" smooth="yes"/>
			<point x="46" y="668"/>
			<point x="17" y="644"/>
			<point x="2" y="621" type="curve"/>
			<point x="66" y="524"/>
			<point x="101" y="421"/>
			<point x="101" y="266" type="curve" smooth="yes"/>
			<point x="101" y="111"/>
			<point x="66" y="8"/>
			<point x="2" y="-89" type="curve"/>
			<point x="17" y="-112"/>
			<point x="46" y="-136"/>
			<point x="82" y="-136" type="curve" smooth="yes"/>
			<point x="136" y="-136"/>
			<point x="172" y="-98"/>
			<point x="197" y="-51" type="curve" smooth="yes"/>
			<point x="235" y="20"/>
			<point x="263" y="127"/>
		</contour>
	</outline>
</glyph>
<glyph name="asterisk" format="1">
	<unicode hex="002A"/>
	<advance width="351"/>
	<outline>
		<contour>
			<point x="261" y="463" type="line"/>
			<point x="279" y="471" type="line" smooth="yes"/>
			<point x="308" y="483"/>
			<point x="326" y="490"/>
			<point x="326" y="522" type="curve" smooth="yes"/>
			<point x="326" y="550"/>
			<point x="307" y="571"/>
			<point x="285" y="581" type="curve"/>
			<point x="226" y="556" type="line"/>
			<point x="227" y="573"/>
			<point x="228" y="591"/>
			<point x="228" y="601" type="curve" smooth="yes"/>
			<point x="228" y="633"/>
			<point x="207" y="649"/>
			<point x="177" y="649" type="curve" smooth="yes"/>
			<point x="153" y="649"/>
			<point x="134" y="637"/>
			<point x="123" y="630" type="curve"/>
			<point x="123" y="558" type="line"/>
			<point x="108" y="563" type="line" smooth="yes"/>
			<point x="96" y="567"/>
			<point x="84" y="570"/>
			<point x="75" y="570" type="curve" smooth="yes"/>
			<point x="40" y="570"/>
			<point x="20" y="550"/>
			<point x="20" y="517" type="curve" smooth="yes"/>
			<point x="20" y="506"/>
			<point x="22" y="492"/>
			<point x="26" y="480" type="curve"/>
			<point x="87" y="463" type="line"/>
			<point x="72" y="444" type="line"/>
			<point x="58" y="426"/>
			<point x="50" y="412"/>
			<point x="50" y="396" type="curve" smooth="yes"/>
			<point x="50" y="366"/>
			<point x="73" y="347"/>
			<point x="117" y="347" type="curve"/>
			<point x="124" y="347"/>
			<point x="132" y="348"/>
			<point x="140" y="350" type="curve"/>
			<point x="178" y="407" type="line"/>
			<point x="186" y="393" type="line"/>
			<point x="200" y="368"/>
			<point x="213" y="347"/>
			<point x="245" y="347" type="curve" smooth="yes"/>
			<point x="276" y="347"/>
			<point x="298" y="368"/>
			<point x="307" y="397" type="curve"/>
		</contour>
	</outline>
</glyph>
<glyph name="plus" format="1">
	<unicode hex="002B"/>
	<advance width="545"/>
	<outline>
		<contour>
			<point x="351" y="222" type="line"/>
			<point x="457" y="222" type="line" smooth="yes"/>
			<point x="492" y="222"/>
			<point x="515" y="243"/>
			<point x="515" y="290" type="curve" smooth="yes"/>
			<point x="515" y="315"/>
			<point x="506" y="340"/>
			<point x="499" y="356" type="curve"/>
			<point x="351" y="356" type="line"/>
			<point x="351" y="461" type="line" smooth="yes"/>
			<point x="351" y="521"/>
			<point x="321" y="534"/>
			<point x="268" y="534" type="curve" smooth="yes"/>
			<point x="242" y="534"/>
			<point x="210" y="528"/>
			<point x="197" y="524" type="curve"/>
			<point x="197" y="356" type="line"/>
			<point x="89" y="356" type="line" smooth="yes"/>
			<point x="53" y="356"/>
			<point x="30" y="335"/>
			<point x="30" y="287" type="curve" smooth="yes"/>
			<point x="30" y="263"/>
			<point x="37" y="237"/>
			<point x="46" y="222" type="curve"/>
			<point x="197" y="222" type="line"/>
			<point x="197" y="112" type="line" smooth="yes"/>
			<point x="197" y="53"/>
			<point x="225" y="41"/>
			<point x="280" y="41" type="curve" smooth="yes"/>
			<point x="306" y="41"/>
			<point x="340" y="45"/>
			<point x="351" y="50" type="curve"/>
		</contour>
	</outline>
</glyph>
<glyph name="comma" format="1">
	<unicode hex="002C"/>
	<advance width="243"/>
	<outline>
		<contour>
			<point x="149" y="-73" type="curve" smooth="yes"/>
			<point x="183" y="-29"/>
			<point x="219" y="59"/>
			<point x="219" y="114" type="curve" smooth="yes"/>
			<point x="219" y="162"/>
			<point x="182" y="178"/>
			<point x="141" y="178" type="curve" smooth="yes"/>
			<point x="109" y="178"/>
			<point x="75" y="168"/>
			<point x="52" y="156" type="curve"/>
			<point x="39" y="86"/>
			<point x="19" y="-8"/>
			<point x="-10" y="-90" type="curve"/>
			<point x="11" y="-107"/>
			<point x="36" y="-115"/>
			<point x="65" y="-115" type="curve" smooth="yes"/>
			<point x="102" y="-115"/>
			<point x="127" y="-102"/>
		</contour>
	</outline>
</glyph>
<glyph name="hyphen" format="1">
	<unicode hex="002D"/>
	<advance width="354"/>
	<outline>
		<contour>
			<point x="263" y="186" type="line" smooth="yes"/>
			<point x="299" y="186"/>
			<point x="324" y="207"/>
			<point x="324" y="256" type="curve" smooth="yes"/>
			<point x="324" y="283"/>
			<point x="313" y="309"/>
			<point x="305" y="323" type="curve"/>
			<point x="91" y="323" type="line" smooth="yes"/>
			<point x="55" y="323"/>
			<point x="30" y="302"/>
			<point x="30" y="253" type="curve" smooth="yes"/>
			<point x="30" y="226"/>
			<point x="40" y="200"/>
			<point x="49" y="186" type="curve"/>
		</contour>
	</outline>
</glyph>
<glyph name="period" format="1">
	<unicode hex="002E"/>
	<advance width="238"/>
	<outline>
		<contour>
			<point x="22" y="81" type="curve" smooth="yes"/>
			<point x="22" y="26"/>
			<point x="60" y="-17"/>
			<point x="119" y="-17" type="curve" smooth="yes"/>
			<point x="178" y="-17"/>
			<point x="216" y="26"/>
			<point x="216" y="81" type="curve" smooth="yes"/>
			<point x="216" y="136"/>
			<point x="178" y="179"/>
			<point x="119" y="179" type="curve" smooth="yes"/>
			<point x="60" y="179"/>
			<point x="22" y="136"/>
		</contour>
	</outline>
</glyph>
<glyph name="slash" format="1">
	<unicode hex="002F"/>
	<advance width="343"/>
	<outline>
		<contour>
			<point x="317" y="529" type="line"/>
			<point x="326" y="563"/>
			<point x="340" y="598"/>
			<point x="340" y="636" type="curve"/>
			<point x="340" y="687"/>
			<point x="306" y="708"/>
			<point x="253" y="708" type="curve" smooth="yes"/>
			<point x="239" y="708"/>
			<point x="221" y="708"/>
			<point x="201" y="705" type="curve"/>
			<point x="25" y="70" type="line" smooth="yes"/>
			<point x="17" y="42"/>
			<point x="3" y="3"/>
			<point x="3" y="-33" type="curve" smooth="yes"/>
			<point x="3" y="-86"/>
			<point x="35" y="-109"/>
			<point x="90" y="-109" type="curve" smooth="yes"/>
			<point x="105" y="-109"/>
			<point x="122" y="-109"/>
			<point x="141" y="-106" type="curve"/>
		</contour>
	</outline>
</glyph>
<glyph name="zero" format="1">
	<unicode hex="0030"/>
	<advance width="606"/>
	<outline>
		<contour>
			<point x="400" y="304" type="curve"/>
			<point x="400" y="187"/>
			<point x="364" y="119"/>
			<point x="302" y="119" type="curve" smooth="yes"/>
			<point x="240" y="119"/>
			<point x="206" y="187"/>
			<point x="206" y="304" type="curve" smooth="yes"/>
			<point x="206" y="421"/>
			<point x="240" y="488"/>
			<point x="302" y="488" type="curve" smooth="yes"/>
			<point x="364" y="488"/>
			<point x="400" y="421"/>
		</contour>
		<contour>
			<point x="571" y="304" type="curve"/>
			<point x="571" y="510"/>
			<point x="459" y="623"/>
			<point x="303" y="623" type="curve" smooth="yes"/>
			<point x="145" y="623"/>
			<point x="35" y="510"/>
			<point x="35" y="304" type="curve"/>
			<point x="35" y="98"/>
			<point x="145" y="-16"/>
			<point x="303" y="-16" type="curve" smooth="yes"/>
			<point x="459" y="-16"/>
			<point x="571" y="98"/>
		</contour>
	</outline>
</glyph>
<glyph name="one" format="1">
	<unicode hex="0031"/>
	<advance width="393"/>
	<outline>
		<contour>
			<point x="155" y="72" type="line" smooth="yes"/>
			<point x="155" y="5"/>
			<point x="190" y="-8"/>
			<point x="249" y="-8" type="curve" smooth="yes"/>
			<point x="278" y="-8"/>
			<point x="311" y="-2"/>
			<point x="325" y="1" type="curve"/>
			<point x="325" y="522" type="line" smooth="yes"/>
			<point x="325" y="579"/>
			<point x="289" y="615"/>
			<point x="232" y="615" type="curve" smooth="yes"/>
			<point x="195" y="615" type="line"/>
			<point x="83" y="577" type="line" smooth="yes"/>
			<point x="35" y="561"/>
			<point x="10" y="533"/>
			<point x="10" y="493" type="curve" smooth="yes"/>
			<point x="10" y="450"/>
			<point x="35" y="428"/>
			<point x="55" y="415" type="curve"/>
			<point x="155" y="446" type="line"/>
		</contour>
	</outline>
</glyph>
<glyph name="two" format="1">
	<unicode hex="0032"/>
	<advance width="522"/>
	<outline>
		<contour>
			<point x="241" y="623" type="curve" smooth="yes"/>
			<point x="131" y="623"/>
			<point x="60" y="589"/>
			<point x="60" y="520" type="curve" smooth="yes"/>
			<point x="60" y="488"/>
			<point x="77" y="464"/>
			<point x="99" y="448" type="curve"/>
			<point x="127" y="467"/>
			<point x="170" y="487"/>
			<point x="223" y="487" type="curve" smooth="yes"/>
			<point x="271" y="487"/>
			<point x="308" y="464"/>
			<point x="308" y="427" type="curve" smooth="yes"/>
			<point x="308" y="397"/>
			<point x="287" y="366"/>
			<point x="218" y="307" type="curve" smooth="yes"/>
			<point x="80" y="189" type="line" smooth="yes"/>
			<point x="58" y="170"/>
			<point x="35" y="139"/>
			<point x="35" y="94" type="curve" smooth="yes"/>
			<point x="35" y="52"/>
			<point x="53" y="20"/>
			<point x="82" y="0" type="curve"/>
			<point x="429" y="0" type="line" smooth="yes"/>
			<point x="464" y="0"/>
			<point x="487" y="19"/>
			<point x="487" y="67" type="curve" smooth="yes"/>
			<point x="487" y="93"/>
			<point x="478" y="118"/>
			<point x="470" y="132" type="curve"/>
			<point x="230" y="132" type="line"/>
			<point x="361" y="237" type="line" smooth="yes"/>
			<point x="441" y="301"/>
			<point x="480" y="366"/>
			<point x="480" y="437" type="curve" smooth="yes"/>
			<point x="480" y="542"/>
			<point x="392" y="623"/>
		</contour>
	</outline>
</glyph>
<glyph name="three" format="1">
	<unicode hex="0033"/>
	<advance width="518"/>
	<outline>
		<contour>
			<point x="233" y="623" type="curve" smooth="yes"/>
			<point x="117" y="623"/>
			<point x="42" y="593"/>
			<point x="42" y="526" type="curve" smooth="yes"/>
			<point x="42" y="494"/>
			<point x="59" y="471"/>
			<point x="81" y="455" type="curve"/>
			<point x="108" y="473"/>
			<point x="150" y="488"/>
			<point x="204" y="488" type="curve"/>
			<point x="265" y="488"/>
			<point x="296" y="464"/>
			<point x="296" y="430" type="curve" smooth="yes"/>
			<point x="296" y="394"/>
			<point x="273" y="375"/>
			<point x="224" y="375" type="curve" smooth="yes"/>
			<point x="130" y="375" type="line"/>
			<point x="120" y="361"/>
			<point x="113" y="339"/>
			<point x="113" y="308" type="curve" smooth="yes"/>
			<point x="113" y="279"/>
			<point x="121" y="257"/>
			<point x="130" y="243" type="curve"/>
			<point x="224" y="243" type="line" smooth="yes"/>
			<point x="288" y="243"/>
			<point x="311" y="222"/>
			<point x="311" y="184" type="curve" smooth="yes"/>
			<point x="311" y="146"/>
			<point x="278" y="119"/>
			<point x="211" y="119" type="curve" smooth="yes"/>
			<point x="139" y="119"/>
			<point x="96" y="146"/>
			<point x="70" y="164" type="curve"/>
			<point x="45" y="150"/>
			<point x="25" y="123"/>
			<point x="25" y="87" type="curve" smooth="yes"/>
			<point x="25" y="27"/>
			<point x="97" y="-16"/>
			<point x="235" y="-16" type="curve" smooth="yes"/>
			<point x="380" y="-16"/>
			<point x="483" y="54"/>
			<point x="483" y="168" type="curve" smooth="yes"/>
			<point x="483" y="253"/>
			<point x="437" y="296"/>
			<point x="382" y="316" type="curve"/>
			<point x="429" y="338"/>
			<point x="468" y="384"/>
			<point x="468" y="448" type="curve" smooth="yes"/>
			<point x="468" y="554"/>
			<point x="385" y="623"/>
		</contour>
	</outline>
</glyph>
<glyph name="four" format="1">
	<unicode hex="0034"/>
	<advance width="606"/>
	<outline>
		<contour>
			<point x="43" y="294" type="line"/>
			<point x="27" y="271"/>
			<point x="21" y="237"/>
			<point x="21" y="212" type="curve" smooth="yes"/>
			<point x="21" y="167"/>
			<point x="46" y="135"/>
			<point x="77" y="119" type="curve"/>
			<point x="328" y="119" type="line"/>
			<point x="328" y="63" type="line" smooth="yes"/>
			<point x="328" y="-1"/>
			<point x="361" y="-8"/>
			<point x="419" y="-8" type="curve" smooth="yes"/>
			<point x="446" y="-8"/>
			<point x="480" y="-2"/>
			<point x="494" y="1" type="curve"/>
			<point x="494" y="119" type="line"/>
			<point x="541" y="119" type="line" smooth="yes"/>
			<point x="576" y="119"/>
			<point x="601" y="139"/>
			<point x="601" y="189" type="curve" smooth="yes"/>
			<point x="601" y="216"/>
			<point x="591" y="242"/>
			<point x="583" y="256" type="curve"/>
			<point x="494" y="256" type="line"/>
			<point x="494" y="522" type="line" smooth="yes"/>
			<point x="494" y="595"/>
			<point x="435" y="615"/>
			<point x="374" y="615" type="curve" smooth="yes"/>
			<point x="348" y="615"/>
			<point x="311" y="609"/>
			<point x="286" y="601" type="curve"/>
		</contour>
		<contour>
			<point x="337" y="256" type="line"/>
			<point x="201" y="256" type="line"/>
			<point x="334" y="444" type="line"/>
			<point x="337" y="444" type="line"/>
		</contour>
	</outline>
</glyph>
<glyph name="five" format="1">
	<unicode hex="0035"/>
	<advance width="522"/>
	<outline>
		<contour>
			<point x="250" y="-16" type="curve"/>
			<point x="425" y="-16"/>
			<point x="497" y="82"/>
			<point x="497" y="192" type="curve" smooth="yes"/>
			<point x="497" y="302"/>
			<point x="436" y="390"/>
			<point x="297" y="390" type="curve" smooth="yes"/>
			<point x="257" y="390"/>
			<point x="234" y="384"/>
			<point x="209" y="377" type="curve"/>
			<point x="216" y="471" type="line"/>
			<point x="408" y="471" type="line" smooth="yes"/>
			<point x="443" y="471"/>
			<point x="468" y="491"/>
			<point x="468" y="541" type="curve" smooth="yes"/>
			<point x="468" y="568"/>
			<point x="458" y="594"/>
			<point x="450" y="608" type="curve"/>
			<point x="162" y="608" type="line" smooth="yes"/>
			<point x="105" y="608"/>
			<point x="72" y="572"/>
			<point x="68" y="515" type="curve" smooth="yes"/>
			<point x="56" y="363" type="line" smooth="yes"/>
			<point x="55" y="344"/>
			<point x="55" y="341"/>
			<point x="55" y="337" type="curve" smooth="yes"/>
			<point x="55" y="270"/>
			<point x="96" y="238"/>
			<point x="161" y="235" type="curve"/>
			<point x="191" y="249"/>
			<point x="211" y="258"/>
			<point x="247" y="258" type="curve" smooth="yes"/>
			<point x="304" y="258"/>
			<point x="325" y="230"/>
			<point x="325" y="191" type="curve" smooth="yes"/>
			<point x="325" y="151"/>
			<point x="300" y="119"/>
			<point x="238" y="119" type="curve" smooth="yes"/>
			<point x="173" y="119"/>
			<point x="134" y="143"/>
			<point x="97" y="171" type="curve"/>
			<point x="71" y="157"/>
			<point x="45" y="131"/>
			<point x="45" y="94" type="curve" smooth="yes"/>
			<point x="45" y="22"/>
			<point x="128" y="-16"/>
		</contour>
	</outline>
</glyph>
<glyph name="six" format="1">
	<unicode hex="0036"/>
	<advance width="558"/>
	<outline>
		<contour>
			<point x="483" y="534" type="curve" smooth="yes"/>
			<point x="483" y="593"/>
			<point x="424" y="623"/>
			<point x="318" y="623" type="curve" smooth="yes"/>
			<point x="151" y="623"/>
			<point x="35" y="510"/>
			<point x="35" y="288" type="curve" smooth="yes"/>
			<point x="35" y="94"/>
			<point x="131" y="-16"/>
			<point x="288" y="-16" type="curve" smooth="yes"/>
			<point x="445" y="-16"/>
			<point x="526" y="84"/>
			<point x="526" y="199" type="curve" smooth="yes"/>
			<point x="526" y="330"/>
			<point x="447" y="404"/>
			<point x="325" y="404" type="curve" smooth="yes"/>
			<point x="278" y="404"/>
			<point x="231" y="386"/>
			<point x="204" y="367" type="curve"/>
			<point x="218" y="445"/>
			<point x="261" y="489"/>
			<point x="340" y="489" type="curve" smooth="yes"/>
			<point x="373" y="489"/>
			<point x="415" y="480"/>
			<point x="451" y="464" type="curve"/>
			<point x="468" y="477"/>
			<point x="483" y="506"/>
		</contour>
		<contour>
			<point x="287" y="274" type="curve"/>
			<point x="331" y="274"/>
			<point x="355" y="245"/>
			<point x="355" y="198" type="curve" smooth="yes"/>
			<point x="355" y="151"/>
			<point x="333" y="119"/>
			<point x="289" y="119" type="curve" smooth="yes"/>
			<point x="246" y="119"/>
			<point x="212" y="148"/>
			<point x="212" y="219" type="curve"/>
			<point x="212" y="244" type="line"/>
			<point x="229" y="263"/>
			<point x="262" y="274"/>
		</contour>
	</outline>
</glyph>
<glyph name="seven" format="1">
	<unicode hex="0037"/>
	<advance width="482"/>
	<outline>
		<contour>
			<point x="80" y="608" type="line" smooth="yes"/>
			<point x="45" y="608"/>
			<point x="20" y="588"/>
			<point x="20" y="538" type="curve" smooth="yes"/>
			<point x="20" y="511"/>
			<point x="30" y="485"/>
			<point x="38" y="471" type="curve"/>
			<point x="283" y="471" type="line"/>
			<point x="137" y="172" type="line" smooth="yes"/>
			<point x="115" y="127"/>
			<point x="100" y="96"/>
			<point x="100" y="68" type="curve" smooth="yes"/>
			<point x="100" y="13"/>
			<point x="141" y="-8"/>
			<point x="201" y="-8" type="curve" smooth="yes"/>
			<point x="216" y="-8"/>
			<point x="232" y="-8"/>
			<point x="251" y="-7" type="curve"/>
			<point x="459" y="464" type="line" smooth="yes"/>
			<point x="468" y="485"/>
			<point x="472" y="508"/>
			<point x="472" y="529" type="curve" smooth="yes"/>
			<point x="472" y="567"/>
			<point x="450" y="593"/>
			<point x="428" y="608" type="curve"/>
		</contour>
	</outline>
</glyph>
<glyph name="eight" format="1">
	<unicode hex="0038"/>
	<advance width="560"/>
	<outline>
		<contour>
			<point x="50" y="444" type="curve" smooth="yes"/>
			<point x="50" y="375"/>
			<point x="79" y="338"/>
			<point x="115" y="309" type="curve"/>
			<point x="72" y="283"/>
			<point x="36" y="235"/>
			<point x="36" y="163" type="curve" smooth="yes"/>
			<point x="36" y="57"/>
			<point x="132" y="-17"/>
			<point x="280" y="-17" type="curve" smooth="yes"/>
			<point x="429" y="-17"/>
			<point x="524" y="57"/>
			<point x="524" y="163" type="curve" smooth="yes"/>
			<point x="524" y="242"/>
			<point x="489" y="286"/>
			<point x="438" y="320" type="curve"/>
			<point x="481" y="349"/>
			<point x="506" y="394"/>
			<point x="506" y="452" type="curve" smooth="yes"/>
			<point x="506" y="559"/>
			<point x="412" y="624"/>
			<point x="278" y="624" type="curve" smooth="yes"/>
			<point x="144" y="624"/>
			<point x="50" y="551"/>
		</contour>
		<contour>
			<point x="207" y="178" type="curve" smooth="yes"/>
			<point x="207" y="215"/>
			<point x="230" y="244"/>
			<point x="288" y="257" type="curve"/>
			<point x="328" y="243"/>
			<point x="353" y="217"/>
			<point x="353" y="178" type="curve" smooth="yes"/>
			<point x="353" y="138"/>
			<point x="322" y="111"/>
			<point x="280" y="111" type="curve" smooth="yes"/>
			<point x="237" y="111"/>
			<point x="207" y="137"/>
		</contour>
		<contour>
			<point x="339" y="438" type="curve" smooth="yes"/>
			<point x="339" y="407"/>
			<point x="319" y="381"/>
			<point x="272" y="371" type="curve"/>
			<point x="243" y="384"/>
			<point x="217" y="405"/>
			<point x="217" y="439" type="curve" smooth="yes"/>
			<point x="217" y="474"/>
			<point x="240" y="497"/>
			<point x="278" y="497" type="curve" smooth="yes"/>
			<point x="316" y="497"/>
			<point x="339" y="474"/>
		</contour>
	</outline>
</glyph>
<glyph name="nine" format="1">
	<unicode hex="0039"/>
	<advance width="558"/>
	<outline>
		<contour>
			<point x="212" y="118" type="curve" smooth="yes"/>
			<point x="179" y="118"/>
			<point x="137" y="127"/>
			<point x="101" y="143" type="curve"/>
			<point x="84" y="130"/>
			<point x="69" y="101"/>
			<point x="69" y="73" type="curve" smooth="yes"/>
			<point x="69" y="14"/>
			<point x="133" y="-16"/>
			<point x="239" y="-16" type="curve" smooth="yes"/>
			<point x="406" y="-16"/>
			<point x="523" y="97"/>
			<point x="523" y="319" type="curve" smooth="yes"/>
			<point x="523" y="513"/>
			<point x="427" y="623"/>
			<point x="270" y="623" type="curve" smooth="yes"/>
			<point x="113" y="623"/>
			<point x="32" y="523"/>
			<point x="32" y="409" type="curve" smooth="yes"/>
			<point x="32" y="279"/>
			<point x="115" y="209"/>
			<point x="237" y="209" type="curve" smooth="yes"/>
			<point x="298" y="209"/>
			<point x="338" y="230"/>
			<point x="353" y="242" type="curve"/>
			<point x="353" y="165"/>
			<point x="297" y="118"/>
		</contour>
		<contour>
			<point x="276" y="337" type="curve" smooth="yes"/>
			<point x="232" y="337"/>
			<point x="201" y="367"/>
			<point x="201" y="412" type="curve" smooth="yes"/>
			<point x="201" y="458"/>
			<point x="227" y="488"/>
			<point x="271" y="488" type="curve" smooth="yes"/>
			<point x="320" y="488"/>
			<point x="346" y="454"/>
			<point x="347" y="379" type="curve"/>
			<point x="347" y="367" type="line"/>
			<point x="330" y="348"/>
			<point x="301" y="337"/>
		</contour>
	</outline>
</glyph>
<glyph name="colon" format="1">
	<unicode hex="003A"/>
	<advance width="258"/>
	<outline>
		<contour>
			<point x="32" y="395" type="curve" smooth="yes"/>
			<point x="32" y="340"/>
			<point x="70" y="297"/>
			<point x="129" y="297" type="curve" smooth="yes"/>
			<point x="188" y="297"/>
			<point x="226" y="340"/>
			<point x="226" y="395" type="curve" smooth="yes"/>
			<point x="226" y="450"/>
			<point x="188" y="493"/>
			<point x="129" y="493" type="curve" smooth="yes"/>
			<point x="70" y="493"/>
			<point x="32" y="450"/>
		</contour>
		<contour>
			<point x="32" y="81" type="curve" smooth="yes"/>
			<point x="32" y="26"/>
			<point x="70" y="-17"/>
			<point x="129" y="-17" type="curve" smooth="yes"/>
			<point x="188" y="-17"/>
			<point x="226" y="26"/>
			<point x="226" y="81" type="curve" smooth="yes"/>
			<point x="226" y="136"/>
			<point x="188" y="179"/>
			<point x="129" y="179" type="curve" smooth="yes"/>
			<point x="70" y="179"/>
			<point x="32" y="136"/>
		</contour>
	</outline>
</glyph>
<glyph name="semicolon" format="1">
	<unicode hex="003B"/>
	<advance width="266"/>
	<outline>
		<contour>
			<point x="162" y="-73" type="curve" smooth="yes"/>
			<point x="196" y="-29"/>
			<point x="232" y="59"/>
			<point x="232" y="114" type="curve" smooth="yes"/>
			<point x="232" y="162"/>
			<point x="195" y="178"/>
			<point x="154" y="178" type="curve" smooth="yes"/>
			<point x="122" y="178"/>
			<point x="88" y="168"/>
			<point x="65" y="156" type="curve"/>
			<point x="52" y="86"/>
			<point x="32" y="-8"/>
			<point x="3" y="-90" type="curve"/>
			<point x="24" y="-107"/>
			<point x="49" y="-115"/>
			<point x="78" y="-115" type="curve" smooth="yes"/>
			<point x="115" y="-115"/>
			<point x="140" y="-102"/>
		</contour>
		<contour>
			<point x="38" y="395" type="curve" smooth="yes"/>
			<point x="38" y="340"/>
			<point x="76" y="297"/>
			<point x="135" y="297" type="curve" smooth="yes"/>
			<point x="194" y="297"/>
			<point x="232" y="340"/>
			<point x="232" y="395" type="curve" smooth="yes"/>
			<point x="232" y="450"/>
			<point x="194" y="493"/>
			<point x="135" y="493" type="curve" smooth="yes"/>
			<point x="76" y="493"/>
			<point x="38" y="450"/>
		</contour>
	</outline>
</glyph>
<glyph name="less" format="1">
	<unicode hex="003C"/>
	<advance width="471"/>
	<outline>
		<contour>
			<point x="191" y="250" type="line"/>
			<point x="367" y="339" type="line" smooth="yes"/>
			<point x="412" y="362"/>
			<point x="436" y="383"/>
			<point x="436" y="430" type="curve" smooth="yes"/>
			<point x="436" y="465"/>
			<point x="417" y="497"/>
			<point x="352" y="514" type="curve"/>
			<point x="77" y="354" type="line" smooth="yes"/>
			<point x="47" y="337"/>
			<point x="30" y="309"/>
			<point x="30" y="253" type="curve" smooth="yes"/>
			<point x="30" y="217"/>
			<point x="39" y="185"/>
			<point x="56" y="163" type="curve"/>
			<point x="271" y="39" type="line" smooth="yes"/>
			<point x="311" y="16"/>
			<point x="335" y="4"/>
			<point x="363" y="4" type="curve" smooth="yes"/>
			<point x="421" y="4"/>
			<point x="440" y="46"/>
			<point x="440" y="93" type="curve" smooth="yes"/>
			<point x="440" y="102"/>
			<point x="439" y="114"/>
			<point x="437" y="122" type="curve"/>
		</contour>
	</outline>
</glyph>
<glyph name="equal" format="1">
	<unicode hex="003D"/>
	<advance width="489"/>
	<outline>
		<contour>
			<point x="399" y="328" type="line"/>
			<point x="434" y="328"/>
			<point x="457" y="349"/>
			<point x="457" y="396" type="curve" smooth="yes"/>
			<point x="457" y="421"/>
			<point x="448" y="446"/>
			<point x="441" y="462" type="curve"/>
			<point x="91" y="462" type="line" smooth="yes"/>
			<point x="55" y="462"/>
			<point x="32" y="441"/>
			<point x="32" y="393" type="curve" smooth="yes"/>
			<point x="32" y="369"/>
			<point x="39" y="343"/>
			<point x="48" y="328" type="curve"/>
		</contour>
		<contour>
			<point x="399" y="129" type="line"/>
			<point x="434" y="129"/>
			<point x="457" y="150"/>
			<point x="457" y="197" type="curve" smooth="yes"/>
			<point x="457" y="222"/>
			<point x="448" y="247"/>
			<point x="441" y="263" type="curve"/>
			<point x="91" y="263" type="line" smooth="yes"/>
			<point x="55" y="263"/>
			<point x="32" y="242"/>
			<point x="32" y="194" type="curve" smooth="yes"/>
			<point x="32" y="170"/>
			<point x="39" y="144"/>
			<point x="48" y="129" type="curve"/>
		</contour>
	</outline>
</glyph>
<glyph name="greater" format="1">
	<unicode hex="003E"/>
	<advance width="471"/>
	<outline>
		<contour>
			<point x="280" y="268" type="line"/>
			<point x="104" y="179" type="line" smooth="yes"/>
			<point x="59" y="156"/>
			<point x="35" y="135"/>
			<point x="35" y="88" type="curve" smooth="yes"/>
			<point x="35" y="53"/>
			<point x="54" y="21"/>
			<point x="119" y="4" type="curve"/>
			<point x="394" y="164" type="line" smooth="yes"/>
			<point x="424" y="181"/>
			<point x="441" y="209"/>
			<point x="441" y="265" type="curve" smooth="yes"/>
			<point x="441" y="301"/>
			<point x="432" y="333"/>
			<point x="415" y="355" type="curve"/>
			<point x="200" y="479" type="line"/>
			<point x="160" y="502"/>
			<point x="136" y="514"/>
			<point x="108" y="514" type="curve" smooth="yes"/>
			<point x="50" y="514"/>
			<point x="31" y="472"/>
			<point x="31" y="425" type="curve" smooth="yes"/>
			<point x="31" y="416"/>
			<point x="32" y="404"/>
			<point x="34" y="396" type="curve"/>
		</contour>
	</outline>
</glyph>
<glyph name="question" format="1">
	<unicode hex="003F"/>
	<advance width="498"/>
	<outline>
		<contour>
			<point x="103" y="77" type="curve" smooth="yes"/>
			<point x="103" y="23"/>
			<point x="140" y="-17"/>
			<point x="199" y="-17" type="curve" smooth="yes"/>
			<point x="258" y="-17"/>
			<point x="295" y="23"/>
			<point x="295" y="77" type="curve" smooth="yes"/>
			<point x="295" y="131"/>
			<point x="258" y="171"/>
			<point x="199" y="171" type="curve"/>
			<point x="140" y="171"/>
			<point x="103" y="131"/>
		</contour>
		<contour>
			<point x="237" y="228" type="line"/>
			<point x="387" y="258"/>
			<point x="463" y="327"/>
			<point x="463" y="433" type="curve" smooth="yes"/>
			<point x="463" y="546"/>
			<point x="381" y="623"/>
			<point x="224" y="623" type="curve" smooth="yes"/>
			<point x="108" y="623"/>
			<point x="24" y="591"/>
			<point x="24" y="521" type="curve" smooth="yes"/>
			<point x="24" y="487"/>
			<point x="43" y="462"/>
			<point x="65" y="445" type="curve"/>
			<point x="94" y="464"/>
			<point x="146" y="480"/>
			<point x="200" y="480" type="curve" smooth="yes"/>
			<point x="260" y="480"/>
			<point x="282" y="458"/>
			<point x="282" y="433" type="curve" smooth="yes"/>
			<point x="282" y="408"/>
			<point x="267" y="394"/>
			<point x="232" y="385" type="curve" smooth="yes"/>
			<point x="154" y="366" type="line" smooth="yes"/>
			<point x="111" y="355"/>
			<point x="89" y="337"/>
			<point x="89" y="296" type="curve"/>
			<point x="89" y="254"/>
			<point x="113" y="220"/>
			<point x="136" y="208" type="curve"/>
		</contour>
	</outline>
</glyph>
<glyph name="at" format="1">
	<unicode hex="0040"/>
	<advance width="1069"/>
	<outline>
		<contour>
			<point x="514" y="0" type="curve" smooth="yes"/>
			<point x="569" y="0"/>
			<point x="612" y="14"/>
			<point x="640" y="30" type="curve"/>
			<point x="679" y="6"/>
			<point x="732" y="-5"/>
			<point x="772" y="-5" type="curve" smooth="yes"/>
			<point x="935" y="-5"/>
			<point x="1029" y="98"/>
			<point x="1029" y="276" type="curve" smooth="yes"/>
			<point x="1029" y="512"/>
			<point x="836" y="663"/>
			<point x="561" y="663" type="curve" smooth="yes"/>
			<point x="273" y="663"/>
			<point x="49" y="488"/>
			<point x="49" y="204" type="curve" smooth="yes"/>
			<point x="49" y="-105"/>
			<point x="292" y="-227"/>
			<point x="497" y="-227" type="curve" smooth="yes"/>
			<point x="618" y="-227"/>
			<point x="651" y="-195"/>
			<point x="651" y="-140" type="curve" smooth="yes"/>
			<point x="651" y="-122"/>
			<point x="642" y="-98"/>
			<point x="633" y="-83" type="curve"/>
			<point x="604" y="-87"/>
			<point x="568" y="-94"/>
			<point x="509" y="-94" type="curve" smooth="yes"/>
			<point x="337" y="-94"/>
			<point x="210" y="20"/>
			<point x="210" y="204" type="curve" smooth="yes"/>
			<point x="210" y="394"/>
			<point x="353" y="535"/>
			<point x="562" y="535" type="curve" smooth="yes"/>
			<point x="741" y="535"/>
			<point x="869" y="430"/>
			<point x="869" y="277" type="curve" smooth="yes"/>
			<point x="869" y="187"/>
			<point x="832" y="124"/>
			<point x="772" y="124" type="curve" smooth="yes"/>
			<point x="765" y="124"/>
			<point x="752" y="126"/>
			<point x="747" y="128" type="curve"/>
			<point x="768" y="308" type="line" smooth="yes"/>
			<point x="769" y="314"/>
			<point x="769" y="324"/>
			<point x="769" y="328" type="curve" smooth="yes"/>
			<point x="769" y="354"/>
			<point x="755" y="378"/>
			<point x="730" y="395" type="curve" smooth="yes"/>
			<point x="687" y="425"/>
			<point x="627" y="442"/>
			<point x="564" y="442" type="curve" smooth="yes"/>
			<point x="426" y="442"/>
			<point x="312" y="356"/>
			<point x="312" y="197" type="curve" smooth="yes"/>
			<point x="312" y="68"/>
			<point x="400" y="0"/>
		</contour>
		<contour>
			<point x="594" y="143" type="line"/>
			<point x="581" y="135"/>
			<point x="568" y="128"/>
			<point x="544" y="128" type="curve" smooth="yes"/>
			<point x="502" y="128"/>
			<point x="480" y="154"/>
			<point x="480" y="198" type="curve" smooth="yes"/>
			<point x="480" y="275"/>
			<point x="521" y="309"/>
			<point x="563" y="309" type="curve" smooth="yes"/>
			<point x="587" y="309"/>
			<point x="601" y="304"/>
			<point x="609" y="299" type="curve"/>
		</contour>
	</outline>
</glyph>
<glyph name="B" format="1">
	<unicode hex="0042"/>
	<advance width="619"/>
	<outline>
		<contour>
			<point x="235" y="247" type="line"/>
			<point x="317" y="247" type="line" smooth="yes"/>
			<point x="376" y="247"/>
			<point x="406" y="230"/>
			<point x="406" y="186" type="curve" smooth="yes"/>
			<point x="406" y="139"/>
			<point x="366" y="118"/>
			<point x="313" y="118" type="curve" smooth="yes"/>
			<point x="287" y="118"/>
			<point x="253" y="120"/>
			<point x="235" y="125" type="curve"/>
		</contour>
		<contour>
			<point x="235" y="487" type="line"/>
			<point x="249" y="489"/>
			<point x="280" y="491"/>
			<point x="300" y="491" type="curve" smooth="yes"/>
			<point x="360" y="491"/>
			<point x="390" y="468"/>
			<point x="390" y="432" type="curve" smooth="yes"/>
			<point x="390" y="391"/>
			<point x="365" y="369"/>
			<point x="308" y="369" type="curve" smooth="yes"/>
			<point x="235" y="369" type="line"/>
		</contour>
		<contour>
			<point x="300" y="-16" type="curve" smooth="yes"/>
			<point x="483" y="-16"/>
			<point x="585" y="47"/>
			<point x="585" y="178" type="curve" smooth="yes"/>
			<point x="585" y="252"/>
			<point x="534" y="304"/>
			<point x="468" y="322" type="curve"/>
			<point x="526" y="342"/>
			<point x="564" y="387"/>
			<point x="564" y="447" type="curve" smooth="yes"/>
			<point x="564" y="566"/>
			<point x="467" y="623"/>
			<point x="298" y="623" type="curve" smooth="yes"/>
			<point x="227" y="623"/>
			<point x="153" y="616"/>
			<point x="108" y="600" type="curve" smooth="yes"/>
			<point x="82" y="591"/>
			<point x="65" y="577"/>
			<point x="65" y="549" type="curve" smooth="yes"/>
			<point x="65" y="82" type="line" smooth="yes"/>
			<point x="65" y="46"/>
			<point x="84" y="23"/>
			<point x="120" y="9" type="curve" smooth="yes"/>
			<point x="173" y="-11"/>
			<point x="254" y="-16"/>
		</contour>
	</outline>
</glyph>
<glyph name="D" format="1">
	<unicode hex="0044"/>
	<advance width="666"/>
	<outline>
		<contour>
			<point x="239" y="478" type="line"/>
			<point x="259" y="481"/>
			<point x="278" y="482"/>
			<point x="297" y="482" type="curve" smooth="yes"/>
			<point x="390" y="482"/>
			<point x="451" y="420"/>
			<point x="451" y="301" type="curve" smooth="yes"/>
			<point x="451" y="176"/>
			<point x="387" y="125"/>
			<point x="296" y="125" type="curve" smooth="yes"/>
			<point x="278" y="125"/>
			<point x="253" y="127"/>
			<point x="239" y="130" type="curve"/>
		</contour>
		<contour>
			<point x="295" y="-16" type="curve" smooth="yes"/>
			<point x="496" y="-16"/>
			<point x="631" y="92"/>
			<point x="631" y="304" type="curve" smooth="yes"/>
			<point x="631" y="522"/>
			<point x="492" y="623"/>
			<point x="285" y="623" type="curve" smooth="yes"/>
			<point x="234" y="623"/>
			<point x="165" y="619"/>
			<point x="108" y="600" type="curve" smooth="yes"/>
			<point x="82" y="591"/>
			<point x="65" y="577"/>
			<point x="65" y="549" type="curve" smooth="yes"/>
			<point x="65" y="82" type="line" smooth="yes"/>
			<point x="65" y="46"/>
			<point x="84" y="23"/>
			<point x="120" y="9" type="curve" smooth="yes"/>
			<point x="173" y="-11"/>
			<point x="249" y="-16"/>
		</contour>
	</outline>
</glyph>
<glyph name="E" format="1">
	<unicode hex="0045"/>
	<advance width="548"/>
	<outline>
		<contour>
			<point x="65" y="90" type="line" smooth="yes"/>
			<point x="65" y="33"/>
			<point x="101" y="-3"/>
			<point x="158" y="-3" type="curve" smooth="yes"/>
			<point x="450" y="-3" type="line" smooth="yes"/>
			<point x="486" y="-3"/>
			<point x="510" y="17"/>
			<point x="510" y="68" type="curve" smooth="yes"/>
			<point x="510" y="95"/>
			<point x="501" y="120"/>
			<point x="492" y="135" type="curve"/>
			<point x="235" y="135" type="line"/>
			<point x="235" y="240" type="line"/>
			<point x="419" y="240" type="line" smooth="yes"/>
			<point x="455" y="240"/>
			<point x="478" y="260"/>
			<point x="478" y="310" type="curve" smooth="yes"/>
			<point x="478" y="337"/>
			<point x="469" y="361"/>
			<point x="460" y="376" type="curve"/>
			<point x="235" y="376" type="line"/>
			<point x="235" y="469" type="line"/>
			<point x="446" y="469" type="line" smooth="yes"/>
			<point x="482" y="469"/>
			<point x="506" y="489"/>
			<point x="506" y="539" type="curve" smooth="yes"/>
			<point x="506" y="566"/>
			<point x="497" y="591"/>
			<point x="488" y="606" type="curve"/>
			<point x="158" y="606" type="line" smooth="yes"/>
			<point x="101" y="606"/>
			<point x="65" y="570"/>
			<point x="65" y="513" type="curve" smooth="yes"/>
		</contour>
	</outline>
</glyph>
<glyph name="F" format="1">
	<unicode hex="0046"/>
	<advance width="531"/>
	<outline>
		<contour>
			<point x="158" y="606" type="line" smooth="yes"/>
			<point x="101" y="606"/>
			<point x="65" y="570"/>
			<point x="65" y="513" type="curve" smooth="yes"/>
			<point x="65" y="78" type="line" smooth="yes"/>
			<point x="65" y="9"/>
			<point x="97" y="-5"/>
			<point x="159" y="-5" type="curve" smooth="yes"/>
			<point x="189" y="-5"/>
			<point x="226" y="0"/>
			<point x="240" y="4" type="curve"/>
			<point x="240" y="215" type="line"/>
			<point x="415" y="215" type="line" smooth="yes"/>
			<point x="452" y="215"/>
			<point x="476" y="235"/>
			<point x="476" y="286" type="curve" smooth="yes"/>
			<point x="476" y="313"/>
			<point x="467" y="338"/>
			<point x="457" y="353" type="curve"/>
			<point x="238" y="353" type="line"/>
			<point x="238" y="466" type="line"/>
			<point x="448" y="466" type="line" smooth="yes"/>
			<point x="485" y="466"/>
			<point x="509" y="486"/>
			<point x="509" y="538" type="curve" smooth="yes"/>
			<point x="509" y="565"/>
			<point x="500" y="591"/>
			<point x="491" y="606" type="curve"/>
		</contour>
	</outline>
</glyph>
<glyph name="H" format="1">
	<unicode hex="0048"/>
	<advance width="672"/>
	<outline>
		<contour>
			<point x="607" y="532" type="line" smooth="yes"/>
			<point x="607" y="601"/>
			<point x="574" y="615"/>
			<point x="513" y="615" type="curve" smooth="yes"/>
			<point x="484" y="615"/>
			<point x="446" y="609"/>
			<point x="432" y="606" type="curve"/>
			<point x="432" y="372" type="line"/>
			<point x="240" y="372" type="line"/>
			<point x="240" y="532" type="line" smooth="yes"/>
			<point x="240" y="601"/>
			<point x="207" y="615"/>
			<point x="146" y="615" type="curve" smooth="yes"/>
			<point x="117" y="615"/>
			<point x="79" y="609"/>
			<point x="65" y="606" type="curve"/>
			<point x="65" y="78" type="line" smooth="yes"/>
			<point x="65" y="9"/>
			<point x="97" y="-5"/>
			<point x="159" y="-5" type="curve" smooth="yes"/>
			<point x="189" y="-5"/>
			<point x="226" y="0"/>
			<point x="240" y="4" type="curve"/>
			<point x="240" y="234" type="line"/>
			<point x="432" y="234" type="line"/>
			<point x="432" y="78" type="line" smooth="yes"/>
			<point x="432" y="9"/>
			<point x="464" y="-5"/>
			<point x="526" y="-5" type="curve" smooth="yes"/>
			<point x="556" y="-5"/>
			<point x="593" y="0"/>
			<point x="607" y="4" type="curve"/>
		</contour>
	</outline>
</glyph>
<glyph name="I" format="1">
	<unicode hex="0049"/>
	<advance width="305"/>
	<outline>
		<contour>
			<point x="240" y="532" type="line" smooth="yes"/>
			<point x="240" y="601"/>
			<point x="207" y="615"/>
			<point x="146" y="615" type="curve" smooth="yes"/>
			<point x="117" y="615"/>
			<point x="79" y="609"/>
			<point x="65" y="606" type="curve"/>
			<point x="65" y="78" type="line" smooth="yes"/>
			<point x="65" y="9"/>
			<point x="97" y="-5"/>
			<point x="159" y="-5" type="curve" smooth="yes"/>
			<point x="189" y="-5"/>
			<point x="226" y="0"/>
			<point x="240" y="4" type="curve"/>
		</contour>
	</outline>
</glyph>
<glyph name="J" format="1">
	<unicode hex="004A"/>
	<advance width="412"/>
	<outline>
		<contour>
			<point x="175" y="202" type="line" smooth="yes"/>
			<point x="175" y="151"/>
			<point x="154" y="125"/>
			<point x="102" y="125" type="curve" smooth="yes"/>
			<point x="81" y="125"/>
			<point x="65" y="127"/>
			<point x="40" y="132" type="curve"/>
			<point x="30" y="120"/>
			<point x="21" y="99"/>
			<point x="21" y="73" type="curve" smooth="yes"/>
			<point x="21" y="41"/>
			<point x="35" y="15"/>
			<point x="65" y="0" type="curve" smooth="yes"/>
			<point x="85" y="-10"/>
			<point x="113" y="-16"/>
			<point x="149" y="-16" type="curve" smooth="yes"/>
			<point x="280" y="-16"/>
			<point x="350" y="44"/>
			<point x="350" y="162" type="curve" smooth="yes"/>
			<point x="350" y="532" type="line" smooth="yes"/>
			<point x="350" y="601"/>
			<point x="317" y="615"/>
			<point x="256" y="615" type="curve" smooth="yes"/>
			<point x="227" y="615"/>
			<point x="189" y="609"/>
			<point x="175" y="606" type="curve"/>
		</contour>
	</outline>
</glyph>
<glyph name="K" format="1">
	<unicode hex="004B"/>
	<advance width="615"/>
	<outline>
		<contour>
			<point x="382" y="61" type="line" smooth="yes"/>
			<point x="414" y="24"/>
			<point x="444" y="-8"/>
			<point x="499" y="-8" type="curve" smooth="yes"/>
			<point x="549" y="-8"/>
			<point x="595" y="26"/>
			<point x="595" y="84" type="curve"/>
			<point x="546" y="135"/>
			<point x="461" y="226"/>
			<point x="395" y="300" type="curve"/>
			<point x="520" y="425" type="line" smooth="yes"/>
			<point x="559" y="464"/>
			<point x="575" y="491"/>
			<point x="575" y="526" type="curve" smooth="yes"/>
			<point x="575" y="573"/>
			<point x="539" y="612"/>
			<point x="448" y="612" type="curve"/>
			<point x="240" y="373" type="line"/>
			<point x="240" y="532" type="line" smooth="yes"/>
			<point x="240" y="601"/>
			<point x="207" y="615"/>
			<point x="146" y="615" type="curve" smooth="yes"/>
			<point x="117" y="615"/>
			<point x="79" y="609"/>
			<point x="65" y="606" type="curve"/>
			<point x="65" y="78" type="line" smooth="yes"/>
			<point x="65" y="9"/>
			<point x="97" y="-5"/>
			<point x="159" y="-5" type="curve" smooth="yes"/>
			<point x="189" y="-5"/>
			<point x="226" y="0"/>
			<point x="241" y="4" type="curve"/>
			<point x="241" y="225" type="line"/>
		</contour>
	</outline>
</glyph>
<glyph name="L" format="1">
	<unicode hex="004C"/>
	<advance width="513"/>
	<outline>
		<contour>
			<point x="426" y="-3" type="line" smooth="yes"/>
			<point x="463" y="-3"/>
			<point x="488" y="17"/>
			<point x="488" y="70" type="curve" smooth="yes"/>
			<point x="488" y="97"/>
			<point x="478" y="123"/>
			<point x="469" y="138" type="curve"/>
			<point x="240" y="138" type="line"/>
			<point x="240" y="533" type="line" smooth="yes"/>
			<point x="240" y="602"/>
			<point x="207" y="616"/>
			<point x="146" y="616" type="curve" smooth="yes"/>
			<point x="117" y="616"/>
			<point x="79" y="610"/>
			<point x="65" y="607" type="curve"/>
			<point x="65" y="90" type="line" smooth="yes"/>
			<point x="65" y="33"/>
			<point x="101" y="-3"/>
			<point x="158" y="-3" type="curve" smooth="yes"/>
		</contour>
	</outline>
</glyph>
<glyph name="M" format="1">
	<unicode hex="004D"/>
	<advance width="797"/>
	<outline>
		<contour>
			<point x="484" y="149" type="curve"/>
			<point x="520" y="272"/>
			<point x="546" y="346"/>
			<point x="559" y="398" type="curve"/>
			<point x="564" y="398" type="line"/>
			<point x="568" y="320"/>
			<point x="568" y="201"/>
			<point x="576" y="56" type="curve" smooth="yes"/>
			<point x="579" y="5"/>
			<point x="618" y="-8"/>
			<point x="668" y="-8" type="curve" smooth="yes"/>
			<point x="707" y="-8"/>
			<point x="728" y="-2"/>
			<point x="751" y="11" type="curve"/>
			<point x="746" y="109"/>
			<point x="717" y="473"/>
			<point x="702" y="554" type="curve" smooth="yes"/>
			<point x="695" y="590"/>
			<point x="651" y="610"/>
			<point x="586" y="610" type="curve" smooth="yes"/>
			<point x="548" y="610"/>
			<point x="515" y="601"/>
			<point x="495" y="591" type="curve"/>
			<point x="469" y="521"/>
			<point x="435" y="408"/>
			<point x="403" y="297" type="curve"/>
			<point x="398" y="297" type="line"/>
			<point x="376" y="367"/>
			<point x="343" y="476"/>
			<point x="319" y="540" type="curve" smooth="yes"/>
			<point x="301" y="589"/>
			<point x="262" y="610"/>
			<point x="192" y="610" type="curve" smooth="yes"/>
			<point x="127" y="610"/>
			<point x="92" y="584"/>
			<point x="81" y="567" type="curve"/>
			<point x="52" y="57" type="line"/>
			<point x="52" y="8"/>
			<point x="87" y="-8"/>
			<point x="145" y="-8" type="curve" smooth="yes"/>
			<point x="173" y="-8"/>
			<point x="204" y="-2"/>
			<point x="221" y="4" type="curve"/>
			<point x="229" y="155"/>
			<point x="226" y="246"/>
			<point x="234" y="403" type="curve"/>
			<point x="239" y="403" type="line"/>
			<point x="252" y="348"/>
			<point x="276" y="283"/>
			<point x="313" y="165" type="curve" smooth="yes"/>
			<point x="322" y="136"/>
			<point x="355" y="125"/>
			<point x="403" y="125" type="curve" smooth="yes"/>
			<point x="439" y="125"/>
			<point x="467" y="135"/>
		</contour>
	</outline>
</glyph>
<glyph name="N" format="1">
	<unicode hex="004E"/>
	<advance width="679"/>
	<outline>
		<contour>
			<point x="614" y="535" type="line" smooth="yes"/>
			<point x="614" y="601"/>
			<point x="583" y="615"/>
			<point x="524" y="615" type="curve" smooth="yes"/>
			<point x="495" y="615"/>
			<point x="460" y="610"/>
			<point x="446" y="606" type="curve"/>
			<point x="446" y="444" type="line" smooth="yes"/>
			<point x="446" y="372"/>
			<point x="447" y="300"/>
			<point x="452" y="228" type="curve"/>
			<point x="447" y="227" type="line"/>
			<point x="428" y="275"/>
			<point x="414" y="308"/>
			<point x="394" y="349" type="curve" smooth="yes"/>
			<point x="294" y="551" type="line" smooth="yes"/>
			<point x="267" y="606"/>
			<point x="219" y="615"/>
			<point x="170" y="615" type="curve" smooth="yes"/>
			<point x="126" y="615"/>
			<point x="83" y="601"/>
			<point x="65" y="575" type="curve"/>
			<point x="65" y="75" type="line" smooth="yes"/>
			<point x="65" y="9"/>
			<point x="96" y="-5"/>
			<point x="155" y="-5" type="curve" smooth="yes"/>
			<point x="184" y="-5"/>
			<point x="219" y="0"/>
			<point x="233" y="4" type="curve"/>
			<point x="233" y="159" type="line" smooth="yes"/>
			<point x="233" y="230"/>
			<point x="233" y="307"/>
			<point x="228" y="379" type="curve"/>
			<point x="234" y="380" type="line"/>
			<point x="253" y="332"/>
			<point x="267" y="299"/>
			<point x="287" y="258" type="curve" smooth="yes"/>
			<point x="386" y="56" type="line" smooth="yes"/>
			<point x="414" y="0"/>
			<point x="461" y="-8"/>
			<point x="510" y="-8" type="curve" smooth="yes"/>
			<point x="559" y="-8"/>
			<point x="595" y="3"/>
			<point x="614" y="21" type="curve"/>
		</contour>
	</outline>
</glyph>
<glyph name="O" format="1">
	<unicode hex="004F"/>
	<advance width="703"/>
	<outline>
		<contour>
			<point x="35" y="304" type="curve" smooth="yes"/>
			<point x="35" y="99"/>
			<point x="169" y="-18"/>
			<point x="351" y="-18" type="curve" smooth="yes"/>
			<point x="533" y="-18"/>
			<point x="668" y="95"/>
			<point x="668" y="304" type="curve" smooth="yes"/>
			<point x="668" y="512"/>
			<point x="529" y="625"/>
			<point x="351" y="625" type="curve" smooth="yes"/>
			<point x="173" y="625"/>
			<point x="35" y="512"/>
		</contour>
		<contour>
			<point x="215" y="304" type="curve" smooth="yes"/>
			<point x="215" y="424"/>
			<point x="270" y="484"/>
			<point x="352" y="484" type="curve" smooth="yes"/>
			<point x="435" y="484"/>
			<point x="488" y="423"/>
			<point x="488" y="304" type="curve" smooth="yes"/>
			<point x="488" y="183"/>
			<point x="434" y="123"/>
			<point x="351" y="123" type="curve" smooth="yes"/>
			<point x="269" y="123"/>
			<point x="215" y="183"/>
		</contour>
	</outline>
</glyph>
<glyph name="P" format="1">
	<unicode hex="0050"/>
	<advance width="581"/>
	<outline>
		<contour>
			<point x="239" y="325" type="line"/>
			<point x="239" y="480" type="line"/>
			<point x="253" y="482"/>
			<point x="266" y="483"/>
			<point x="287" y="483" type="curve" smooth="yes"/>
			<point x="347" y="483"/>
			<point x="379" y="454"/>
			<point x="379" y="404" type="curve" smooth="yes"/>
			<point x="379" y="351"/>
			<point x="347" y="325"/>
			<point x="292" y="325" type="curve" smooth="yes"/>
		</contour>
		<contour>
			<point x="240" y="188" type="line"/>
			<point x="311" y="188" type="line" smooth="yes"/>
			<point x="475" y="188"/>
			<point x="557" y="274"/>
			<point x="557" y="404" type="curve" smooth="yes"/>
			<point x="557" y="538"/>
			<point x="456" y="623"/>
			<point x="273" y="623" type="curve" smooth="yes"/>
			<point x="215" y="623"/>
			<point x="153" y="616"/>
			<point x="108" y="600" type="curve" smooth="yes"/>
			<point x="82" y="591"/>
			<point x="65" y="577"/>
			<point x="65" y="549" type="curve" smooth="yes"/>
			<point x="65" y="78" type="line" smooth="yes"/>
			<point x="65" y="9"/>
			<point x="97" y="-5"/>
			<point x="159" y="-5" type="curve" smooth="yes"/>
			<point x="189" y="-5"/>
			<point x="226" y="0"/>
			<point x="240" y="4" type="curve"/>
		</contour>
	</outline>
</glyph>
<glyph name="Q" format="1">
	<unicode hex="0051"/>
	<advance width="705"/>
	<outline>
		<contour>
			<point x="35" y="304" type="curve" smooth="yes"/>
			<point x="35" y="99"/>
			<point x="169" y="-18"/>
			<point x="351" y="-18" type="curve" smooth="yes"/>
			<point x="359" y="-18" type="line"/>
			<point x="403" y="-59" type="line" smooth="yes"/>
			<point x="471" y="-123"/>
			<point x="537" y="-158"/>
			<point x="598" y="-158" type="curve" smooth="yes"/>
			<point x="662" y="-158"/>
			<point x="705" y="-125"/>
			<point x="705" y="-49" type="curve" smooth="yes"/>
			<point x="705" y="-44"/>
			<point x="705" y="-38"/>
			<point x="704" y="-30" type="curve"/>
			<point x="647" y="-13"/>
			<point x="574" y="11"/>
			<point x="534" y="30" type="curve"/>
			<point x="616" y="82"/>
			<point x="668" y="174"/>
			<point x="668" y="304" type="curve" smooth="yes"/>
			<point x="668" y="512"/>
			<point x="529" y="625"/>
			<point x="351" y="625" type="curve" smooth="yes"/>
			<point x="173" y="625"/>
			<point x="35" y="512"/>
		</contour>
		<contour>
			<point x="215" y="304" type="curve" smooth="yes"/>
			<point x="215" y="424"/>
			<point x="270" y="484"/>
			<point x="352" y="484" type="curve" smooth="yes"/>
			<point x="435" y="484"/>
			<point x="488" y="423"/>
			<point x="488" y="304" type="curve" smooth="yes"/>
			<point x="488" y="183"/>
			<point x="434" y="123"/>
			<point x="351" y="123" type="curve" smooth="yes"/>
			<point x="269" y="123"/>
			<point x="215" y="183"/>
		</contour>
	</outline>
</glyph>
<glyph name="R" format="1">
	<unicode hex="0052"/>
	<advance width="609"/>
	<outline>
		<contour>
			<point x="292" y="196" type="line"/>
			<point x="376" y="61" type="line" smooth="yes"/>
			<point x="401" y="20"/>
			<point x="425" y="-8"/>
			<point x="483" y="-8" type="curve" smooth="yes"/>
			<point x="527" y="-8"/>
			<point x="566" y="18"/>
			<point x="579" y="64" type="curve"/>
			<point x="552" y="110"/>
			<point x="501" y="169"/>
			<point x="453" y="234" type="curve"/>
			<point x="512" y="266"/>
			<point x="561" y="325"/>
			<point x="561" y="408" type="curve" smooth="yes"/>
			<point x="561" y="540"/>
			<point x="467" y="623"/>
			<point x="283" y="623" type="curve" smooth="yes"/>
			<point x="215" y="623"/>
			<point x="153" y="616"/>
			<point x="108" y="600" type="curve" smooth="yes"/>
			<point x="82" y="591"/>
			<point x="65" y="577"/>
			<point x="65" y="549" type="curve" smooth="yes"/>
			<point x="65" y="78" type="line" smooth="yes"/>
			<point x="65" y="9"/>
			<point x="97" y="-5"/>
			<point x="158" y="-5" type="curve" smooth="yes"/>
			<point x="188" y="-5"/>
			<point x="225" y="0"/>
			<point x="239" y="4" type="curve"/>
			<point x="239" y="196" type="line"/>
		</contour>
		<contour>
			<point x="238" y="329" type="line"/>
			<point x="238" y="479" type="line"/>
			<point x="252" y="481"/>
			<point x="262" y="483"/>
			<point x="282" y="483" type="curve" smooth="yes"/>
			<point x="352" y="483"/>
			<point x="384" y="457"/>
			<point x="384" y="406" type="curve" smooth="yes"/>
			<point x="384" y="355"/>
			<point x="352" y="329"/>
			<point x="302" y="329" type="curve" smooth="yes"/>
		</contour>
	</outline>
</glyph>
<glyph name="S" format="1">
	<unicode hex="0053"/>
	<advance width="551"/>
	<outline>
		<contour>
			<point x="279" y="227" type="line" smooth="yes"/>
			<point x="318" y="214"/>
			<point x="340" y="203"/>
			<point x="340" y="176" type="curve" smooth="yes"/>
			<point x="340" y="149"/>
			<point x="316" y="126"/>
			<point x="251" y="126" type="curve" smooth="yes"/>
			<point x="187" y="126"/>
			<point x="131" y="151"/>
			<point x="94" y="180" type="curve"/>
			<point x="67" y="165"/>
			<point x="40" y="138"/>
			<point x="40" y="99" type="curve" smooth="yes"/>
			<point x="40" y="24"/>
			<point x="135" y="-16"/>
			<point x="257" y="-16" type="curve" smooth="yes"/>
			<point x="429" y="-16"/>
			<point x="521" y="61"/>
			<point x="521" y="174" type="curve" smooth="yes"/>
			<point x="521" y="281"/>
			<point x="452" y="337"/>
			<point x="326" y="377" type="curve" smooth="yes"/>
			<point x="273" y="394" type="line" smooth="yes"/>
			<point x="239" y="405"/>
			<point x="221" y="416"/>
			<point x="221" y="436" type="curve" smooth="yes"/>
			<point x="221" y="461"/>
			<point x="248" y="480"/>
			<point x="308" y="480" type="curve" smooth="yes"/>
			<point x="366" y="480"/>
			<point x="419" y="464"/>
			<point x="448" y="445" type="curve"/>
			<point x="470" y="462"/>
			<point x="489" y="487"/>
			<point x="489" y="521" type="curve" smooth="yes"/>
			<point x="489" y="591"/>
			<point x="405" y="623"/>
			<point x="289" y="623" type="curve" smooth="yes"/>
			<point x="132" y="623"/>
			<point x="40" y="549"/>
			<point x="40" y="436" type="curve" smooth="yes"/>
			<point x="40" y="319"/>
			<point x="120" y="280"/>
			<point x="237" y="241" type="curve" smooth="yes"/>
		</contour>
	</outline>
</glyph>
<glyph name="T" format="1">
	<unicode hex="0054"/>
	<advance width="556"/>
	<outline>
		<contour>
			<point x="187" y="466" type="line"/>
			<point x="187" y="78" type="line" smooth="yes"/>
			<point x="187" y="9"/>
			<point x="219" y="-5"/>
			<point x="281" y="-5" type="curve" smooth="yes"/>
			<point x="311" y="-5"/>
			<point x="348" y="0"/>
			<point x="362" y="4" type="curve"/>
			<point x="362" y="466" type="line"/>
			<point x="473" y="466" type="line" smooth="yes"/>
			<point x="510" y="466"/>
			<point x="536" y="487"/>
			<point x="536" y="539" type="curve" smooth="yes"/>
			<point x="536" y="567"/>
			<point x="526" y="594"/>
			<point x="517" y="609" type="curve"/>
			<point x="81" y="609" type="line" smooth="yes"/>
			<point x="44" y="609"/>
			<point x="18" y="588"/>
			<point x="18" y="536" type="curve" smooth="yes"/>
			<point x="18" y="508"/>
			<point x="28" y="481"/>
			<point x="37" y="466" type="curve"/>
		</contour>
	</outline>
</glyph>
<glyph name="U" format="1">
	<unicode hex="0055"/>
	<advance width="664"/>
	<outline>
		<contour>
			<point x="602" y="532" type="line" smooth="yes"/>
			<point x="602" y="601"/>
			<point x="569" y="615"/>
			<point x="508" y="615" type="curve" smooth="yes"/>
			<point x="479" y="615"/>
			<point x="441" y="609"/>
			<point x="427" y="606" type="curve"/>
			<point x="427" y="227" type="line" smooth="yes"/>
			<point x="427" y="164"/>
			<point x="389" y="125"/>
			<point x="332" y="125" type="curve" smooth="yes"/>
			<point x="276" y="125"/>
			<point x="237" y="164"/>
			<point x="237" y="227" type="curve" smooth="yes"/>
			<point x="237" y="532" type="line" smooth="yes"/>
			<point x="237" y="601"/>
			<point x="204" y="615"/>
			<point x="143" y="615" type="curve" smooth="yes"/>
			<point x="114" y="615"/>
			<point x="76" y="609"/>
			<point x="62" y="606" type="curve"/>
			<point x="62" y="224" type="line" smooth="yes"/>
			<point x="62" y="79"/>
			<point x="164" y="-16"/>
			<point x="332" y="-16" type="curve" smooth="yes"/>
			<point x="500" y="-16"/>
			<point x="602" y="79"/>
			<point x="602" y="224" type="curve" smooth="yes"/>
		</contour>
	</outline>
</glyph>
<glyph name="V" format="1">
	<unicode hex="0056"/>
	<advance width="634"/>
	<outline>
		<contour>
			<point x="428" y="20" type="curve"/>
			<point x="473" y="81"/>
			<point x="611" y="452"/>
			<point x="611" y="538" type="curve" smooth="yes"/>
			<point x="611" y="589"/>
			<point x="571" y="609"/>
			<point x="522" y="609" type="curve" smooth="yes"/>
			<point x="488" y="609"/>
			<point x="461" y="600"/>
			<point x="437" y="588" type="curve"/>
			<point x="402" y="442"/>
			<point x="363" y="286"/>
			<point x="327" y="162" type="curve"/>
			<point x="321" y="162" type="line"/>
			<point x="281" y="291"/>
			<point x="245" y="405"/>
			<point x="209" y="536" type="curve" smooth="yes"/>
			<point x="194" y="591"/>
			<point x="163" y="609"/>
			<point x="114" y="609" type="curve" smooth="yes"/>
			<point x="74" y="609"/>
			<point x="36" y="590"/>
			<point x="17" y="572" type="curve"/>
			<point x="60" y="397"/>
			<point x="161" y="130"/>
			<point x="207" y="37" type="curve" smooth="yes"/>
			<point x="221" y="8"/>
			<point x="265" y="-10"/>
			<point x="320" y="-10" type="curve" smooth="yes"/>
			<point x="366" y="-10"/>
			<point x="409" y="4"/>
		</contour>
	</outline>
</glyph>
<glyph name="W" format="1">
	<unicode hex="0057"/>
	<advance width="863"/>
	<outline>
		<contour>
			<point x="345" y="458" type="curve"/>
			<point x="318" y="321"/>
			<point x="298" y="258"/>
			<point x="275" y="151" type="curve"/>
			<point x="270" y="151" type="line"/>
			<point x="263" y="188"/>
			<point x="255" y="267"/>
			<point x="211" y="538" type="curve" smooth="yes"/>
			<point x="203" y="590"/>
			<point x="168" y="610"/>
			<point x="118" y="610" type="curve" smooth="yes"/>
			<point x="79" y="610"/>
			<point x="44" y="592"/>
			<point x="25" y="575" type="curve"/>
			<point x="42" y="409"/>
			<point x="105" y="114"/>
			<point x="139" y="40" type="curve" smooth="yes"/>
			<point x="153" y="10"/>
			<point x="209" y="-8"/>
			<point x="268" y="-8" type="curve" smooth="yes"/>
			<point x="316" y="-8"/>
			<point x="359" y="6"/>
			<point x="379" y="24" type="curve"/>
			<point x="395" y="81"/>
			<point x="417" y="170"/>
			<point x="435" y="256" type="curve"/>
			<point x="457" y="168"/>
			<point x="478" y="93"/>
			<point x="495" y="40" type="curve" smooth="yes"/>
			<point x="504" y="10"/>
			<point x="552" y="-8"/>
			<point x="614" y="-8" type="curve" smooth="yes"/>
			<point x="662" y="-8"/>
			<point x="713" y="6"/>
			<point x="733" y="24" type="curve"/>
			<point x="774" y="112"/>
			<point x="832" y="452"/>
			<point x="832" y="540" type="curve" smooth="yes"/>
			<point x="832" y="591"/>
			<point x="790" y="610"/>
			<point x="741" y="610" type="curve" smooth="yes"/>
			<point x="713" y="610"/>
			<point x="687" y="603"/>
			<point x="662" y="589" type="curve"/>
			<point x="645" y="444"/>
			<point x="632" y="314"/>
			<point x="609" y="151" type="curve"/>
			<point x="604" y="151" type="line"/>
			<point x="582" y="244"/>
			<point x="560" y="317"/>
			<point x="531" y="427" type="curve" smooth="yes"/>
			<point x="523" y="459"/>
			<point x="483" y="476"/>
			<point x="427" y="476" type="curve" smooth="yes"/>
			<point x="395" y="476"/>
			<point x="360" y="465"/>
		</contour>
	</outline>
</glyph>
<glyph name="X" format="1">
	<unicode hex="0058"/>
	<advance width="601"/>
	<outline>
		<contour>
			<point x="182" y="308" type="line"/>
			<point x="77" y="173" type="line" smooth="yes"/>
			<point x="47" y="134"/>
			<point x="29" y="110"/>
			<point x="29" y="72" type="curve" smooth="yes"/>
			<point x="29" y="27"/>
			<point x="65" y="-8"/>
			<point x="140" y="-8" type="curve" smooth="yes"/>
			<point x="149" y="-8"/>
			<point x="159" y="-7"/>
			<point x="169" y="-6" type="curve"/>
			<point x="295" y="184" type="line"/>
			<point x="376" y="56" type="line" smooth="yes"/>
			<point x="405" y="9"/>
			<point x="431" y="-8"/>
			<point x="469" y="-8" type="curve" smooth="yes"/>
			<point x="528" y="-8"/>
			<point x="565" y="23"/>
			<point x="575" y="72" type="curve"/>
			<point x="412" y="305" type="line"/>
			<point x="515" y="431" type="line" smooth="yes"/>
			<point x="548" y="472"/>
			<point x="569" y="497"/>
			<point x="569" y="534" type="curve" smooth="yes"/>
			<point x="569" y="577"/>
			<point x="532" y="610"/>
			<point x="471" y="610" type="curve" smooth="yes"/>
			<point x="452" y="610"/>
			<point x="431" y="604"/>
			<point x="420" y="599" type="curve"/>
			<point x="305" y="429" type="line"/>
			<point x="227" y="548" type="line" smooth="yes"/>
			<point x="197" y="594"/>
			<point x="169" y="612"/>
			<point x="131" y="612" type="curve" smooth="yes"/>
			<point x="72" y="612"/>
			<point x="36" y="569"/>
			<point x="23" y="532" type="curve"/>
		</contour>
	</outline>
</glyph>
<glyph name="Z" format="1">
	<unicode hex="005A"/>
	<advance width="560"/>
	<outline>
		<contour>
			<point x="78" y="192" type="line"/>
			<point x="54" y="163"/>
			<point x="34" y="126"/>
			<point x="34" y="93" type="curve" smooth="yes"/>
			<point x="34" y="52"/>
			<point x="50" y="19"/>
			<point x="73" y="0" type="curve"/>
			<point x="467" y="0" type="line" smooth="yes"/>
			<point x="504" y="0"/>
			<point x="530" y="21"/>
			<point x="530" y="73" type="curve" smooth="yes"/>
			<point x="530" y="101"/>
			<point x="520" y="128"/>
			<point x="511" y="143" type="curve"/>
			<point x="255" y="143" type="line"/>
			<point x="482" y="417" type="line" smooth="yes"/>
			<point x="506" y="446"/>
			<point x="523" y="480"/>
			<point x="523" y="513" type="curve" smooth="yes"/>
			<point x="523" y="554"/>
			<point x="508" y="585"/>
			<point x="479" y="609" type="curve"/>
			<point x="106" y="609" type="line" smooth="yes"/>
			<point x="69" y="609"/>
			<point x="43" y="588"/>
			<point x="43" y="536" type="curve" smooth="yes"/>
			<point x="43" y="508"/>
			<point x="53" y="481"/>
			<point x="62" y="466" type="curve"/>
			<point x="308" y="466" type="line"/>
		</contour>
	</outline>
</glyph>
<glyph name="bracketleft" format="1">
	<unicode hex="005B"/>
	<advance width="303"/>
	<outline>
		<contour>
			<point x="46" y="-55" type="line" smooth="yes"/>
			<point x="46" y="-101"/>
			<point x="76" y="-131"/>
			<point x="122" y="-131" type="curve" smooth="yes"/>
			<point x="243" y="-131" type="line" smooth="yes"/>
			<point x="275" y="-131"/>
			<point x="298" y="-112"/>
			<point x="298" y="-66" type="curve" smooth="yes"/>
			<point x="298" y="-41"/>
			<point x="289" y="-19"/>
			<point x="282" y="-5" type="curve"/>
			<point x="204" y="-5" type="line"/>
			<point x="204" y="537" type="line"/>
			<point x="243" y="537" type="line" smooth="yes"/>
			<point x="275" y="537"/>
			<point x="298" y="556"/>
			<point x="298" y="602" type="curve" smooth="yes"/>
			<point x="298" y="627"/>
			<point x="289" y="649"/>
			<point x="282" y="663" type="curve"/>
			<point x="122" y="663" type="line" smooth="yes"/>
			<point x="76" y="663"/>
			<point x="46" y="633"/>
			<point x="46" y="587" type="curve" smooth="yes"/>
		</contour>
	</outline>
</glyph>
<glyph name="backslash" format="1">
	<unicode hex="005C"/>
	<advance width="360"/>
	<outline>
		<contour>
			<point x="162" y="654" type="line" smooth="yes"/>
			<point x="151" y="695"/>
			<point x="123" y="708"/>
			<point x="87" y="708" type="curve" smooth="yes"/>
			<point x="56" y="708"/>
			<point x="19" y="691"/>
			<point x="0" y="671" type="curve"/>
			<point x="198" y="-55" type="line" smooth="yes"/>
			<point x="209" y="-96"/>
			<point x="237" y="-109"/>
			<point x="273" y="-109" type="curve" smooth="yes"/>
			<point x="303" y="-109"/>
			<point x="341" y="-92"/>
			<point x="360" y="-72" type="curve"/>
		</contour>
	</outline>
</glyph>
<glyph name="bracketright" format="1">
	<unicode hex="005D"/>
	<advance width="317"/>
	<outline>
		<contour>
			<point x="181" y="-131" type="line"/>
			<point x="228" y="-131"/>
			<point x="257" y="-102"/>
			<point x="257" y="-55" type="curve" smooth="yes"/>
			<point x="257" y="587" type="line" smooth="yes"/>
			<point x="257" y="634"/>
			<point x="228" y="663"/>
			<point x="181" y="663" type="curve" smooth="yes"/>
			<point x="60" y="663" type="line" smooth="yes"/>
			<point x="28" y="663"/>
			<point x="5" y="644"/>
			<point x="5" y="598" type="curve" smooth="yes"/>
			<point x="5" y="573"/>
			<point x="14" y="551"/>
			<point x="21" y="537" type="curve"/>
			<point x="99" y="537" type="line"/>
			<point x="99" y="-5" type="line"/>
			<point x="60" y="-5" type="line" smooth="yes"/>
			<point x="28" y="-5"/>
			<point x="5" y="-24"/>
			<point x="5" y="-70" type="curve" smooth="yes"/>
			<point x="5" y="-95"/>
			<point x="14" y="-117"/>
			<point x="21" y="-131" type="curve"/>
		</contour>
	</outline>
</glyph>
<glyph name="asciicircum" format="1">
	<unicode hex="005E"/>
	<advance width="488"/>
	<outline>
		<contour>
			<point x="153" y="662" type="curve"/>
			<point x="108" y="594"/>
			<point x="35" y="438"/>
			<point x="35" y="389" type="curve" smooth="yes"/>
			<point x="35" y="346"/>
			<point x="66" y="330"/>
			<point x="106" y="330" type="curve" smooth="yes"/>
			<point x="129" y="330"/>
			<point x="157" y="335"/>
			<point x="177" y="347" type="curve"/>
			<point x="191" y="412"/>
			<point x="213" y="487"/>
			<point x="236" y="548" type="curve"/>
			<point x="240" y="548" type="line"/>
			<point x="296" y="391" type="line" smooth="yes"/>
			<point x="313" y="344"/>
			<point x="334" y="330"/>
			<point x="375" y="330" type="curve" smooth="yes"/>
			<point x="407" y="330"/>
			<point x="437" y="347"/>
			<point x="453" y="363" type="curve"/>
			<point x="432" y="448"/>
			<point x="367" y="605"/>
			<point x="336" y="648" type="curve" smooth="yes"/>
			<point x="322" y="672"/>
			<point x="288" y="686"/>
			<point x="243" y="686" type="curve" smooth="yes"/>
			<point x="203" y="686"/>
			<point x="169" y="675"/>
		</contour>
	</outline>
</glyph>
<glyph name="underscore" format="1">
	<unicode hex="005F"/>
	<advance width="569"/>
	<outline>
		<contour>
			<point x="478" y="-188" type="line" smooth="yes"/>
			<point x="514" y="-188"/>
			<point x="539" y="-168"/>
			<point x="539" y="-119" type="curve" smooth="yes"/>
			<point x="539" y="-93"/>
			<point x="527" y="-67"/>
			<point x="520" y="-54" type="curve"/>
			<point x="90" y="-54" type="line" smooth="yes"/>
			<point x="55" y="-54"/>
			<point x="30" y="-74"/>
			<point x="30" y="-123" type="curve" smooth="yes"/>
			<point x="30" y="-149"/>
			<point x="40" y="-175"/>
			<point x="48" y="-188" type="curve"/>
		</contour>
	</outline>
</glyph>
<glyph name="grave" format="1">
	<unicode hex="0060"/>
	<advance width="302"/>
	<outline>
		<contour>
			<point x="150" y="554" type="line" smooth="yes"/>
			<point x="171" y="540"/>
			<point x="193" y="530"/>
			<point x="214" y="530" type="curve" smooth="yes"/>
			<point x="247" y="530"/>
			<point x="277" y="564"/>
			<point x="280" y="614" type="curve"/>
			<point x="167" y="709" type="line" smooth="yes"/>
			<point x="139" y="733"/>
			<point x="120" y="747"/>
			<point x="87" y="747" type="curve" smooth="yes"/>
			<point x="43" y="747"/>
			<point x="16" y="714"/>
			<point x="16" y="663" type="curve" smooth="yes"/>
			<point x="16" y="658"/>
			<point x="17" y="648"/>
			<point x="18" y="643" type="curve"/>
		</contour>
	</outline>
</glyph>
<glyph name="b" format="1">
	<unicode hex="0062"/>
	<advance width="590"/>
	<outline>
		<contour>
			<point x="54" y="118" type="line"/>
			<point x="54" y="85"/>
			<point x="70" y="58"/>
			<point x="98" y="38" type="curve" smooth="yes"/>
			<point x="140" y="8"/>
			<point x="200" y="-16"/>
			<point x="288" y="-16" type="curve"/>
			<point x="452" y="-16"/>
			<point x="559" y="71"/>
			<point x="559" y="243" type="curve" smooth="yes"/>
			<point x="559" y="410"/>
			<point x="449" y="501"/>
			<point x="321" y="501" type="curve" smooth="yes"/>
			<point x="285" y="501"/>
			<point x="257" y="496"/>
			<point x="224" y="483" type="curve"/>
			<point x="224" y="581" type="line" smooth="yes"/>
			<point x="224" y="648"/>
			<point x="190" y="661"/>
			<point x="131" y="661" type="curve" smooth="yes"/>
			<point x="101" y="661"/>
			<point x="67" y="655"/>
			<point x="54" y="651" type="curve"/>
		</contour>
		<contour>
			<point x="288" y="118" type="curve" smooth="yes"/>
			<point x="258" y="118"/>
			<point x="238" y="125"/>
			<point x="223" y="134" type="curve"/>
			<point x="223" y="352" type="line"/>
			<point x="246" y="362"/>
			<point x="262" y="368"/>
			<point x="289" y="368" type="curve" smooth="yes"/>
			<point x="347" y="368"/>
			<point x="385" y="327"/>
			<point x="385" y="243" type="curve" smooth="yes"/>
			<point x="385" y="161"/>
			<point x="349" y="118"/>
		</contour>
	</outline>
</glyph>
<glyph name="c" format="1">
	<unicode hex="0063"/>
	<advance width="489"/>
	<outline>
		<contour>
			<point x="326" y="367" type="curve" smooth="yes"/>
			<point x="363" y="367"/>
			<point x="396" y="355"/>
			<point x="419" y="344" type="curve"/>
			<point x="435" y="360"/>
			<point x="449" y="383"/>
			<point x="449" y="408" type="curve" smooth="yes"/>
			<point x="449" y="462"/>
			<point x="394" y="501"/>
			<point x="299" y="501" type="curve" smooth="yes"/>
			<point x="155" y="501"/>
			<point x="31" y="417"/>
			<point x="31" y="240" type="curve" smooth="yes"/>
			<point x="31" y="88"/>
			<point x="142" y="-15"/>
			<point x="309" y="-15" type="curve" smooth="yes"/>
			<point x="401" y="-15"/>
			<point x="456" y="17"/>
			<point x="456" y="71" type="curve" smooth="yes"/>
			<point x="456" y="101"/>
			<point x="442" y="123"/>
			<point x="416" y="141" type="curve"/>
			<point x="394" y="130"/>
			<point x="365" y="119"/>
			<point x="325" y="119" type="curve" smooth="yes"/>
			<point x="257" y="119"/>
			<point x="203" y="161"/>
			<point x="203" y="243" type="curve" smooth="yes"/>
			<point x="203" y="325"/>
			<point x="259" y="367"/>
		</contour>
	</outline>
</glyph>
<glyph name="d" format="1">
	<unicode hex="0064"/>
	<advance width="586"/>
	<outline>
		<contour>
			<point x="31" y="243" type="curve" smooth="yes"/>
			<point x="31" y="84"/>
			<point x="133" y="-16"/>
			<point x="307" y="-16" type="curve" smooth="yes"/>
			<point x="386" y="-16"/>
			<point x="449" y="7"/>
			<point x="488" y="32" type="curve" smooth="yes"/>
			<point x="518" y="51"/>
			<point x="532" y="74"/>
			<point x="532" y="107" type="curve" smooth="yes"/>
			<point x="532" y="581" type="line" smooth="yes"/>
			<point x="532" y="648"/>
			<point x="498" y="661"/>
			<point x="439" y="661" type="curve" smooth="yes"/>
			<point x="409" y="661"/>
			<point x="375" y="655"/>
			<point x="362" y="651" type="curve"/>
			<point x="362" y="489" type="line"/>
			<point x="346" y="495"/>
			<point x="319" y="501"/>
			<point x="292" y="501" type="curve" smooth="yes"/>
			<point x="146" y="501"/>
			<point x="31" y="418"/>
		</contour>
		<contour>
			<point x="315" y="368" type="curve" smooth="yes"/>
			<point x="332" y="368"/>
			<point x="350" y="364"/>
			<point x="363" y="356" type="curve"/>
			<point x="363" y="136" type="line"/>
			<point x="352" y="127"/>
			<point x="332" y="118"/>
			<point x="308" y="118" type="curve" smooth="yes"/>
			<point x="241" y="118"/>
			<point x="203" y="161"/>
			<point x="203" y="243" type="curve" smooth="yes"/>
			<point x="203" y="327"/>
			<point x="244" y="368"/>
		</contour>
	</outline>
</glyph>
<glyph name="f" format="1">
	<unicode hex="0066"/>
	<advance width="430"/>
	<outline>
		<contour>
			<point x="54" y="72" type="line" smooth="yes"/>
			<point x="54" y="5"/>
			<point x="89" y="-8"/>
			<point x="148" y="-8" type="curve" smooth="yes"/>
			<point x="178" y="-8"/>
			<point x="211" y="-3"/>
			<point x="224" y="1" type="curve"/>
			<point x="224" y="318" type="line"/>
			<point x="339" y="318" type="line" smooth="yes"/>
			<point x="373" y="318"/>
			<point x="396" y="337"/>
			<point x="396" y="384" type="curve" smooth="yes"/>
			<point x="396" y="410"/>
			<point x="387" y="434"/>
			<point x="379" y="448" type="curve"/>
			<point x="215" y="448" type="line"/>
			<point x="215" y="480" type="line" smooth="yes"/>
			<point x="215" y="528"/>
			<point x="249" y="545"/>
			<point x="306" y="545" type="curve" smooth="yes"/>
			<point x="342" y="545"/>
			<point x="368" y="540"/>
			<point x="393" y="533" type="curve"/>
			<point x="406" y="544"/>
			<point x="420" y="566"/>
			<point x="420" y="593" type="curve" smooth="yes"/>
			<point x="420" y="655"/>
			<point x="374" y="679"/>
			<point x="276" y="679" type="curve" smooth="yes"/>
			<point x="154" y="679"/>
			<point x="54" y="621"/>
			<point x="54" y="486" type="curve" smooth="yes"/>
		</contour>
	</outline>
</glyph>
<glyph name="h" format="1">
	<unicode hex="0068"/>
	<advance width="585"/>
	<outline>
		<contour>
			<point x="532" y="304" type="line" smooth="yes"/>
			<point x="532" y="434"/>
			<point x="453" y="501"/>
			<point x="322" y="501" type="curve" smooth="yes"/>
			<point x="279" y="501"/>
			<point x="241" y="489"/>
			<point x="224" y="483" type="curve"/>
			<point x="224" y="581" type="line" smooth="yes"/>
			<point x="224" y="648"/>
			<point x="189" y="661"/>
			<point x="130" y="661" type="curve" smooth="yes"/>
			<point x="101" y="661"/>
			<point x="68" y="655"/>
			<point x="54" y="652" type="curve"/>
			<point x="54" y="72" type="line" smooth="yes"/>
			<point x="54" y="5"/>
			<point x="89" y="-8"/>
			<point x="148" y="-8" type="curve" smooth="yes"/>
			<point x="178" y="-8"/>
			<point x="211" y="-3"/>
			<point x="224" y="1" type="curve"/>
			<point x="224" y="351" type="line"/>
			<point x="239" y="360"/>
			<point x="264" y="368"/>
			<point x="291" y="368" type="curve" smooth="yes"/>
			<point x="331" y="368"/>
			<point x="362" y="348"/>
			<point x="362" y="294" type="curve" smooth="yes"/>
			<point x="362" y="72" type="line" smooth="yes"/>
			<point x="362" y="5"/>
			<point x="397" y="-8"/>
			<point x="456" y="-8" type="curve" smooth="yes"/>
			<point x="486" y="-8"/>
			<point x="519" y="-3"/>
			<point x="532" y="1" type="curve"/>
		</contour>
	</outline>
</glyph>
<glyph name="i" format="1">
	<unicode hex="0069"/>
	<advance width="282"/>
	<outline>
		<contour>
			<point x="48" y="621" type="curve" smooth="yes"/>
			<point x="48" y="571"/>
			<point x="86" y="531"/>
			<point x="141" y="531" type="curve" smooth="yes"/>
			<point x="196" y="531"/>
			<point x="234" y="571"/>
			<point x="234" y="621" type="curve" smooth="yes"/>
			<point x="234" y="671"/>
			<point x="196" y="711"/>
			<point x="141" y="711" type="curve" smooth="yes"/>
			<point x="86" y="711"/>
			<point x="48" y="671"/>
		</contour>
		<contour>
			<point x="226" y="408" type="line"/>
			<point x="226" y="475"/>
			<point x="191" y="488"/>
			<point x="132" y="488" type="curve" smooth="yes"/>
			<point x="103" y="488"/>
			<point x="70" y="482"/>
			<point x="56" y="479" type="curve"/>
			<point x="56" y="72" type="line" smooth="yes"/>
			<point x="56" y="5"/>
			<point x="91" y="-8"/>
			<point x="150" y="-8" type="curve" smooth="yes"/>
			<point x="179" y="-8"/>
			<point x="212" y="-2"/>
			<point x="226" y="1" type="curve"/>
		</contour>
	</outline>
</glyph>
<glyph name="j" format="1">
	<unicode hex="006A"/>
	<advance width="287"/>
	<outline>
		<contour>
			<point x="53" y="621" type="curve" smooth="yes"/>
			<point x="53" y="571"/>
			<point x="91" y="531"/>
			<point x="146" y="531" type="curve" smooth="yes"/>
			<point x="201" y="531"/>
			<point x="239" y="571"/>
			<point x="239" y="621" type="curve" smooth="yes"/>
			<point x="239" y="671"/>
			<point x="201" y="711"/>
			<point x="146" y="711" type="curve" smooth="yes"/>
			<point x="91" y="711"/>
			<point x="53" y="671"/>
		</contour>
		<contour>
			<point x="-7" y="-84" type="line"/>
			<point x="-6" y="-137"/>
			<point x="30" y="-177"/>
			<point x="88" y="-177" type="curve" smooth="yes"/>
			<point x="177" y="-177"/>
			<point x="231" y="-102"/>
			<point x="231" y="9" type="curve" smooth="yes"/>
			<point x="231" y="408" type="line" smooth="yes"/>
			<point x="231" y="475"/>
			<point x="196" y="488"/>
			<point x="137" y="488" type="curve" smooth="yes"/>
			<point x="108" y="488"/>
			<point x="75" y="482"/>
			<point x="61" y="479" type="curve"/>
			<point x="61" y="25" type="line"/>
			<point x="61" y="-15"/>
			<point x="48" y="-49"/>
			<point x="19" y="-68" type="curve"/>
		</contour>
	</outline>
</glyph>
<glyph name="k" format="1">
	<unicode hex="006B"/>
	<advance width="555"/>
	<outline>
		<contour>
			<point x="367" y="248" type="line"/>
			<point x="425" y="298" type="line" smooth="yes"/>
			<point x="484" y="349"/>
			<point x="511" y="372"/>
			<point x="511" y="412" type="curve" smooth="yes"/>
			<point x="511" y="458"/>
			<point x="465" y="493"/>
			<point x="396" y="493" type="curve"/>
			<point x="224" y="317" type="line"/>
			<point x="224" y="581" type="line" smooth="yes"/>
			<point x="224" y="648"/>
			<point x="189" y="661"/>
			<point x="130" y="661" type="curve" smooth="yes"/>
			<point x="101" y="661"/>
			<point x="68" y="655"/>
			<point x="54" y="651" type="curve"/>
			<point x="54" y="72" type="line" smooth="yes"/>
			<point x="54" y="5"/>
			<point x="89" y="-8"/>
			<point x="148" y="-8" type="curve" smooth="yes"/>
			<point x="177" y="-8"/>
			<point x="210" y="-2"/>
			<point x="224" y="1" type="curve"/>
			<point x="224" y="183" type="line"/>
			<point x="323" y="59" type="line" smooth="yes"/>
			<point x="362" y="10"/>
			<point x="392" y="-9"/>
			<point x="434" y="-9" type="curve" smooth="yes"/>
			<point x="491" y="-9"/>
			<point x="521" y="26"/>
			<point x="527" y="88" type="curve"/>
		</contour>
	</outline>
</glyph>
<glyph name="l" format="1">
	<unicode hex="006C"/>
	<advance width="280"/>
	<outline>
		<contour>
			<point x="225" y="581" type="line" smooth="yes"/>
			<point x="225" y="648"/>
			<point x="190" y="661"/>
			<point x="131" y="661" type="curve" smooth="yes"/>
			<point x="102" y="661"/>
			<point x="69" y="655"/>
			<point x="55" y="652" type="curve"/>
			<point x="55" y="72" type="line" smooth="yes"/>
			<point x="55" y="5"/>
			<point x="90" y="-8"/>
			<point x="149" y="-8" type="curve" smooth="yes"/>
			<point x="178" y="-8"/>
			<point x="211" y="-2"/>
			<point x="225" y="1" type="curve"/>
		</contour>
	</outline>
</glyph>
<glyph name="n" format="1">
	<unicode hex="006E"/>
	<advance width="583"/>
	<outline>
		<contour>
			<point x="360" y="72" type="line" smooth="yes"/>
			<point x="360" y="5"/>
			<point x="395" y="-8"/>
			<point x="454" y="-8" type="curve" smooth="yes"/>
			<point x="484" y="-8"/>
			<point x="517" y="-3"/>
			<point x="530" y="1" type="curve"/>
			<point x="530" y="314" type="line" smooth="yes"/>
			<point x="530" y="431"/>
			<point x="445" y="501"/>
			<point x="295" y="501" type="curve" smooth="yes"/>
			<point x="212" y="501"/>
			<point x="140" y="479"/>
			<point x="95" y="447" type="curve" smooth="yes"/>
			<point x="68" y="428"/>
			<point x="52" y="408"/>
			<point x="52" y="372" type="curve" smooth="yes"/>
			<point x="52" y="72" type="line" smooth="yes"/>
			<point x="52" y="5"/>
			<point x="87" y="-8"/>
			<point x="146" y="-8" type="curve" smooth="yes"/>
			<point x="176" y="-8"/>
			<point x="209" y="-3"/>
			<point x="222" y="1" type="curve"/>
			<point x="222" y="348" type="line"/>
			<point x="240" y="361"/>
			<point x="269" y="368"/>
			<point x="295" y="368" type="curve" smooth="yes"/>
			<point x="335" y="368"/>
			<point x="360" y="349"/>
			<point x="360" y="308" type="curve" smooth="yes"/>
		</contour>
	</outline>
</glyph>
<glyph name="o" format="1">
	<unicode hex="006F"/>
	<advance width="586"/>
	<outline>
		<contour>
			<point x="555" y="243" type="curve"/>
			<point x="555" y="399"/>
			<point x="450" y="501"/>
			<point x="293" y="501" type="curve" smooth="yes"/>
			<point x="136" y="501"/>
			<point x="31" y="401"/>
			<point x="31" y="243" type="curve"/>
			<point x="31" y="82"/>
			<point x="136" y="-16"/>
			<point x="293" y="-16" type="curve" smooth="yes"/>
			<point x="450" y="-16"/>
			<point x="555" y="77"/>
		</contour>
		<contour>
			<point x="205" y="243" type="curve"/>
			<point x="205" y="323"/>
			<point x="238" y="368"/>
			<point x="293" y="368" type="curve"/>
			<point x="348" y="368"/>
			<point x="381" y="322"/>
			<point x="381" y="243" type="curve" smooth="yes"/>
			<point x="381" y="163"/>
			<point x="349" y="117"/>
			<point x="294" y="117" type="curve" smooth="yes"/>
			<point x="239" y="117"/>
			<point x="205" y="162"/>
		</contour>
	</outline>
</glyph>
<glyph name="p" format="1">
	<unicode hex="0070"/>
	<advance width="585"/>
	<outline>
		<contour>
			<point x="275" y="501" type="curve" smooth="yes"/>
			<point x="199" y="501"/>
			<point x="136" y="483"/>
			<point x="95" y="457" type="curve" smooth="yes"/>
			<point x="68" y="439"/>
			<point x="52" y="418"/>
			<point x="52" y="382" type="curve" smooth="yes"/>
			<point x="52" y="-98" type="line" smooth="yes"/>
			<point x="52" y="-165"/>
			<point x="86" y="-178"/>
			<point x="145" y="-178" type="curve" smooth="yes"/>
			<point x="175" y="-178"/>
			<point x="209" y="-172"/>
			<point x="222" y="-168" type="curve"/>
			<point x="222" y="-2" type="line"/>
			<point x="245" y="-10"/>
			<point x="273" y="-15"/>
			<point x="302" y="-15" type="curve" smooth="yes"/>
			<point x="455" y="-15"/>
			<point x="554" y="72"/>
			<point x="554" y="242" type="curve" smooth="yes"/>
			<point x="554" y="420"/>
			<point x="436" y="501"/>
		</contour>
		<contour>
			<point x="277" y="119" type="curve" smooth="yes"/>
			<point x="256" y="119"/>
			<point x="237" y="125"/>
			<point x="221" y="133" type="curve"/>
			<point x="221" y="353" type="line"/>
			<point x="236" y="361"/>
			<point x="256" y="368"/>
			<point x="281" y="368" type="curve" smooth="yes"/>
			<point x="345" y="368"/>
			<point x="380" y="327"/>
			<point x="380" y="242" type="curve" smooth="yes"/>
			<point x="380" y="159"/>
			<point x="344" y="119"/>
		</contour>
	</outline>
</glyph>
<glyph name="q" format="1">
	<unicode hex="0071"/>
	<advance width="587"/>
	<outline>
		<contour>
			<point x="282" y="-16" type="curve" smooth="yes"/>
			<point x="311" y="-16"/>
			<point x="341" y="-12"/>
			<point x="363" y="-3" type="curve"/>
			<point x="363" y="-98" type="line" smooth="yes"/>
			<point x="363" y="-165"/>
			<point x="397" y="-178"/>
			<point x="456" y="-178" type="curve" smooth="yes"/>
			<point x="486" y="-178"/>
			<point x="520" y="-172"/>
			<point x="533" y="-168" type="curve"/>
			<point x="533" y="376" type="line" smooth="yes"/>
			<point x="533" y="412"/>
			<point x="517" y="434"/>
			<point x="490" y="453" type="curve" smooth="yes"/>
			<point x="456" y="477"/>
			<point x="384" y="501"/>
			<point x="310" y="501" type="curve" smooth="yes"/>
			<point x="142" y="501"/>
			<point x="31" y="408"/>
			<point x="31" y="240" type="curve" smooth="yes"/>
			<point x="31" y="67"/>
			<point x="140" y="-16"/>
		</contour>
		<contour>
			<point x="364" y="132" type="line"/>
			<point x="351" y="123"/>
			<point x="333" y="118"/>
			<point x="310" y="118" type="curve" smooth="yes"/>
			<point x="242" y="118"/>
			<point x="203" y="155"/>
			<point x="203" y="242" type="curve" smooth="yes"/>
			<point x="203" y="326"/>
			<point x="244" y="368"/>
			<point x="315" y="368" type="curve" smooth="yes"/>
			<point x="336" y="368"/>
			<point x="352" y="363"/>
			<point x="364" y="358" type="curve"/>
		</contour>
	</outline>
</glyph>
<glyph name="r" format="1">
	<unicode hex="0072"/>
	<advance width="411"/>
	<outline>
		<contour>
			<point x="222" y="342" type="line"/>
			<point x="257" y="357"/>
			<point x="323" y="369"/>
			<point x="379" y="369" type="curve"/>
			<point x="387" y="383"/>
			<point x="393" y="402"/>
			<point x="393" y="421" type="curve" smooth="yes"/>
			<point x="393" y="477"/>
			<point x="352" y="500"/>
			<point x="289" y="500" type="curve" smooth="yes"/>
			<point x="212" y="500"/>
			<point x="129" y="475"/>
			<point x="85" y="441" type="curve" smooth="yes"/>
			<point x="64" y="424"/>
			<point x="52" y="403"/>
			<point x="52" y="372" type="curve" smooth="yes"/>
			<point x="52" y="72" type="line" smooth="yes"/>
			<point x="52" y="5"/>
			<point x="87" y="-8"/>
			<point x="146" y="-8" type="curve" smooth="yes"/>
			<point x="176" y="-8"/>
			<point x="209" y="-3"/>
			<point x="222" y="1" type="curve"/>
		</contour>
	</outline>
</glyph>
<glyph name="v" format="1">
	<unicode hex="0076"/>
	<advance width="545"/>
	<outline>
		<contour>
			<point x="377" y="13" type="curve"/>
			<point x="426" y="106"/>
			<point x="521" y="366"/>
			<point x="521" y="429" type="curve" smooth="yes"/>
			<point x="521" y="478"/>
			<point x="484" y="496"/>
			<point x="438" y="496" type="curve" smooth="yes"/>
			<point x="411" y="496"/>
			<point x="381" y="489"/>
			<point x="358" y="477" type="curve"/>
			<point x="335" y="362"/>
			<point x="305" y="234"/>
			<point x="280" y="136" type="curve"/>
			<point x="275" y="136" type="line"/>
			<point x="269" y="163"/>
			<point x="254" y="215"/>
			<point x="239" y="274" type="curve" smooth="yes"/>
			<point x="200" y="427" type="line" smooth="yes"/>
			<point x="186" y="480"/>
			<point x="156" y="496"/>
			<point x="109" y="496" type="curve" smooth="yes"/>
			<point x="72" y="496"/>
			<point x="38" y="479"/>
			<point x="20" y="461" type="curve"/>
			<point x="48" y="340"/>
			<point x="132" y="99"/>
			<point x="168" y="30" type="curve" smooth="yes"/>
			<point x="183" y="1"/>
			<point x="223" y="-12"/>
			<point x="275" y="-12" type="curve" smooth="yes"/>
			<point x="320" y="-12"/>
			<point x="359" y="-1"/>
		</contour>
	</outline>
</glyph>
<glyph name="w" format="1">
	<unicode hex="0077"/>
	<advance width="791"/>
	<outline>
		<contour>
			<point x="329" y="15" type="curve"/>
			<point x="342" y="63"/>
			<point x="381" y="181"/>
			<point x="400" y="273" type="curve"/>
			<point x="417" y="184"/>
			<point x="451" y="78"/>
			<point x="468" y="30" type="curve" smooth="yes"/>
			<point x="478" y="2"/>
			<point x="510" y="-12"/>
			<point x="567" y="-12" type="curve" smooth="yes"/>
			<point x="611" y="-12"/>
			<point x="654" y="-1"/>
			<point x="672" y="15" type="curve"/>
			<point x="700" y="87"/>
			<point x="766" y="365"/>
			<point x="766" y="429" type="curve" smooth="yes"/>
			<point x="766" y="478"/>
			<point x="731" y="496"/>
			<point x="685" y="496" type="curve" smooth="yes"/>
			<point x="659" y="496"/>
			<point x="631" y="489"/>
			<point x="607" y="475" type="curve"/>
			<point x="595" y="361"/>
			<point x="581" y="248"/>
			<point x="566" y="146" type="curve"/>
			<point x="561" y="146" type="line"/>
			<point x="552" y="188"/>
			<point x="524" y="298"/>
			<point x="492" y="415" type="curve" smooth="yes"/>
			<point x="483" y="445"/>
			<point x="447" y="460"/>
			<point x="400" y="460" type="curve" smooth="yes"/>
			<point x="362" y="460"/>
			<point x="338" y="451"/>
			<point x="312" y="437" type="curve"/>
			<point x="283" y="316"/>
			<point x="250" y="189"/>
			<point x="241" y="146" type="curve"/>
			<point x="237" y="146" type="line"/>
			<point x="232" y="173"/>
			<point x="224" y="224"/>
			<point x="197" y="427" type="curve" smooth="yes"/>
			<point x="190" y="477"/>
			<point x="159" y="496"/>
			<point x="112" y="496" type="curve" smooth="yes"/>
			<point x="75" y="496"/>
			<point x="41" y="479"/>
			<point x="23" y="461" type="curve"/>
			<point x="43" y="331"/>
			<point x="93" y="97"/>
			<point x="123" y="32" type="curve" smooth="yes"/>
			<point x="136" y="4"/>
			<point x="180" y="-12"/>
			<point x="234" y="-12" type="curve" smooth="yes"/>
			<point x="278" y="-12"/>
			<point x="311" y="-1"/>
		</contour>
	</outline>
</glyph>
<glyph name="x" format="1">
	<unicode hex="0078"/>
	<advance width="523"/>
	<outline>
		<contour>
			<point x="159" y="250" type="line"/>
			<point x="79" y="157" type="line"/>
			<point x="42" y="114"/>
			<point x="28" y="96"/>
			<point x="28" y="64" type="curve" smooth="yes"/>
			<point x="28" y="23"/>
			<point x="65" y="-9"/>
			<point x="132" y="-9" type="curve" smooth="yes"/>
			<point x="137" y="-9"/>
			<point x="147" y="-8"/>
			<point x="153" y="-8" type="curve"/>
			<point x="255" y="139" type="line"/>
			<point x="309" y="62" type="line" smooth="yes"/>
			<point x="337" y="22"/>
			<point x="363" y="-10"/>
			<point x="413" y="-11" type="curve" smooth="yes"/>
			<point x="459" y="-11"/>
			<point x="496" y="20"/>
			<point x="503" y="71" type="curve"/>
			<point x="372" y="244" type="line"/>
			<point x="438" y="318" type="line" smooth="yes"/>
			<point x="479" y="370"/>
			<point x="496" y="386"/>
			<point x="496" y="421" type="curve" smooth="yes"/>
			<point x="496" y="465"/>
			<point x="450" y="493"/>
			<point x="377" y="493" type="curve"/>
			<point x="270" y="348" type="line"/>
			<point x="206" y="432" type="line" smooth="yes"/>
			<point x="177" y="471"/>
			<point x="159" y="493"/>
			<point x="115" y="493" type="curve" smooth="yes"/>
			<point x="69" y="493"/>
			<point x="35" y="458"/>
			<point x="25" y="407" type="curve"/>
		</contour>
	</outline>
</glyph>
<glyph name="y" format="1">
	<unicode hex="0079"/>
	<advance width="551"/>
	<outline>
		<contour>
			<point x="128" y="124" type="curve" smooth="yes"/>
			<point x="158" y="56"/>
			<point x="184" y="38"/>
			<point x="207" y="31" type="curve"/>
			<point x="173" y="-12"/>
			<point x="127" y="-54"/>
			<point x="85" y="-87" type="curve"/>
			<point x="91" y="-140"/>
			<point x="129" y="-177"/>
			<point x="184" y="-177" type="curve" smooth="yes"/>
			<point x="249" y="-177"/>
			<point x="297" y="-148"/>
			<point x="372" y="-18" type="curve" smooth="yes"/>
			<point x="439" y="97"/>
			<point x="527" y="322"/>
			<point x="527" y="429" type="curve" smooth="yes"/>
			<point x="527" y="478"/>
			<point x="492" y="496"/>
			<point x="446" y="496" type="curve" smooth="yes"/>
			<point x="419" y="496"/>
			<point x="390" y="489"/>
			<point x="367" y="477" type="curve"/>
			<point x="349" y="369"/>
			<point x="315" y="244"/>
			<point x="284" y="152" type="curve"/>
			<point x="280" y="152" type="line"/>
			<point x="201" y="427" type="line" smooth="yes"/>
			<point x="186" y="480"/>
			<point x="156" y="496"/>
			<point x="109" y="496" type="curve" smooth="yes"/>
			<point x="72" y="496"/>
			<point x="38" y="479"/>
			<point x="20" y="461" type="curve"/>
			<point x="63" y="283"/>
			<point x="98" y="192"/>
		</contour>
	</outline>
</glyph>
<glyph name="z" format="1">
	<unicode hex="007A"/>
	<advance width="481"/>
	<outline>
		<contour>
			<point x="400" y="0" type="line" smooth="yes"/>
			<point x="434" y="0"/>
			<point x="457" y="19"/>
			<point x="457" y="66" type="curve" smooth="yes"/>
			<point x="457" y="92"/>
			<point x="448" y="117"/>
			<point x="440" y="131" type="curve"/>
			<point x="244" y="131" type="line"/>
			<point x="412" y="333" type="line" smooth="yes"/>
			<point x="431" y="356"/>
			<point x="445" y="382"/>
			<point x="445" y="409" type="curve" smooth="yes"/>
			<point x="445" y="441"/>
			<point x="431" y="466"/>
			<point x="410" y="485" type="curve"/>
			<point x="95" y="485" type="line" smooth="yes"/>
			<point x="61" y="485"/>
			<point x="38" y="466"/>
			<point x="38" y="419" type="curve" smooth="yes"/>
			<point x="38" y="393"/>
			<point x="47" y="368"/>
			<point x="55" y="354" type="curve"/>
			<point x="239" y="354" type="line"/>
			<point x="67" y="152" type="line" smooth="yes"/>
			<point x="48" y="129"/>
			<point x="34" y="103"/>
			<point x="34" y="76" type="curve" smooth="yes"/>
			<point x="34" y="44"/>
			<point x="48" y="19"/>
			<point x="69" y="0" type="curve"/>
		</contour>
	</outline>
</glyph>
<glyph name="braceleft" format="1">
	<unicode hex="007B"/>
	<advance width="327"/>
	<outline>
		<contour>
			<point x="199" y="266" type="curve"/>
			<point x="235" y="283"/>
			<point x="253" y="320"/>
			<point x="253" y="376" type="curve" smooth="yes"/>
			<point x="253" y="488" type="line" smooth="yes"/>
			<point x="253" y="533"/>
			<point x="269" y="549"/>
			<point x="298" y="557" type="curve"/>
			<point x="300" y="567"/>
			<point x="300" y="576"/>
			<point x="300" y="584" type="curve" smooth="yes"/>
			<point x="300" y="646"/>
			<point x="267" y="668"/>
			<point x="221" y="668" type="curve" smooth="yes"/>
			<point x="148" y="668"/>
			<point x="96" y="621"/>
			<point x="96" y="527" type="curve" smooth="yes"/>
			<point x="96" y="422" type="line" smooth="yes"/>
			<point x="96" y="364"/>
			<point x="76" y="335"/>
			<point x="31" y="323" type="curve"/>
			<point x="27" y="307"/>
			<point x="24" y="287"/>
			<point x="24" y="266" type="curve"/>
			<point x="24" y="245"/>
			<point x="27" y="225"/>
			<point x="31" y="209" type="curve"/>
			<point x="76" y="197"/>
			<point x="96" y="168"/>
			<point x="96" y="110" type="curve" smooth="yes"/>
			<point x="96" y="5" type="line" smooth="yes"/>
			<point x="96" y="-89"/>
			<point x="148" y="-136"/>
			<point x="221" y="-136" type="curve" smooth="yes"/>
			<point x="267" y="-136"/>
			<point x="300" y="-114"/>
			<point x="300" y="-52" type="curve" smooth="yes"/>
			<point x="300" y="-44"/>
			<point x="300" y="-35"/>
			<point x="298" y="-25" type="curve"/>
			<point x="269" y="-17"/>
			<point x="253" y="-1"/>
			<point x="253" y="44" type="curve" smooth="yes"/>
			<point x="253" y="156" type="line" smooth="yes"/>
			<point x="253" y="212"/>
			<point x="235" y="249"/>
		</contour>
	</outline>
</glyph>
<glyph name="bar" format="1">
	<unicode hex="007C"/>
	<advance width="281"/>
	<outline>
		<contour>
			<point x="216" y="612" type="line" smooth="yes"/>
			<point x="216" y="671"/>
			<point x="185" y="683"/>
			<point x="132" y="683" type="curve" smooth="yes"/>
			<point x="107" y="683"/>
			<point x="78" y="679"/>
			<point x="65" y="676" type="curve"/>
			<point x="65" y="-71" type="line" smooth="yes"/>
			<point x="65" y="-130"/>
			<point x="96" y="-141"/>
			<point x="149" y="-141" type="curve" smooth="yes"/>
			<point x="174" y="-141"/>
			<point x="203" y="-137"/>
			<point x="216" y="-134" type="curve"/>
		</contour>
	</outline>
</glyph>
<glyph name="braceright" format="1">
	<unicode hex="007D"/>
	<advance width="327"/>
	<outline>
		<contour>
			<point x="125" y="266" type="curve"/>
			<point x="89" y="249"/>
			<point x="71" y="212"/>
			<point x="71" y="156" type="curve" smooth="yes"/>
			<point x="71" y="44" type="line" smooth="yes"/>
			<point x="71" y="-1"/>
			<point x="55" y="-17"/>
			<point x="26" y="-25" type="curve"/>
			<point x="24" y="-35"/>
			<point x="24" y="-44"/>
			<point x="24" y="-52" type="curve" smooth="yes"/>
			<point x="24" y="-114"/>
			<point x="57" y="-136"/>
			<point x="103" y="-136" type="curve" smooth="yes"/>
			<point x="176" y="-136"/>
			<point x="228" y="-89"/>
			<point x="228" y="5" type="curve" smooth="yes"/>
			<point x="228" y="110" type="line" smooth="yes"/>
			<point x="228" y="168"/>
			<point x="248" y="197"/>
			<point x="293" y="209" type="curve"/>
			<point x="297" y="225"/>
			<point x="300" y="245"/>
			<point x="300" y="266" type="curve" smooth="yes"/>
			<point x="300" y="287"/>
			<point x="297" y="307"/>
			<point x="293" y="323" type="curve"/>
			<point x="248" y="335"/>
			<point x="228" y="364"/>
			<point x="228" y="422" type="curve" smooth="yes"/>
			<point x="228" y="527" type="line" smooth="yes"/>
			<point x="228" y="621"/>
			<point x="176" y="668"/>
			<point x="103" y="668" type="curve" smooth="yes"/>
			<point x="57" y="668"/>
			<point x="24" y="646"/>
			<point x="24" y="584" type="curve" smooth="yes"/>
			<point x="24" y="576"/>
			<point x="24" y="567"/>
			<point x="26" y="557" type="curve"/>
			<point x="55" y="549"/>
			<point x="71" y="533"/>
			<point x="71" y="488" type="curve" smooth="yes"/>
			<point x="71" y="376" type="line" smooth="yes"/>
			<point x="71" y="320"/>
			<point x="89" y="283"/>
		</contour>
	</outline>
</glyph>
<glyph name="asciitilde" format="1">
	<unicode hex="007E"/>
	<advance width="503"/>
	<outline>
		<contour>
			<point x="325" y="313" type="curve" smooth="yes"/>
			<point x="264" y="313"/>
			<point x="206" y="347"/>
			<point x="138" y="347" type="curve" smooth="yes"/>
			<point x="83" y="347"/>
			<point x="18" y="316"/>
			<point x="18" y="245" type="curve" smooth="yes"/>
			<point x="18" y="189"/>
			<point x="65" y="151"/>
			<point x="119" y="151" type="curve"/>
			<point x="129" y="166"/>
			<point x="146" y="191"/>
			<point x="179" y="191" type="curve" smooth="yes"/>
			<point x="198" y="191"/>
			<point x="215" y="187"/>
			<point x="296" y="167" type="curve" smooth="yes"/>
			<point x="322" y="161"/>
			<point x="344" y="158"/>
			<point x="366" y="158" type="curve" smooth="yes"/>
			<point x="431" y="158"/>
			<point x="487" y="190"/>
			<point x="487" y="260" type="curve" smooth="yes"/>
			<point x="487" y="316"/>
			<point x="440" y="354"/>
			<point x="385" y="354" type="curve"/>
			<point x="373" y="334"/>
			<point x="357" y="313"/>
		</contour>
	</outline>
</glyph>
<glyph name="exclamdown" format="1">
	<unicode hex="00A1"/>
	<advance width="298"/>
	<outline>
		<contour>
			<point x="61" y="-139" type="curve" smooth="yes"/>
			<point x="61" y="-191"/>
			<point x="93" y="-216"/>
			<point x="147" y="-216" type="curve" smooth="yes"/>
			<point x="180" y="-216"/>
			<point x="216" y="-207"/>
			<point x="243" y="-192" type="curve"/>
			<point x="243" y="-91"/>
			<point x="234" y="119"/>
			<point x="222" y="181" type="curve" smooth="yes"/>
			<point x="215" y="215"/>
			<point x="187" y="225"/>
			<point x="149" y="225" type="curve" smooth="yes"/>
			<point x="131" y="225"/>
			<point x="97" y="219"/>
			<point x="86" y="210" type="curve"/>
			<point x="67" y="112"/>
			<point x="61" y="-78"/>
		</contour>
		<contour>
			<point x="245" y="365" type="curve" smooth="yes"/>
			<point x="245" y="419"/>
			<point x="208" y="459"/>
			<point x="149" y="459" type="curve" smooth="yes"/>
			<point x="90" y="459"/>
			<point x="53" y="419"/>
			<point x="53" y="365" type="curve" smooth="yes"/>
			<point x="53" y="311"/>
			<point x="90" y="271"/>
			<point x="149" y="271" type="curve" smooth="yes"/>
			<point x="208" y="271"/>
			<point x="245" y="311"/>
		</contour>
	</outline>
</glyph>
<glyph name="cent" format="1">
	<unicode hex="00A2"/>
	<advance width="492"/>
	<outline>
		<contour>
			<point x="324" y="367" type="curve" smooth="yes"/>
			<point x="361" y="367"/>
			<point x="394" y="355"/>
			<point x="417" y="344" type="curve"/>
			<point x="433" y="360"/>
			<point x="447" y="383"/>
			<point x="447" y="408" type="curve" smooth="yes"/>
			<point x="447" y="454"/>
			<point x="407" y="489"/>
			<point x="336" y="498" type="curve"/>
			<point x="336" y="511" type="line" smooth="yes"/>
			<point x="336" y="570"/>
			<point x="305" y="582"/>
			<point x="253" y="582" type="curve" smooth="yes"/>
			<point x="227" y="582"/>
			<point x="198" y="577"/>
			<point x="186" y="574" type="curve"/>
			<point x="186" y="482" type="line"/>
			<point x="94" y="448"/>
			<point x="29" y="369"/>
			<point x="29" y="240" type="curve" smooth="yes"/>
			<point x="29" y="128"/>
			<point x="88" y="43"/>
			<point x="186" y="6" type="curve"/>
			<point x="186" y="-23" type="line" smooth="yes"/>
			<point x="186" y="-82"/>
			<point x="217" y="-94"/>
			<point x="269" y="-94" type="curve" smooth="yes"/>
			<point x="295" y="-94"/>
			<point x="324" y="-89"/>
			<point x="336" y="-86" type="curve"/>
			<point x="336" y="-14" type="line"/>
			<point x="410" y="-8"/>
			<point x="454" y="23"/>
			<point x="454" y="71" type="curve" smooth="yes"/>
			<point x="454" y="101"/>
			<point x="440" y="123"/>
			<point x="414" y="141" type="curve"/>
			<point x="392" y="130"/>
			<point x="363" y="119"/>
			<point x="323" y="119" type="curve" smooth="yes"/>
			<point x="255" y="119"/>
			<point x="201" y="161"/>
			<point x="201" y="243" type="curve" smooth="yes"/>
			<point x="201" y="325"/>
			<point x="257" y="367"/>
		</contour>
	</outline>
</glyph>
<glyph name="sterling" format="1">
	<unicode hex="00A3"/>
	<advance width="504"/>
	<outline>
		<contour>
			<point x="55" y="371" type="line"/>
			<point x="48" y="357"/>
			<point x="38" y="333"/>
			<point x="38" y="308" type="curve" smooth="yes"/>
			<point x="38" y="258"/>
			<point x="61" y="240"/>
			<point x="95" y="240" type="curve" smooth="yes"/>
			<point x="116" y="240" type="line"/>
			<point x="116" y="229" type="line" smooth="yes"/>
			<point x="116" y="153"/>
			<point x="89" y="118"/>
			<point x="36" y="94" type="curve"/>
			<point x="35" y="88"/>
			<point x="35" y="85"/>
			<point x="35" y="79" type="curve" smooth="yes"/>
			<point x="35" y="29"/>
			<point x="65" y="0"/>
			<point x="100" y="0" type="curve" smooth="yes"/>
			<point x="431" y="0" type="line" smooth="yes"/>
			<point x="466" y="0"/>
			<point x="489" y="19"/>
			<point x="489" y="67" type="curve" smooth="yes"/>
			<point x="489" y="93"/>
			<point x="480" y="118"/>
			<point x="472" y="132" type="curve"/>
			<point x="251" y="132" type="line"/>
			<point x="271" y="159"/>
			<point x="281" y="192"/>
			<point x="281" y="227" type="curve" smooth="yes"/>
			<point x="281" y="240" type="line"/>
			<point x="361" y="240" type="line" smooth="yes"/>
			<point x="395" y="240"/>
			<point x="418" y="258"/>
			<point x="418" y="308" type="curve" smooth="yes"/>
			<point x="418" y="333"/>
			<point x="408" y="357"/>
			<point x="401" y="371" type="curve"/>
			<point x="270" y="371" type="line"/>
			<point x="268" y="382"/>
			<point x="268" y="392"/>
			<point x="268" y="403" type="curve" smooth="yes"/>
			<point x="268" y="464"/>
			<point x="303" y="487"/>
			<point x="360" y="487" type="curve" smooth="yes"/>
			<point x="396" y="487"/>
			<point x="419" y="479"/>
			<point x="442" y="467" type="curve"/>
			<point x="457" y="477"/>
			<point x="471" y="506"/>
			<point x="471" y="532" type="curve" smooth="yes"/>
			<point x="471" y="592"/>
			<point x="422" y="623"/>
			<point x="332" y="623" type="curve" smooth="yes"/>
			<point x="206" y="623"/>
			<point x="101" y="558"/>
			<point x="101" y="409" type="curve" smooth="yes"/>
			<point x="101" y="396"/>
			<point x="102" y="384"/>
			<point x="104" y="371" type="curve"/>
		</contour>
	</outline>
</glyph>
<glyph name="currency" format="1">
	<unicode hex="00A4"/>
	<advance width="565"/>
	<outline>
		<contour>
			<point x="493" y="292" type="curve" smooth="yes"/>
			<point x="493" y="337"/>
			<point x="480" y="376"/>
			<point x="457" y="407" type="curve"/>
			<point x="464" y="416" type="line" smooth="yes"/>
			<point x="481" y="440"/>
			<point x="494" y="459"/>
			<point x="494" y="478" type="curve" smooth="yes"/>
			<point x="494" y="506"/>
			<point x="465" y="524"/>
			<point x="424" y="532" type="curve"/>
			<point x="378" y="472" type="line"/>
			<point x="349" y="485"/>
			<point x="315" y="493"/>
			<point x="279" y="493" type="curve" smooth="yes"/>
			<point x="245" y="493"/>
			<point x="213" y="487"/>
			<point x="185" y="475" type="curve"/>
			<point x="179" y="483" type="line" smooth="yes"/>
			<point x="161" y="505"/>
			<point x="142" y="528"/>
			<point x="118" y="528" type="curve" smooth="yes"/>
			<point x="93" y="528"/>
			<point x="70" y="512"/>
			<point x="55" y="478" type="curve"/>
			<point x="106" y="416" type="line"/>
			<point x="80" y="383"/>
			<point x="65" y="341"/>
			<point x="65" y="292" type="curve" smooth="yes"/>
			<point x="65" y="242"/>
			<point x="80" y="200"/>
			<point x="106" y="167" type="curve"/>
			<point x="97" y="157" type="line" smooth="yes"/>
			<point x="78" y="134"/>
			<point x="67" y="115"/>
			<point x="67" y="95" type="curve" smooth="yes"/>
			<point x="67" y="67"/>
			<point x="96" y="49"/>
			<point x="137" y="41" type="curve"/>
			<point x="188" y="107" type="line"/>
			<point x="215" y="96"/>
			<point x="246" y="90"/>
			<point x="279" y="90" type="curve" smooth="yes"/>
			<point x="313" y="90"/>
			<point x="346" y="96"/>
			<point x="375" y="108" type="curve"/>
			<point x="386" y="95" type="line" smooth="yes"/>
			<point x="404" y="73"/>
			<point x="423" y="50"/>
			<point x="447" y="50" type="curve" smooth="yes"/>
			<point x="472" y="50"/>
			<point x="495" y="66"/>
			<point x="510" y="100" type="curve"/>
			<point x="453" y="167" type="line"/>
			<point x="478" y="200"/>
			<point x="493" y="241"/>
		</contour>
		<contour>
			<point x="207" y="292" type="curve" smooth="yes"/>
			<point x="207" y="349"/>
			<point x="234" y="382"/>
			<point x="279" y="382" type="curve" smooth="yes"/>
			<point x="324" y="382"/>
			<point x="352" y="349"/>
			<point x="352" y="292" type="curve" smooth="yes"/>
			<point x="352" y="235"/>
			<point x="325" y="201"/>
			<point x="280" y="201" type="curve" smooth="yes"/>
			<point x="235" y="201"/>
			<point x="207" y="234"/>
		</contour>
	</outline>
</glyph>
<glyph name="yen" format="1">
	<unicode hex="00A5"/>
	<advance width="597"/>
	<outline>
		<contour>
			<point x="505" y="254" type="line"/>
			<point x="532" y="254"/>
			<point x="551" y="268"/>
			<point x="551" y="307" type="curve" smooth="yes"/>
			<point x="551" y="329"/>
			<point x="543" y="347"/>
			<point x="537" y="359" type="curve"/>
			<point x="475" y="359" type="line"/>
			<point x="549" y="484"/>
			<point x="559" y="514"/>
			<point x="559" y="538" type="curve" smooth="yes"/>
			<point x="559" y="585"/>
			<point x="522" y="609"/>
			<point x="479" y="609" type="curve" smooth="yes"/>
			<point x="452" y="609"/>
			<point x="422" y="602"/>
			<point x="399" y="591" type="curve"/>
			<point x="362" y="500"/>
			<point x="348" y="455"/>
			<point x="312" y="376" type="curve"/>
			<point x="306" y="376" type="line"/>
			<point x="227" y="536" type="line" smooth="yes"/>
			<point x="199" y="593"/>
			<point x="171" y="609"/>
			<point x="120" y="609" type="curve" smooth="yes"/>
			<point x="79" y="609"/>
			<point x="49" y="586"/>
			<point x="33" y="562" type="curve"/>
			<point x="55" y="505"/>
			<point x="97" y="430"/>
			<point x="140" y="359" type="curve"/>
			<point x="106" y="359" type="line" smooth="yes"/>
			<point x="79" y="359"/>
			<point x="60" y="345"/>
			<point x="60" y="305" type="curve" smooth="yes"/>
			<point x="60" y="285"/>
			<point x="68" y="265"/>
			<point x="74" y="254" type="curve"/>
		</contour>
		<contour>
			<point x="219" y="102" type="line"/>
			<point x="219" y="76" type="line" smooth="yes"/>
			<point x="219" y="9"/>
			<point x="250" y="-5"/>
			<point x="311" y="-5" type="curve" smooth="yes"/>
			<point x="340" y="-5"/>
			<point x="376" y="0"/>
			<point x="390" y="4" type="curve"/>
			<point x="390" y="102" type="line"/>
			<point x="505" y="102" type="line" smooth="yes"/>
			<point x="532" y="102"/>
			<point x="551" y="116"/>
			<point x="551" y="155" type="curve" smooth="yes"/>
			<point x="551" y="177"/>
			<point x="543" y="195"/>
			<point x="537" y="207" type="curve"/>
			<point x="106" y="207" type="line" smooth="yes"/>
			<point x="79" y="207"/>
			<point x="60" y="193"/>
			<point x="60" y="153" type="curve" smooth="yes"/>
			<point x="60" y="133"/>
			<point x="68" y="113"/>
			<point x="74" y="102" type="curve"/>
		</contour>
	</outline>
</glyph>
<glyph name="brokenbar" format="1">
	<unicode hex="00A6"/>
	<advance width="293"/>
	<outline>
		<contour>
			<point x="216" y="612" type="line"/>
			<point x="216" y="671"/>
			<point x="185" y="683"/>
			<point x="132" y="683" type="curve" smooth="yes"/>
			<point x="107" y="683"/>
			<point x="78" y="679"/>
			<point x="65" y="676" type="curve"/>
			<point x="65" y="393" type="line" smooth="yes"/>
			<point x="65" y="334"/>
			<point x="96" y="323"/>
			<point x="149" y="323" type="curve" smooth="yes"/>
			<point x="174" y="323"/>
			<point x="203" y="327"/>
			<point x="216" y="330" type="curve"/>
		</contour>
		<contour>
			<point x="216" y="149" type="line"/>
			<point x="216" y="208"/>
			<point x="185" y="220"/>
			<point x="132" y="220" type="curve" smooth="yes"/>
			<point x="107" y="220"/>
			<point x="78" y="216"/>
			<point x="65" y="213" type="curve"/>
			<point x="65" y="-70" type="line" smooth="yes"/>
			<point x="65" y="-129"/>
			<point x="96" y="-140"/>
			<point x="149" y="-140" type="curve" smooth="yes"/>
			<point x="174" y="-140"/>
			<point x="203" y="-136"/>
			<point x="216" y="-133" type="curve"/>
		</contour>
	</outline>
</glyph>
<glyph name="section" format="1">
	<unicode hex="00A7"/>
	<advance width="546"/>
	<outline>
		<contour>
			<point x="496" y="111" type="curve" smooth="yes"/>
			<point x="496" y="147"/>
			<point x="481" y="184"/>
			<point x="458" y="206" type="curve"/>
			<point x="479" y="227"/>
			<point x="496" y="264"/>
			<point x="496" y="300" type="curve" smooth="yes"/>
			<point x="496" y="381"/>
			<point x="440" y="435"/>
			<point x="319" y="453" type="curve" smooth="yes"/>
			<point x="264" y="461" type="line" smooth="yes"/>
			<point x="226" y="467"/>
			<point x="216" y="472"/>
			<point x="216" y="487" type="curve" smooth="yes"/>
			<point x="216" y="508"/>
			<point x="241" y="518"/>
			<point x="285" y="518" type="curve" smooth="yes"/>
			<point x="327" y="518"/>
			<point x="396" y="501"/>
			<point x="418" y="487" type="curve"/>
			<point x="435" y="502"/>
			<point x="448" y="524"/>
			<point x="448" y="554" type="curve" smooth="yes"/>
			<point x="448" y="618"/>
			<point x="367" y="646"/>
			<point x="270" y="646" type="curve" smooth="yes"/>
			<point x="139" y="646"/>
			<point x="50" y="589"/>
			<point x="50" y="494" type="curve" smooth="yes"/>
			<point x="50" y="450"/>
			<point x="65" y="416"/>
			<point x="90" y="398" type="curve"/>
			<point x="65" y="374"/>
			<point x="50" y="341"/>
			<point x="50" y="305" type="curve" smooth="yes"/>
			<point x="50" y="222"/>
			<point x="100" y="171"/>
			<point x="217" y="154" type="curve" smooth="yes"/>
			<point x="276" y="145" type="line" smooth="yes"/>
			<point x="314" y="139"/>
			<point x="328" y="132"/>
			<point x="328" y="114" type="curve" smooth="yes"/>
			<point x="328" y="94"/>
			<point x="307" y="81"/>
			<point x="244" y="81" type="curve" smooth="yes"/>
			<point x="179" y="81"/>
			<point x="129" y="101"/>
			<point x="91" y="122" type="curve"/>
			<point x="73" y="108"/>
			<point x="57" y="86"/>
			<point x="57" y="54" type="curve" smooth="yes"/>
			<point x="57" y="-16"/>
			<point x="138" y="-47"/>
			<point x="251" y="-47" type="curve" smooth="yes"/>
			<point x="412" y="-47"/>
			<point x="496" y="14"/>
		</contour>
		<contour>
			<point x="208" y="310" type="curve" smooth="yes"/>
			<point x="208" y="324"/>
			<point x="212" y="336"/>
			<point x="220" y="344" type="curve"/>
			<point x="285" y="332" type="line" smooth="yes"/>
			<point x="323" y="325"/>
			<point x="338" y="307"/>
			<point x="338" y="289" type="curve" smooth="yes"/>
			<point x="338" y="275"/>
			<point x="332" y="263"/>
			<point x="326" y="255" type="curve"/>
			<point x="256" y="269" type="line" smooth="yes"/>
			<point x="219" y="276"/>
			<point x="208" y="295"/>
		</contour>
	</outline>
</glyph>
<glyph name="dieresis" format="1">
	<unicode hex="00A8"/>
	<advance width="374"/>
	<outline>
		<contour>
			<point x="-14" y="637" type="curve" smooth="yes"/>
			<point x="-14" y="590"/>
			<point x="24" y="551"/>
			<point x="73" y="551" type="curve" smooth="yes"/>
			<point x="128" y="551"/>
			<point x="163" y="590"/>
			<point x="163" y="637" type="curve" smooth="yes"/>
			<point x="163" y="683"/>
			<point x="128" y="723"/>
			<point x="73" y="723" type="curve" smooth="yes"/>
			<point x="24" y="723"/>
			<point x="-14" y="683"/>
		</contour>
		<contour>
			<point x="210" y="637" type="curve" smooth="yes"/>
			<point x="210" y="590"/>
			<point x="244" y="551"/>
			<point x="299" y="551" type="curve" smooth="yes"/>
			<point x="350" y="551"/>
			<point x="387" y="590"/>
			<point x="387" y="637" type="curve" smooth="yes"/>
			<point x="387" y="683"/>
			<point x="350" y="723"/>
			<point x="299" y="723" type="curve" smooth="yes"/>
			<point x="244" y="723"/>
			<point x="210" y="683"/>
		</contour>
	</outline>
</glyph>
<glyph name="copyright" format="1">
	<unicode hex="00A9"/>
	<advance width="713"/>
	<outline>
		<contour>
			<point x="35" y="308" type="curve" smooth="yes"/>
			<point x="35" y="133"/>
			<point x="163" y="-2"/>
			<point x="355" y="-2" type="curve" smooth="yes"/>
			<point x="546" y="-2"/>
			<point x="678" y="133"/>
			<point x="678" y="308" type="curve" smooth="yes"/>
			<point x="678" y="482"/>
			<point x="546" y="619"/>
			<point x="355" y="619" type="curve" smooth="yes"/>
			<point x="163" y="619"/>
			<point x="35" y="482"/>
		</contour>
		<contour>
			<point x="355" y="529" type="curve" smooth="yes"/>
			<point x="488" y="529"/>
			<point x="568" y="435"/>
			<point x="568" y="308" type="curve" smooth="yes"/>
			<point x="568" y="180"/>
			<point x="488" y="90"/>
			<point x="355" y="90" type="curve" smooth="yes"/>
			<point x="223" y="90"/>
			<point x="142" y="180"/>
			<point x="142" y="308" type="curve" smooth="yes"/>
			<point x="142" y="435"/>
			<point x="223" y="529"/>
		</contour>
		<contour>
			<point x="394" y="373" type="curve" smooth="yes"/>
			<point x="417" y="373"/>
			<point x="435" y="366"/>
			<point x="447" y="359" type="curve"/>
			<point x="459" y="371"/>
			<point x="467" y="388"/>
			<point x="467" y="408" type="curve" smooth="yes"/>
			<point x="467" y="441"/>
			<point x="430" y="466"/>
			<point x="375" y="466" type="curve" smooth="yes"/>
			<point x="301" y="466"/>
			<point x="215" y="416"/>
			<point x="215" y="313" type="curve" smooth="yes"/>
			<point x="215" y="212"/>
			<point x="283" y="155"/>
			<point x="371" y="155" type="curve" smooth="yes"/>
			<point x="431" y="155"/>
			<point x="472" y="182"/>
			<point x="472" y="212" type="curve" smooth="yes"/>
			<point x="472" y="233"/>
			<point x="463" y="250"/>
			<point x="449" y="262" type="curve"/>
			<point x="436" y="255"/>
			<point x="418" y="247"/>
			<point x="393" y="247" type="curve" smooth="yes"/>
			<point x="356" y="247"/>
			<point x="329" y="271"/>
			<point x="329" y="312" type="curve" smooth="yes"/>
			<point x="329" y="350"/>
			<point x="358" y="373"/>
		</contour>
	</outline>
</glyph>
<glyph name="ordfeminine" format="1">
	<unicode hex="00AA"/>
	<advance width="355"/>
	<outline>
		<contour>
			<point x="165" y="401" type="curve" smooth="yes"/>
			<point x="132" y="401"/>
			<point x="120" y="412"/>
			<point x="120" y="429" type="curve" smooth="yes"/>
			<point x="120" y="447"/>
			<point x="137" y="455"/>
			<point x="162" y="457" type="curve" smooth="yes"/>
			<point x="209" y="461" type="line"/>
			<point x="209" y="409" type="line"/>
			<point x="201" y="404"/>
			<point x="179" y="401"/>
		</contour>
		<contour>
			<point x="159" y="656" type="curve" smooth="yes"/>
			<point x="128" y="656"/>
			<point x="92" y="652"/>
			<point x="66" y="642" type="curve" smooth="yes"/>
			<point x="44" y="633"/>
			<point x="33" y="620"/>
			<point x="33" y="598" type="curve" smooth="yes"/>
			<point x="33" y="580"/>
			<point x="43" y="563"/>
			<point x="54" y="556" type="curve"/>
			<point x="77" y="566"/>
			<point x="111" y="573"/>
			<point x="144" y="573" type="curve" smooth="yes"/>
			<point x="185" y="573"/>
			<point x="208" y="563"/>
			<point x="208" y="538" type="curve" smooth="yes"/>
			<point x="208" y="534" type="line"/>
			<point x="123" y="525" type="line" smooth="yes"/>
			<point x="50" y="517"/>
			<point x="14" y="485"/>
			<point x="14" y="425" type="curve" smooth="yes"/>
			<point x="14" y="355"/>
			<point x="73" y="320"/>
			<point x="165" y="320" type="curve" smooth="yes"/>
			<point x="215" y="320"/>
			<point x="255" y="328"/>
			<point x="283" y="346" type="curve" smooth="yes"/>
			<point x="300" y="356"/>
			<point x="315" y="369"/>
			<point x="315" y="391" type="curve" smooth="yes"/>
			<point x="315" y="537" type="line" smooth="yes"/>
			<point x="315" y="618"/>
			<point x="253" y="656"/>
		</contour>
	</outline>
</glyph>
<glyph name="guillemotleft" format="1">
	<unicode hex="00AB"/>
	<advance width="574"/>
	<outline>
		<contour>
			<point x="418" y="221" type="line"/>
			<point x="484" y="282" type="line" smooth="yes"/>
			<point x="523" y="318"/>
			<point x="530" y="335"/>
			<point x="530" y="365" type="curve" smooth="yes"/>
			<point x="530" y="397"/>
			<point x="503" y="427"/>
			<point x="453" y="441" type="curve"/>
			<point x="306" y="299" type="line" smooth="yes"/>
			<point x="290" y="284"/>
			<point x="278" y="260"/>
			<point x="278" y="217" type="curve" smooth="yes"/>
			<point x="278" y="196"/>
			<point x="285" y="171"/>
			<point x="293" y="158" type="curve"/>
			<point x="390" y="60" type="line" smooth="yes"/>
			<point x="413" y="36"/>
			<point x="435" y="19"/>
			<point x="464" y="19" type="curve" smooth="yes"/>
			<point x="517" y="19"/>
			<point x="542" y="56"/>
			<point x="542" y="94" type="curve"/>
		</contour>
		<contour>
			<point x="169" y="221" type="line"/>
			<point x="235" y="282" type="line" smooth="yes"/>
			<point x="274" y="318"/>
			<point x="281" y="335"/>
			<point x="281" y="365" type="curve" smooth="yes"/>
			<point x="281" y="397"/>
			<point x="254" y="427"/>
			<point x="204" y="441" type="curve"/>
			<point x="57" y="299" type="line" smooth="yes"/>
			<point x="41" y="284"/>
			<point x="29" y="260"/>
			<point x="29" y="217" type="curve" smooth="yes"/>
			<point x="29" y="196"/>
			<point x="36" y="171"/>
			<point x="44" y="158" type="curve"/>
			<point x="141" y="60" type="line" smooth="yes"/>
			<point x="164" y="36"/>
			<point x="186" y="19"/>
			<point x="215" y="19" type="curve" smooth="yes"/>
			<point x="268" y="19"/>
			<point x="293" y="56"/>
			<point x="293" y="94" type="curve"/>
		</contour>
	</outline>
</glyph>
<glyph name="logicalnot" format="1">
	<unicode hex="00AC"/>
	<advance width="481"/>
	<outline>
		<contour>
			<point x="85" y="356" type="line" smooth="yes"/>
			<point x="50" y="356"/>
			<point x="26" y="336"/>
			<point x="26" y="288" type="curve" smooth="yes"/>
			<point x="26" y="262"/>
			<point x="36" y="236"/>
			<point x="44" y="222" type="curve"/>
			<point x="297" y="222" type="line"/>
			<point x="297" y="177" type="line" smooth="yes"/>
			<point x="297" y="115"/>
			<point x="326" y="102"/>
			<point x="382" y="102" type="curve" smooth="yes"/>
			<point x="408" y="102"/>
			<point x="442" y="106"/>
			<point x="455" y="110" type="curve"/>
			<point x="455" y="281" type="line" smooth="yes"/>
			<point x="455" y="327"/>
			<point x="426" y="356"/>
			<point x="380" y="356" type="curve" smooth="yes"/>
		</contour>
	</outline>
</glyph>
<glyph name="registered" format="1">
	<unicode hex="00AE"/>
	<advance width="619"/>
	<outline>
		<contour>
			<point x="37" y="372" type="curve" smooth="yes"/>
			<point x="37" y="225"/>
			<point x="146" y="110"/>
			<point x="309" y="110" type="curve" smooth="yes"/>
			<point x="469" y="110"/>
			<point x="582" y="225"/>
			<point x="582" y="372" type="curve" smooth="yes"/>
			<point x="582" y="519"/>
			<point x="469" y="635"/>
			<point x="309" y="635" type="curve" smooth="yes"/>
			<point x="146" y="635"/>
			<point x="37" y="519"/>
		</contour>
		<contour>
			<point x="127" y="372" type="curve" smooth="yes"/>
			<point x="127" y="480"/>
			<point x="197" y="559"/>
			<point x="309" y="559" type="curve" smooth="yes"/>
			<point x="421" y="559"/>
			<point x="489" y="480"/>
			<point x="489" y="372" type="curve" smooth="yes"/>
			<point x="489" y="264"/>
			<point x="421" y="188"/>
			<point x="309" y="188" type="curve" smooth="yes"/>
			<point x="197" y="188"/>
			<point x="127" y="264"/>
		</contour>
		<contour>
			<point x="300" y="336" type="line"/>
			<point x="332" y="286" type="line" smooth="yes"/>
			<point x="344" y="267"/>
			<point x="355" y="255"/>
			<point x="379" y="255" type="curve" smooth="yes"/>
			<point x="396" y="255"/>
			<point x="414" y="265"/>
			<point x="419" y="283" type="curve"/>
			<point x="408" y="301"/>
			<point x="388" y="325"/>
			<point x="369" y="351" type="curve"/>
			<point x="393" y="363"/>
			<point x="412" y="385"/>
			<point x="412" y="419" type="curve" smooth="yes"/>
			<point x="412" y="472"/>
			<point x="375" y="504"/>
			<point x="302" y="504" type="curve" smooth="yes"/>
			<point x="276" y="504"/>
			<point x="251" y="501"/>
			<point x="232" y="495" type="curve" smooth="yes"/>
			<point x="222" y="491"/>
			<point x="216" y="486"/>
			<point x="216" y="476" type="curve" smooth="yes"/>
			<point x="216" y="289" type="line" smooth="yes"/>
			<point x="216" y="262"/>
			<point x="229" y="257"/>
			<point x="252" y="257" type="curve" smooth="yes"/>
			<point x="269" y="257"/>
			<point x="282" y="259"/>
			<point x="290" y="260" type="curve"/>
			<point x="290" y="336" type="line"/>
		</contour>
		<contour>
			<point x="290" y="390" type="line"/>
			<point x="290" y="446" type="line"/>
			<point x="292" y="446"/>
			<point x="297" y="447"/>
			<point x="304" y="447" type="curve" smooth="yes"/>
			<point x="327" y="447"/>
			<point x="338" y="439"/>
			<point x="338" y="419" type="curve" smooth="yes"/>
			<point x="338" y="398"/>
			<point x="325" y="390"/>
			<point x="305" y="390" type="curve" smooth="yes"/>
		</contour>
	</outline>
</glyph>
<glyph name="macron" format="1">
	<unicode hex="00AF"/>
	<advance width="321"/>
	<outline>
		<contour>
			<point x="296" y="564" type="line" smooth="yes"/>
			<point x="329" y="564"/>
			<point x="350" y="581"/>
			<point x="350" y="630" type="curve" smooth="yes"/>
			<point x="350" y="654"/>
			<point x="345" y="678"/>
			<point x="334" y="692" type="curve"/>
			<point x="69" y="692" type="line" smooth="yes"/>
			<point x="36" y="692"/>
			<point x="14" y="675"/>
			<point x="14" y="626" type="curve" smooth="yes"/>
			<point x="14" y="602"/>
			<point x="24" y="578"/>
			<point x="30" y="564" type="curve"/>
		</contour>
	</outline>
</glyph>
<glyph name="degree" format="1">
	<unicode hex="00B0"/>
	<advance width="361"/>
	<outline>
		<contour>
			<point x="178" y="363" type="curve" smooth="yes"/>
			<point x="278" y="363"/>
			<point x="345" y="426"/>
			<point x="345" y="511" type="curve" smooth="yes"/>
			<point x="345" y="599"/>
			<point x="282" y="660"/>
			<point x="182" y="660" type="curve" smooth="yes"/>
			<point x="79" y="660"/>
			<point x="16" y="599"/>
			<point x="16" y="511" type="curve" smooth="yes"/>
			<point x="16" y="426"/>
			<point x="76" y="363"/>
		</contour>
		<contour>
			<point x="179" y="458" type="curve" smooth="yes"/>
			<point x="151" y="458"/>
			<point x="134" y="478"/>
			<point x="134" y="511" type="curve" smooth="yes"/>
			<point x="134" y="546"/>
			<point x="155" y="564"/>
			<point x="182" y="564" type="curve" smooth="yes"/>
			<point x="210" y="564"/>
			<point x="227" y="543"/>
			<point x="227" y="511" type="curve" smooth="yes"/>
			<point x="227" y="478"/>
			<point x="207" y="458"/>
		</contour>
	</outline>
</glyph>
<glyph name="plusminus" format="1">
	<unicode hex="00B1"/>
	<advance width="497"/>
	<outline>
		<contour>
			<point x="413" y="-3" type="line"/>
			<point x="448" y="-3"/>
			<point x="471" y="18"/>
			<point x="471" y="65" type="curve" smooth="yes"/>
			<point x="471" y="90"/>
			<point x="462" y="115"/>
			<point x="455" y="131" type="curve"/>
			<point x="95" y="131" type="line" smooth="yes"/>
			<point x="59" y="131"/>
			<point x="36" y="110"/>
			<point x="36" y="62" type="curve" smooth="yes"/>
			<point x="36" y="38"/>
			<point x="43" y="12"/>
			<point x="52" y="-3" type="curve"/>
		</contour>
		<contour>
			<point x="327" y="324" type="line"/>
			<point x="413" y="324" type="line" smooth="yes"/>
			<point x="448" y="324"/>
			<point x="471" y="345"/>
			<point x="471" y="392" type="curve" smooth="yes"/>
			<point x="471" y="417"/>
			<point x="462" y="442"/>
			<point x="455" y="458" type="curve"/>
			<point x="327" y="458" type="line"/>
			<point x="327" y="543" type="line" smooth="yes"/>
			<point x="327" y="603"/>
			<point x="297" y="616"/>
			<point x="244" y="616" type="curve" smooth="yes"/>
			<point x="218" y="616"/>
			<point x="186" y="610"/>
			<point x="173" y="606" type="curve"/>
			<point x="173" y="458" type="line"/>
			<point x="85" y="458" type="line" smooth="yes"/>
			<point x="49" y="458"/>
			<point x="26" y="437"/>
			<point x="26" y="389" type="curve" smooth="yes"/>
			<point x="26" y="365"/>
			<point x="33" y="339"/>
			<point x="42" y="324" type="curve"/>
			<point x="173" y="324" type="line"/>
			<point x="173" y="234" type="line" smooth="yes"/>
			<point x="173" y="175"/>
			<point x="201" y="163"/>
			<point x="256" y="163" type="curve" smooth="yes"/>
			<point x="282" y="163"/>
			<point x="316" y="167"/>
			<point x="327" y="172" type="curve"/>
		</contour>
	</outline>
</glyph>
<glyph name="twosuperior" format="1">
	<unicode hex="00B2"/>
	<advance width="280"/>
	<outline>
		<contour>
			<point x="128" y="621" type="curve" smooth="yes"/>
			<point x="70" y="621"/>
			<point x="33" y="603"/>
			<point x="33" y="567" type="curve" smooth="yes"/>
			<point x="33" y="547"/>
			<point x="42" y="531"/>
			<point x="53" y="522" type="curve"/>
			<point x="68" y="531"/>
			<point x="90" y="542"/>
			<point x="119" y="542" type="curve" smooth="yes"/>
			<point x="140" y="542"/>
			<point x="154" y="533"/>
			<point x="154" y="516" type="curve" smooth="yes"/>
			<point x="154" y="502"/>
			<point x="147" y="490"/>
			<point x="108" y="454" type="curve" smooth="yes"/>
			<point x="36" y="388" type="line"/>
			<point x="28" y="378"/>
			<point x="22" y="363"/>
			<point x="22" y="340" type="curve" smooth="yes"/>
			<point x="22" y="319"/>
			<point x="32" y="303"/>
			<point x="46" y="293" type="curve"/>
			<point x="223" y="293" type="line" smooth="yes"/>
			<point x="244" y="293"/>
			<point x="258" y="304"/>
			<point x="258" y="333" type="curve" smooth="yes"/>
			<point x="258" y="348"/>
			<point x="252" y="363"/>
			<point x="248" y="372" type="curve"/>
			<point x="144" y="372" type="line"/>
			<point x="182" y="405" type="line" smooth="yes"/>
			<point x="222" y="440"/>
			<point x="253" y="478"/>
			<point x="253" y="519" type="curve" smooth="yes"/>
			<point x="253" y="579"/>
			<point x="208" y="621"/>
		</contour>
	</outline>
</glyph>
<glyph name="threesuperior" format="1">
	<unicode hex="00B3"/>
	<advance width="286"/>
	<outline>
		<contour>
			<point x="75" y="495" type="line"/>
			<point x="69" y="486"/>
			<point x="65" y="474"/>
			<point x="65" y="456" type="curve" smooth="yes"/>
			<point x="65" y="440"/>
			<point x="70" y="427"/>
			<point x="75" y="419" type="curve"/>
			<point x="127" y="419" type="line" smooth="yes"/>
			<point x="154" y="419"/>
			<point x="165" y="411"/>
			<point x="165" y="393" type="curve" smooth="yes"/>
			<point x="165" y="376"/>
			<point x="150" y="366"/>
			<point x="119" y="366" type="curve" smooth="yes"/>
			<point x="87" y="366"/>
			<point x="65" y="375"/>
			<point x="44" y="387" type="curve"/>
			<point x="28" y="380"/>
			<point x="17" y="362"/>
			<point x="17" y="343" type="curve" smooth="yes"/>
			<point x="17" y="310"/>
			<point x="57" y="285"/>
			<point x="131" y="285" type="curve" smooth="yes"/>
			<point x="209" y="285"/>
			<point x="264" y="324"/>
			<point x="264" y="383" type="curve" smooth="yes"/>
			<point x="264" y="424"/>
			<point x="242" y="450"/>
			<point x="215" y="461" type="curve"/>
			<point x="238" y="474"/>
			<point x="257" y="499"/>
			<point x="257" y="527" type="curve" smooth="yes"/>
			<point x="257" y="585"/>
			<point x="211" y="622"/>
			<point x="131" y="622" type="curve" smooth="yes"/>
			<point x="67" y="622"/>
			<point x="26" y="605"/>
			<point x="26" y="569" type="curve" smooth="yes"/>
			<point x="26" y="550"/>
			<point x="35" y="535"/>
			<point x="50" y="525" type="curve"/>
			<point x="67" y="534"/>
			<point x="89" y="543"/>
			<point x="115" y="543" type="curve" smooth="yes"/>
			<point x="143" y="543"/>
			<point x="158" y="534"/>
			<point x="158" y="517" type="curve" smooth="yes"/>
			<point x="158" y="501"/>
			<point x="147" y="495"/>
			<point x="125" y="495" type="curve" smooth="yes"/>
		</contour>
	</outline>
</glyph>
<glyph name="mu" format="1">
	<unicode hex="00B5"/>
	<advance width="584"/>
	<outline>
		<contour>
			<point x="53" y="-98" type="line" smooth="yes"/>
			<point x="53" y="-165"/>
			<point x="87" y="-178"/>
			<point x="146" y="-178" type="curve" smooth="yes"/>
			<point x="176" y="-178"/>
			<point x="210" y="-172"/>
			<point x="223" y="-168" type="curve"/>
			<point x="223" y="2" type="line"/>
			<point x="251" y="-9"/>
			<point x="287" y="-16"/>
			<point x="324" y="-16" type="curve" smooth="yes"/>
			<point x="411" y="-16"/>
			<point x="460" y="6"/>
			<point x="491" y="28" type="curve" smooth="yes"/>
			<point x="516" y="46"/>
			<point x="531" y="70"/>
			<point x="531" y="103" type="curve" smooth="yes"/>
			<point x="531" y="408" type="line" smooth="yes"/>
			<point x="531" y="475"/>
			<point x="496" y="488"/>
			<point x="437" y="488" type="curve" smooth="yes"/>
			<point x="407" y="488"/>
			<point x="374" y="483"/>
			<point x="361" y="479" type="curve"/>
			<point x="361" y="129" type="line"/>
			<point x="346" y="122"/>
			<point x="327" y="117"/>
			<point x="302" y="117" type="curve" smooth="yes"/>
			<point x="260" y="117"/>
			<point x="223" y="134"/>
			<point x="223" y="188" type="curve" smooth="yes"/>
			<point x="223" y="408" type="line" smooth="yes"/>
			<point x="223" y="475"/>
			<point x="188" y="488"/>
			<point x="129" y="488" type="curve" smooth="yes"/>
			<point x="99" y="488"/>
			<point x="66" y="483"/>
			<point x="53" y="479" type="curve"/>
		</contour>
	</outline>
</glyph>
<glyph name="paragraph" format="1">
	<unicode hex="00B6"/>
	<advance width="550"/>
	<outline>
		<contour>
			<point x="253" y="607" type="line" smooth="yes"/>
			<point x="126" y="607"/>
			<point x="16" y="536"/>
			<point x="16" y="391" type="curve" smooth="yes"/>
			<point x="16" y="253"/>
			<point x="107" y="191"/>
			<point x="193" y="191" type="curve" smooth="yes"/>
			<point x="237" y="191"/>
			<point x="256" y="204"/>
			<point x="256" y="221" type="curve" smooth="yes"/>
			<point x="256" y="464" type="line"/>
			<point x="325" y="464" type="line"/>
			<point x="325" y="2" type="line" smooth="yes"/>
			<point x="325" y="-65"/>
			<point x="360" y="-78"/>
			<point x="419" y="-78" type="curve" smooth="yes"/>
			<point x="448" y="-78"/>
			<point x="481" y="-72"/>
			<point x="495" y="-69" type="curve"/>
			<point x="495" y="527" type="line" smooth="yes"/>
			<point x="495" y="594"/>
			<point x="460" y="607"/>
			<point x="401" y="607" type="curve" smooth="yes"/>
		</contour>
	</outline>
</glyph>
<glyph name="periodcentered" format="1">
	<unicode hex="00B7"/>
	<advance width="234"/>
	<outline>
		<contour>
			<point x="20" y="301" type="curve" smooth="yes"/>
			<point x="20" y="246"/>
			<point x="58" y="203"/>
			<point x="117" y="203" type="curve" smooth="yes"/>
			<point x="176" y="203"/>
			<point x="214" y="246"/>
			<point x="214" y="301" type="curve" smooth="yes"/>
			<point x="214" y="356"/>
			<point x="176" y="399"/>
			<point x="117" y="399" type="curve" smooth="yes"/>
			<point x="58" y="399"/>
			<point x="20" y="356"/>
		</contour>
	</outline>
</glyph>
<glyph name="cedilla" format="1">
	<unicode hex="00B8"/>
	<advance width="195"/>
	<outline>
		<contour>
			<point x="33" y="5" type="line"/>
			<point x="45" y="-8"/>
			<point x="52" y="-31"/>
			<point x="52" y="-44" type="curve" smooth="yes"/>
			<point x="52" y="-75"/>
			<point x="27" y="-94"/>
			<point x="-16" y="-96" type="curve"/>
			<point x="-19" y="-106"/>
			<point x="-20" y="-116"/>
			<point x="-20" y="-126" type="curve" smooth="yes"/>
			<point x="-20" y="-177"/>
			<point x="19" y="-205"/>
			<point x="73" y="-205" type="curve" smooth="yes"/>
			<point x="149" y="-205"/>
			<point x="194" y="-155"/>
			<point x="194" y="-87" type="curve" smooth="yes"/>
			<point x="194" y="-40"/>
			<point x="161" y="14"/>
			<point x="111" y="38" type="curve"/>
		</contour>
	</outline>
</glyph>
<glyph name="onesuperior" format="1">
	<unicode hex="00B9"/>
	<advance width="222"/>
	<outline>
		<contour>
			<point x="180" y="568" type="line" smooth="yes"/>
			<point x="180" y="599"/>
			<point x="159" y="621"/>
			<point x="127" y="621" type="curve" smooth="yes"/>
			<point x="111" y="621" type="line"/>
			<point x="39" y="595" type="line" smooth="yes"/>
			<point x="16" y="586"/>
			<point x="7" y="570"/>
			<point x="7" y="551" type="curve" smooth="yes"/>
			<point x="7" y="523"/>
			<point x="26" y="506"/>
			<point x="41" y="497" type="curve"/>
			<point x="82" y="509" type="line"/>
			<point x="82" y="334" type="line" smooth="yes"/>
			<point x="82" y="296"/>
			<point x="102" y="289"/>
			<point x="136" y="289" type="curve" smooth="yes"/>
			<point x="153" y="289"/>
			<point x="172" y="292"/>
			<point x="180" y="293" type="curve"/>
		</contour>
	</outline>
</glyph>
<glyph name="ordmasculine" format="1">
	<unicode hex="00BA"/>
	<advance width="396"/>
	<outline>
		<contour>
			<point x="365" y="489" type="curve" smooth="yes"/>
			<point x="365" y="590"/>
			<point x="297" y="656"/>
			<point x="195" y="656" type="curve" smooth="yes"/>
			<point x="93" y="656"/>
			<point x="25" y="591"/>
			<point x="25" y="489" type="curve" smooth="yes"/>
			<point x="25" y="384"/>
			<point x="93" y="321"/>
			<point x="195" y="321" type="curve" smooth="yes"/>
			<point x="297" y="321"/>
			<point x="365" y="381"/>
		</contour>
		<contour>
			<point x="138" y="489" type="curve" smooth="yes"/>
			<point x="138" y="541"/>
			<point x="159" y="570"/>
			<point x="195" y="570" type="curve" smooth="yes"/>
			<point x="231" y="570"/>
			<point x="252" y="540"/>
			<point x="252" y="489" type="curve" smooth="yes"/>
			<point x="252" y="437"/>
			<point x="231" y="407"/>
			<point x="196" y="407" type="curve" smooth="yes"/>
			<point x="160" y="407"/>
			<point x="138" y="436"/>
		</contour>
	</outline>
</glyph>
<glyph name="guillemotright" format="1">
	<unicode hex="00BB"/>
	<advance width="574"/>
	<outline>
		<contour>
			<point x="153" y="239" type="line"/>
			<point x="87" y="178" type="line" smooth="yes"/>
			<point x="48" y="142"/>
			<point x="41" y="125"/>
			<point x="41" y="95" type="curve" smooth="yes"/>
			<point x="41" y="63"/>
			<point x="68" y="33"/>
			<point x="118" y="19" type="curve"/>
			<point x="265" y="159" type="line" smooth="yes"/>
			<point x="281" y="174"/>
			<point x="293" y="198"/>
			<point x="293" y="241" type="curve" smooth="yes"/>
			<point x="293" y="262"/>
			<point x="286" y="287"/>
			<point x="278" y="300" type="curve"/>
			<point x="181" y="400" type="line" smooth="yes"/>
			<point x="158" y="424"/>
			<point x="136" y="441"/>
			<point x="107" y="441" type="curve" smooth="yes"/>
			<point x="54" y="441"/>
			<point x="29" y="404"/>
			<point x="29" y="366" type="curve"/>
		</contour>
		<contour>
			<point x="402" y="239" type="line"/>
			<point x="336" y="178" type="line" smooth="yes"/>
			<point x="297" y="142"/>
			<point x="290" y="125"/>
			<point x="290" y="95" type="curve" smooth="yes"/>
			<point x="290" y="63"/>
			<point x="317" y="33"/>
			<point x="367" y="19" type="curve"/>
			<point x="514" y="159" type="line" smooth="yes"/>
			<point x="530" y="174"/>
			<point x="542" y="198"/>
			<point x="542" y="241" type="curve" smooth="yes"/>
			<point x="542" y="262"/>
			<point x="535" y="287"/>
			<point x="527" y="300" type="curve"/>
			<point x="430" y="400" type="line" smooth="yes"/>
			<point x="407" y="424"/>
			<point x="385" y="441"/>
			<point x="356" y="441" type="curve" smooth="yes"/>
			<point x="303" y="441"/>
			<point x="278" y="404"/>
			<point x="278" y="366" type="curve"/>
		</contour>
	</outline>
</glyph>
<glyph name="onequarter" format="1">
	<unicode hex="00BC"/>
	<advance width="630"/>
	<outline>
		<contour>
			<point x="180" y="568" type="line" smooth="yes"/>
			<point x="180" y="599"/>
			<point x="159" y="621"/>
			<point x="127" y="621" type="curve" smooth="yes"/>
			<point x="111" y="621" type="line"/>
			<point x="39" y="595" type="line" smooth="yes"/>
			<point x="16" y="586"/>
			<point x="7" y="570"/>
			<point x="7" y="551" type="curve" smooth="yes"/>
			<point x="7" y="523"/>
			<point x="26" y="506"/>
			<point x="41" y="497" type="curve"/>
			<point x="82" y="509" type="line"/>
			<point x="82" y="334" type="line" smooth="yes"/>
			<point x="82" y="296"/>
			<point x="102" y="289"/>
			<point x="136" y="289" type="curve" smooth="yes"/>
			<point x="153" y="289"/>
			<point x="172" y="292"/>
			<point x="180" y="293" type="curve"/>
		</contour>
		<contour>
			<point x="94" y="107" type="line" smooth="yes"/>
			<point x="78" y="83"/>
			<point x="67" y="64"/>
			<point x="67" y="44" type="curve"/>
			<point x="69" y="16"/>
			<point x="98" y="-1"/>
			<point x="139" y="-7" type="curve"/>
			<point x="490" y="503" type="line" smooth="yes"/>
			<point x="506" y="527"/>
			<point x="517" y="546"/>
			<point x="517" y="566" type="curve"/>
			<point x="515" y="594"/>
			<point x="486" y="611"/>
			<point x="445" y="617" type="curve"/>
		</contour>
		<contour>
			<point x="573" y="273" type="line" smooth="yes"/>
			<point x="573" y="312"/>
			<point x="538" y="323"/>
			<point x="506" y="323" type="curve" smooth="yes"/>
			<point x="486" y="323"/>
			<point x="468" y="319"/>
			<point x="455" y="316" type="curve"/>
			<point x="335" y="157" type="line"/>
			<point x="327" y="142"/>
			<point x="321" y="129"/>
			<point x="321" y="111" type="curve" smooth="yes"/>
			<point x="321" y="86"/>
			<point x="334" y="69"/>
			<point x="351" y="61" type="curve"/>
			<point x="480" y="61" type="line"/>
			<point x="480" y="39" type="line" smooth="yes"/>
			<point x="480" y="3"/>
			<point x="499" y="-4"/>
			<point x="531" y="-4" type="curve" smooth="yes"/>
			<point x="547" y="-4"/>
			<point x="565" y="-2"/>
			<point x="573" y="0" type="curve"/>
			<point x="573" y="61" type="line"/>
			<point x="592" y="61" type="line" smooth="yes"/>
			<point x="611" y="61"/>
			<point x="625" y="72"/>
			<point x="625" y="100" type="curve" smooth="yes"/>
			<point x="625" y="116"/>
			<point x="620" y="131"/>
			<point x="616" y="139" type="curve"/>
			<point x="573" y="139" type="line"/>
		</contour>
		<contour>
			<point x="483" y="139" type="line"/>
			<point x="424" y="139" type="line"/>
			<point x="483" y="227" type="line"/>
		</contour>
	</outline>
</glyph>
<glyph name="onehalf" format="1">
	<unicode hex="00BD"/>
	<advance width="636"/>
	<outline>
		<contour>
			<point x="180" y="568" type="line"/>
			<point x="180" y="599"/>
			<point x="159" y="621"/>
			<point x="127" y="621" type="curve" smooth="yes"/>
			<point x="111" y="621" type="line"/>
			<point x="39" y="595" type="line" smooth="yes"/>
			<point x="16" y="586"/>
			<point x="7" y="570"/>
			<point x="7" y="551" type="curve" smooth="yes"/>
			<point x="7" y="523"/>
			<point x="26" y="506"/>
			<point x="41" y="497" type="curve"/>
			<point x="82" y="509" type="line"/>
			<point x="82" y="334" type="line" smooth="yes"/>
			<point x="82" y="296"/>
			<point x="102" y="289"/>
			<point x="136" y="289" type="curve" smooth="yes"/>
			<point x="153" y="289"/>
			<point x="172" y="292"/>
			<point x="180" y="293" type="curve"/>
		</contour>
		<contour>
			<point x="94" y="107" type="line"/>
			<point x="78" y="83"/>
			<point x="67" y="64"/>
			<point x="67" y="44" type="curve"/>
			<point x="69" y="16"/>
			<point x="98" y="-1"/>
			<point x="139" y="-7" type="curve"/>
			<point x="490" y="503" type="line" smooth="yes"/>
			<point x="506" y="527"/>
			<point x="517" y="546"/>
			<point x="517" y="566" type="curve"/>
			<point x="515" y="594"/>
			<point x="486" y="611"/>
			<point x="445" y="617" type="curve"/>
		</contour>
		<contour>
			<point x="484" y="330" type="curve" smooth="yes"/>
			<point x="426" y="330"/>
			<point x="389" y="312"/>
			<point x="389" y="276" type="curve" smooth="yes"/>
			<point x="389" y="256"/>
			<point x="398" y="240"/>
			<point x="409" y="231" type="curve"/>
			<point x="424" y="240"/>
			<point x="446" y="251"/>
			<point x="475" y="251" type="curve" smooth="yes"/>
			<point x="496" y="251"/>
			<point x="510" y="242"/>
			<point x="510" y="225" type="curve" smooth="yes"/>
			<point x="510" y="211"/>
			<point x="503" y="199"/>
			<point x="464" y="163" type="curve" smooth="yes"/>
			<point x="392" y="97" type="line"/>
			<point x="384" y="87"/>
			<point x="378" y="72"/>
			<point x="378" y="49" type="curve" smooth="yes"/>
			<point x="378" y="28"/>
			<point x="388" y="12"/>
			<point x="402" y="2" type="curve"/>
			<point x="579" y="2" type="line" smooth="yes"/>
			<point x="600" y="2"/>
			<point x="614" y="13"/>
			<point x="614" y="42" type="curve" smooth="yes"/>
			<point x="614" y="57"/>
			<point x="608" y="72"/>
			<point x="604" y="81" type="curve"/>
			<point x="500" y="81" type="line"/>
			<point x="538" y="114" type="line" smooth="yes"/>
			<point x="578" y="149"/>
			<point x="609" y="187"/>
			<point x="609" y="228" type="curve" smooth="yes"/>
			<point x="609" y="288"/>
			<point x="564" y="330"/>
		</contour>
	</outline>
</glyph>
<glyph name="threequarters" format="1">
	<unicode hex="00BE"/>
	<advance width="686"/>
	<outline>
		<contour>
			<point x="75" y="495" type="line"/>
			<point x="69" y="486"/>
			<point x="65" y="474"/>
			<point x="65" y="456" type="curve" smooth="yes"/>
			<point x="65" y="440"/>
			<point x="70" y="427"/>
			<point x="75" y="419" type="curve"/>
			<point x="127" y="419" type="line" smooth="yes"/>
			<point x="154" y="419"/>
			<point x="165" y="411"/>
			<point x="165" y="393" type="curve" smooth="yes"/>
			<point x="165" y="376"/>
			<point x="150" y="366"/>
			<point x="119" y="366" type="curve" smooth="yes"/>
			<point x="87" y="366"/>
			<point x="65" y="375"/>
			<point x="44" y="387" type="curve"/>
			<point x="28" y="380"/>
			<point x="17" y="362"/>
			<point x="17" y="343" type="curve" smooth="yes"/>
			<point x="17" y="310"/>
			<point x="57" y="285"/>
			<point x="131" y="285" type="curve" smooth="yes"/>
			<point x="209" y="285"/>
			<point x="264" y="324"/>
			<point x="264" y="383" type="curve" smooth="yes"/>
			<point x="264" y="424"/>
			<point x="242" y="450"/>
			<point x="215" y="461" type="curve"/>
			<point x="238" y="474"/>
			<point x="257" y="499"/>
			<point x="257" y="527" type="curve" smooth="yes"/>
			<point x="257" y="585"/>
			<point x="211" y="622"/>
			<point x="131" y="622" type="curve" smooth="yes"/>
			<point x="67" y="622"/>
			<point x="26" y="605"/>
			<point x="26" y="569" type="curve" smooth="yes"/>
			<point x="26" y="550"/>
			<point x="35" y="535"/>
			<point x="50" y="525" type="curve"/>
			<point x="67" y="534"/>
			<point x="89" y="543"/>
			<point x="115" y="543" type="curve" smooth="yes"/>
			<point x="143" y="543"/>
			<point x="158" y="534"/>
			<point x="158" y="517" type="curve" smooth="yes"/>
			<point x="158" y="501"/>
			<point x="147" y="495"/>
			<point x="125" y="495" type="curve" smooth="yes"/>
		</contour>
		<contour>
			<point x="149" y="107" type="line" smooth="yes"/>
			<point x="133" y="83"/>
			<point x="122" y="64"/>
			<point x="122" y="44" type="curve"/>
			<point x="124" y="16"/>
			<point x="153" y="-1"/>
			<point x="194" y="-7" type="curve"/>
			<point x="545" y="503" type="line" smooth="yes"/>
			<point x="561" y="527"/>
			<point x="572" y="546"/>
			<point x="572" y="566" type="curve"/>
			<point x="570" y="594"/>
			<point x="541" y="611"/>
			<point x="500" y="617" type="curve"/>
		</contour>
		<contour>
			<point x="629" y="273" type="line" smooth="yes"/>
			<point x="629" y="312"/>
			<point x="594" y="323"/>
			<point x="562" y="323" type="curve" smooth="yes"/>
			<point x="542" y="323"/>
			<point x="524" y="319"/>
			<point x="511" y="316" type="curve"/>
			<point x="391" y="157" type="line"/>
			<point x="383" y="142"/>
			<point x="377" y="129"/>
			<point x="377" y="111" type="curve" smooth="yes"/>
			<point x="377" y="86"/>
			<point x="390" y="69"/>
			<point x="407" y="61" type="curve"/>
			<point x="536" y="61" type="line"/>
			<point x="536" y="39" type="line" smooth="yes"/>
			<point x="536" y="3"/>
			<point x="555" y="-4"/>
			<point x="587" y="-4" type="curve" smooth="yes"/>
			<point x="603" y="-4"/>
			<point x="621" y="-2"/>
			<point x="629" y="0" type="curve"/>
			<point x="629" y="61" type="line"/>
			<point x="648" y="61" type="line" smooth="yes"/>
			<point x="667" y="61"/>
			<point x="681" y="72"/>
			<point x="681" y="100" type="curve" smooth="yes"/>
			<point x="681" y="116"/>
			<point x="676" y="131"/>
			<point x="672" y="139" type="curve"/>
			<point x="629" y="139" type="line"/>
		</contour>
		<contour>
			<point x="539" y="139" type="line"/>
			<point x="480" y="139" type="line"/>
			<point x="539" y="227" type="line"/>
		</contour>
	</outline>
</glyph>
<glyph name="questiondown" format="1">
	<unicode hex="00BF"/>
	<advance width="439"/>
	<outline>
		<contour>
			<point x="341" y="365" type="curve" smooth="yes"/>
			<point x="341" y="419"/>
			<point x="304" y="459"/>
			<point x="245" y="459" type="curve" smooth="yes"/>
			<point x="186" y="459"/>
			<point x="149" y="419"/>
			<point x="149" y="365" type="curve" smooth="yes"/>
			<point x="149" y="311"/>
			<point x="186" y="271"/>
			<point x="245" y="271" type="curve"/>
			<point x="304" y="271"/>
			<point x="341" y="311"/>
		</contour>
		<contour>
			<point x="207" y="214" type="line"/>
			<point x="57" y="184"/>
			<point x="-19" y="115"/>
			<point x="-19" y="9" type="curve" smooth="yes"/>
			<point x="-19" y="-104"/>
			<point x="63" y="-181"/>
			<point x="220" y="-181" type="curve" smooth="yes"/>
			<point x="336" y="-181"/>
			<point x="420" y="-149"/>
			<point x="420" y="-79" type="curve" smooth="yes"/>
			<point x="420" y="-45"/>
			<point x="401" y="-20"/>
			<point x="379" y="-3" type="curve"/>
			<point x="350" y="-22"/>
			<point x="298" y="-38"/>
			<point x="244" y="-38" type="curve" smooth="yes"/>
			<point x="184" y="-38"/>
			<point x="162" y="-16"/>
			<point x="162" y="9" type="curve" smooth="yes"/>
			<point x="162" y="34"/>
			<point x="177" y="48"/>
			<point x="212" y="57" type="curve" smooth="yes"/>
			<point x="290" y="76" type="line" smooth="yes"/>
			<point x="333" y="87"/>
			<point x="355" y="105"/>
			<point x="355" y="146" type="curve"/>
			<point x="355" y="188"/>
			<point x="331" y="222"/>
			<point x="308" y="234" type="curve"/>
		</contour>
	</outline>
</glyph>
<glyph name="Agrave" format="1">
	<unicode hex="00C0"/>
	<advance width="627"/>
	<outline>
		<contour>
			<point x="194" y="588" type="curve"/>
			<point x="166" y="517"/>
			<point x="64" y="224"/>
			<point x="36" y="117" type="curve" smooth="yes"/>
			<point x="29" y="92"/>
			<point x="23" y="75"/>
			<point x="23" y="56" type="curve" smooth="yes"/>
			<point x="23" y="15"/>
			<point x="56" y="-10"/>
			<point x="123" y="-10" type="curve" smooth="yes"/>
			<point x="152" y="-10"/>
			<point x="172" y="-4"/>
			<point x="190" y="2" type="curve"/>
			<point x="200" y="42"/>
			<point x="211" y="86"/>
			<point x="222" y="126" type="curve"/>
			<point x="403" y="126" type="line"/>
			<point x="421" y="57" type="line" smooth="yes"/>
			<point x="434" y="11"/>
			<point x="452" y="-10"/>
			<point x="517" y="-10" type="curve" smooth="yes"/>
			<point x="561" y="-10"/>
			<point x="594" y="3"/>
			<point x="610" y="21" type="curve"/>
			<point x="569" y="169"/>
			<point x="500" y="418"/>
			<point x="453" y="556" type="curve" smooth="yes"/>
			<point x="439" y="597"/>
			<point x="381" y="616"/>
			<point x="315" y="616" type="curve" smooth="yes"/>
			<point x="269" y="616"/>
			<point x="216" y="601"/>
		</contour>
		<contour>
			<point x="320" y="459" type="line"/>
			<point x="336" y="405"/>
			<point x="356" y="333"/>
			<point x="375" y="261" type="curve"/>
			<point x="251" y="261" type="line"/>
			<point x="270" y="331"/>
			<point x="296" y="403"/>
			<point x="314" y="459" type="curve"/>
		</contour>
		<contour>
			<point x="337" y="666" type="line"/>
			<point x="357" y="658"/>
			<point x="376" y="653"/>
			<point x="394" y="653" type="curve" smooth="yes"/>
			<point x="428" y="653"/>
			<point x="455" y="683"/>
			<point x="455" y="730" type="curve" smooth="yes"/>
			<point x="455" y="735"/>
			<point x="455" y="741"/>
			<point x="454" y="746" type="curve"/>
			<point x="318" y="816" type="line" smooth="yes"/>
			<point x="291" y="830"/>
			<point x="272" y="840"/>
			<point x="248" y="840" type="curve" smooth="yes"/>
			<point x="203" y="840"/>
			<point x="175" y="810"/>
			<point x="175" y="768" type="curve" smooth="yes"/>
			<point x="175" y="756"/>
			<point x="177" y="740"/>
			<point x="183" y="726" type="curve"/>
		</contour>
	</outline>
</glyph>
<glyph name="Aacute" format="1">
	<unicode hex="00C1"/>
	<advance width="627"/>
	<outline>
		<contour>
			<point x="194" y="588" type="curve"/>
			<point x="166" y="517"/>
			<point x="64" y="224"/>
			<point x="36" y="117" type="curve" smooth="yes"/>
			<point x="29" y="92"/>
			<point x="23" y="75"/>
			<point x="23" y="56" type="curve" smooth="yes"/>
			<point x="23" y="15"/>
			<point x="56" y="-10"/>
			<point x="123" y="-10" type="curve" smooth="yes"/>
			<point x="152" y="-10"/>
			<point x="172" y="-4"/>
			<point x="190" y="2" type="curve"/>
			<point x="200" y="42"/>
			<point x="211" y="86"/>
			<point x="222" y="126" type="curve"/>
			<point x="403" y="126" type="line"/>
			<point x="421" y="57" type="line" smooth="yes"/>
			<point x="434" y="11"/>
			<point x="452" y="-10"/>
			<point x="517" y="-10" type="curve" smooth="yes"/>
			<point x="561" y="-10"/>
			<point x="594" y="3"/>
			<point x="610" y="21" type="curve"/>
			<point x="569" y="169"/>
			<point x="500" y="418"/>
			<point x="453" y="556" type="curve" smooth="yes"/>
			<point x="439" y="597"/>
			<point x="381" y="616"/>
			<point x="315" y="616" type="curve" smooth="yes"/>
			<point x="269" y="616"/>
			<point x="216" y="601"/>
		</contour>
		<contour>
			<point x="320" y="459" type="line"/>
			<point x="336" y="405"/>
			<point x="356" y="333"/>
			<point x="375" y="261" type="curve"/>
			<point x="251" y="261" type="line"/>
			<point x="270" y="331"/>
			<point x="296" y="403"/>
			<point x="314" y="459" type="curve"/>
		</contour>
		<contour>
			<point x="224" y="763" type="line"/>
			<point x="203" y="752"/>
			<point x="193" y="734"/>
			<point x="193" y="715" type="curve" smooth="yes"/>
			<point x="193" y="686"/>
			<point x="219" y="659"/>
			<point x="257" y="651" type="curve"/>
			<point x="394" y="705" type="line" smooth="yes"/>
			<point x="440" y="723"/>
			<point x="462" y="744"/>
			<point x="462" y="782" type="curve" smooth="yes"/>
			<point x="462" y="816"/>
			<point x="436" y="846"/>
			<point x="371" y="851" type="curve"/>
		</contour>
	</outline>
</glyph>
<glyph name="Atilde" format="1">
	<unicode hex="00C3"/>
	<advance width="627"/>
	<outline>
		<contour>
			<point x="194" y="588" type="curve"/>
			<point x="166" y="517"/>
			<point x="64" y="224"/>
			<point x="36" y="117" type="curve" smooth="yes"/>
			<point x="29" y="92"/>
			<point x="23" y="75"/>
			<point x="23" y="56" type="curve" smooth="yes"/>
			<point x="23" y="15"/>
			<point x="56" y="-10"/>
			<point x="123" y="-10" type="curve" smooth="yes"/>
			<point x="152" y="-10"/>
			<point x="172" y="-4"/>
			<point x="190" y="2" type="curve"/>
			<point x="200" y="42"/>
			<point x="211" y="86"/>
			<point x="222" y="126" type="curve"/>
			<point x="403" y="126" type="line"/>
			<point x="421" y="57" type="line" smooth="yes"/>
			<point x="434" y="11"/>
			<point x="452" y="-10"/>
			<point x="517" y="-10" type="curve" smooth="yes"/>
			<point x="561" y="-10"/>
			<point x="594" y="3"/>
			<point x="610" y="21" type="curve"/>
			<point x="569" y="169"/>
			<point x="500" y="418"/>
			<point x="453" y="556" type="curve" smooth="yes"/>
			<point x="439" y="597"/>
			<point x="381" y="616"/>
			<point x="315" y="616" type="curve" smooth="yes"/>
			<point x="269" y="616"/>
			<point x="216" y="601"/>
		</contour>
		<contour>
			<point x="320" y="459" type="line"/>
			<point x="336" y="405"/>
			<point x="356" y="333"/>
			<point x="375" y="261" type="curve"/>
			<point x="251" y="261" type="line"/>
			<point x="270" y="331"/>
			<point x="296" y="403"/>
			<point x="314" y="459" type="curve"/>
		</contour>
		<contour>
			<point x="322" y="825" type="curve" smooth="yes"/>
			<point x="267" y="841"/>
			<point x="249" y="843"/>
			<point x="231" y="843" type="curve" smooth="yes"/>
			<point x="184" y="843"/>
			<point x="133" y="816"/>
			<point x="133" y="756" type="curve" smooth="yes"/>
			<point x="133" y="709"/>
			<point x="168" y="676"/>
			<point x="215" y="676" type="curve"/>
			<point x="223" y="689"/>
			<point x="237" y="711"/>
			<point x="266" y="711" type="curve" smooth="yes"/>
			<point x="278" y="711"/>
			<point x="290" y="707"/>
			<point x="308" y="702" type="curve" smooth="yes"/>
			<point x="348" y="690" type="line" smooth="yes"/>
			<point x="370" y="684"/>
			<point x="389" y="682"/>
			<point x="407" y="682" type="curve" smooth="yes"/>
			<point x="463" y="682"/>
			<point x="505" y="710"/>
			<point x="505" y="769" type="curve" smooth="yes"/>
			<point x="505" y="816"/>
			<point x="470" y="849"/>
			<point x="423" y="849" type="curve"/>
			<point x="416" y="837"/>
			<point x="401" y="814"/>
			<point x="372" y="814" type="curve" smooth="yes"/>
			<point x="361" y="814"/>
			<point x="346" y="818"/>
		</contour>
	</outline>
</glyph>
<glyph name="AE" format="1">
	<unicode hex="00C6"/>
	<advance width="875"/>
	<outline>
		<contour>
			<point x="524" y="606" type="line"/>
			<point x="504" y="606"/>
			<point x="487" y="601"/>
			<point x="473" y="592" type="curve"/>
			<point x="448" y="604"/>
			<point x="409" y="611"/>
			<point x="378" y="611" type="curve" smooth="yes"/>
			<point x="331" y="611"/>
			<point x="292" y="595"/>
			<point x="272" y="581" type="curve"/>
			<point x="229" y="509"/>
			<point x="90" y="228"/>
			<point x="40" y="117" type="curve" smooth="yes"/>
			<point x="29" y="93"/>
			<point x="25" y="75"/>
			<point x="25" y="56" type="curve" smooth="yes"/>
			<point x="25" y="15"/>
			<point x="54" y="-10"/>
			<point x="115" y="-10" type="curve" smooth="yes"/>
			<point x="144" y="-10"/>
			<point x="164" y="-4"/>
			<point x="182" y="2" type="curve"/>
			<point x="239" y="126" type="line"/>
			<point x="392" y="126" type="line"/>
			<point x="392" y="90" type="line" smooth="yes"/>
			<point x="392" y="33"/>
			<point x="428" y="-3"/>
			<point x="485" y="-3" type="curve" smooth="yes"/>
			<point x="777" y="-3" type="line" smooth="yes"/>
			<point x="813" y="-3"/>
			<point x="837" y="17"/>
			<point x="837" y="68" type="curve" smooth="yes"/>
			<point x="837" y="95"/>
			<point x="828" y="120"/>
			<point x="819" y="135" type="curve"/>
			<point x="562" y="135" type="line"/>
			<point x="562" y="240" type="line"/>
			<point x="746" y="240" type="line" smooth="yes"/>
			<point x="782" y="240"/>
			<point x="805" y="260"/>
			<point x="805" y="310" type="curve" smooth="yes"/>
			<point x="805" y="337"/>
			<point x="796" y="361"/>
			<point x="787" y="376" type="curve"/>
			<point x="562" y="376" type="line"/>
			<point x="562" y="469" type="line"/>
			<point x="773" y="469" type="line" smooth="yes"/>
			<point x="809" y="469"/>
			<point x="833" y="489"/>
			<point x="833" y="539" type="curve" smooth="yes"/>
			<point x="833" y="566"/>
			<point x="824" y="591"/>
			<point x="815" y="606" type="curve"/>
		</contour>
		<contour>
			<point x="392" y="459" type="line"/>
			<point x="392" y="261" type="line"/>
			<point x="300" y="261" type="line"/>
			<point x="386" y="459" type="line"/>
		</contour>
	</outline>
</glyph>
<glyph name="Ccedilla" format="1">
	<unicode hex="00C7"/>
	<advance width="571"/>
	<outline>
		<contour>
			<point x="374" y="484" type="curve" smooth="yes"/>
			<point x="426" y="484"/>
			<point x="464" y="465"/>
			<point x="498" y="443" type="curve"/>
			<point x="520" y="458"/>
			<point x="541" y="484"/>
			<point x="541" y="518" type="curve" smooth="yes"/>
			<point x="541" y="580"/>
			<point x="470" y="625"/>
			<point x="348" y="625" type="curve" smooth="yes"/>
			<point x="175" y="625"/>
			<point x="35" y="511"/>
			<point x="35" y="304" type="curve" smooth="yes"/>
			<point x="35" y="112"/>
			<point x="144" y="10"/>
			<point x="289" y="-12" type="curve"/>
			<point x="295" y="-25"/>
			<point x="297" y="-39"/>
			<point x="297" y="-47" type="curve" smooth="yes"/>
			<point x="297" y="-78"/>
			<point x="275" y="-94"/>
			<point x="232" y="-96" type="curve"/>
			<point x="229" y="-104"/>
			<point x="227" y="-112"/>
			<point x="227" y="-126" type="curve" smooth="yes"/>
			<point x="227" y="-177"/>
			<point x="265" y="-207"/>
			<point x="320" y="-207" type="curve" smooth="yes"/>
			<point x="398" y="-207"/>
			<point x="443" y="-156"/>
			<point x="443" y="-87" type="curve" smooth="yes"/>
			<point x="443" y="-64"/>
			<point x="437" y="-30"/>
			<point x="427" y="-12" type="curve"/>
			<point x="506" y="0"/>
			<point x="543" y="36"/>
			<point x="543" y="80" type="curve" smooth="yes"/>
			<point x="543" y="114"/>
			<point x="529" y="141"/>
			<point x="507" y="159" type="curve"/>
			<point x="472" y="140"/>
			<point x="437" y="123"/>
			<point x="383" y="123" type="curve" smooth="yes"/>
			<point x="281" y="123"/>
			<point x="215" y="189"/>
			<point x="215" y="304" type="curve" smooth="yes"/>
			<point x="215" y="418"/>
			<point x="272" y="484"/>
		</contour>
	</outline>
</glyph>
<glyph name="Egrave" format="1">
	<unicode hex="00C8"/>
	<advance width="541"/>
	<outline>
		<contour>
			<point x="58" y="90" type="line"/>
			<point x="58" y="33"/>
			<point x="94" y="-3"/>
			<point x="151" y="-3" type="curve" smooth="yes"/>
			<point x="443" y="-3" type="line" smooth="yes"/>
			<point x="479" y="-3"/>
			<point x="503" y="17"/>
			<point x="503" y="68" type="curve" smooth="yes"/>
			<point x="503" y="95"/>
			<point x="494" y="120"/>
			<point x="485" y="135" type="curve"/>
			<point x="228" y="135" type="line"/>
			<point x="228" y="240" type="line"/>
			<point x="412" y="240" type="line" smooth="yes"/>
			<point x="448" y="240"/>
			<point x="471" y="260"/>
			<point x="471" y="310" type="curve" smooth="yes"/>
			<point x="471" y="337"/>
			<point x="462" y="361"/>
			<point x="453" y="376" type="curve"/>
			<point x="228" y="376" type="line"/>
			<point x="228" y="469" type="line"/>
			<point x="439" y="469" type="line" smooth="yes"/>
			<point x="475" y="469"/>
			<point x="499" y="489"/>
			<point x="499" y="539" type="curve" smooth="yes"/>
			<point x="499" y="566"/>
			<point x="490" y="591"/>
			<point x="481" y="606" type="curve"/>
			<point x="151" y="606" type="line" smooth="yes"/>
			<point x="94" y="606"/>
			<point x="58" y="570"/>
			<point x="58" y="513" type="curve" smooth="yes"/>
		</contour>
		<contour>
			<point x="278" y="666" type="line"/>
			<point x="298" y="658"/>
			<point x="317" y="653"/>
			<point x="335" y="653" type="curve" smooth="yes"/>
			<point x="369" y="653"/>
			<point x="396" y="683"/>
			<point x="396" y="730" type="curve" smooth="yes"/>
			<point x="396" y="735"/>
			<point x="396" y="741"/>
			<point x="395" y="746" type="curve"/>
			<point x="259" y="816" type="line" smooth="yes"/>
			<point x="232" y="830"/>
			<point x="213" y="840"/>
			<point x="189" y="840" type="curve" smooth="yes"/>
			<point x="144" y="840"/>
			<point x="116" y="810"/>
			<point x="116" y="768" type="curve" smooth="yes"/>
			<point x="116" y="756"/>
			<point x="118" y="740"/>
			<point x="124" y="726" type="curve"/>
		</contour>
	</outline>
</glyph>
<glyph name="Eacute" format="1">
	<unicode hex="00C9"/>
	<advance width="541"/>
	<outline>
		<contour>
			<point x="58" y="90" type="line"/>
			<point x="58" y="33"/>
			<point x="94" y="-3"/>
			<point x="151" y="-3" type="curve" smooth="yes"/>
			<point x="443" y="-3" type="line" smooth="yes"/>
			<point x="479" y="-3"/>
			<point x="503" y="17"/>
			<point x="503" y="68" type="curve" smooth="yes"/>
			<point x="503" y="95"/>
			<point x="494" y="120"/>
			<point x="485" y="135" type="curve"/>
			<point x="228" y="135" type="line"/>
			<point x="228" y="240" type="line"/>
			<point x="412" y="240" type="line" smooth="yes"/>
			<point x="448" y="240"/>
			<point x="471" y="260"/>
			<point x="471" y="310" type="curve" smooth="yes"/>
			<point x="471" y="337"/>
			<point x="462" y="361"/>
			<point x="453" y="376" type="curve"/>
			<point x="228" y="376" type="line"/>
			<point x="228" y="469" type="line"/>
			<point x="439" y="469" type="line" smooth="yes"/>
			<point x="475" y="469"/>
			<point x="499" y="489"/>
			<point x="499" y="539" type="curve" smooth="yes"/>
			<point x="499" y="566"/>
			<point x="490" y="591"/>
			<point x="481" y="606" type="curve"/>
			<point x="151" y="606" type="line" smooth="yes"/>
			<point x="94" y="606"/>
			<point x="58" y="570"/>
			<point x="58" y="513" type="curve" smooth="yes"/>
		</contour>
		<contour>
			<point x="181" y="763" type="line"/>
			<point x="160" y="752"/>
			<point x="150" y="734"/>
			<point x="150" y="715" type="curve" smooth="yes"/>
			<point x="150" y="686"/>
			<point x="176" y="659"/>
			<point x="214" y="651" type="curve"/>
			<point x="351" y="705" type="line" smooth="yes"/>
			<point x="397" y="723"/>
			<point x="419" y="744"/>
			<point x="419" y="782" type="curve" smooth="yes"/>
			<point x="419" y="816"/>
			<point x="393" y="846"/>
			<point x="328" y="851" type="curve"/>
		</contour>
	</outline>
</glyph>
<glyph name="Edieresis" format="1">
	<unicode hex="00CB"/>
	<advance width="541"/>
	<outline>
		<contour>
			<point x="58" y="90" type="line"/>
			<point x="58" y="33"/>
			<point x="94" y="-3"/>
			<point x="151" y="-3" type="curve" smooth="yes"/>
			<point x="443" y="-3" type="line" smooth="yes"/>
			<point x="479" y="-3"/>
			<point x="503" y="17"/>
			<point x="503" y="68" type="curve" smooth="yes"/>
			<point x="503" y="95"/>
			<point x="494" y="120"/>
			<point x="485" y="135" type="curve"/>
			<point x="228" y="135" type="line"/>
			<point x="228" y="240" type="line"/>
			<point x="412" y="240" type="line" smooth="yes"/>
			<point x="448" y="240"/>
			<point x="471" y="260"/>
			<point x="471" y="310" type="curve" smooth="yes"/>
			<point x="471" y="337"/>
			<point x="462" y="361"/>
			<point x="453" y="376" type="curve"/>
			<point x="228" y="376" type="line"/>
			<point x="228" y="469" type="line"/>
			<point x="439" y="469" type="line" smooth="yes"/>
			<point x="475" y="469"/>
			<point x="499" y="489"/>
			<point x="499" y="539" type="curve" smooth="yes"/>
			<point x="499" y="566"/>
			<point x="490" y="591"/>
			<point x="481" y="606" type="curve"/>
			<point x="151" y="606" type="line" smooth="yes"/>
			<point x="94" y="606"/>
			<point x="58" y="570"/>
			<point x="58" y="513" type="curve" smooth="yes"/>
		</contour>
		<contour>
			<point x="70" y="757" type="curve" smooth="yes"/>
			<point x="70" y="710"/>
			<point x="108" y="671"/>
			<point x="157" y="671" type="curve" smooth="yes"/>
			<point x="212" y="671"/>
			<point x="247" y="710"/>
			<point x="247" y="757" type="curve" smooth="yes"/>
			<point x="247" y="803"/>
			<point x="212" y="843"/>
			<point x="157" y="843" type="curve" smooth="yes"/>
			<point x="108" y="843"/>
			<point x="70" y="803"/>
		</contour>
		<contour>
			<point x="294" y="757" type="curve" smooth="yes"/>
			<point x="294" y="710"/>
			<point x="328" y="671"/>
			<point x="383" y="671" type="curve" smooth="yes"/>
			<point x="434" y="671"/>
			<point x="471" y="710"/>
			<point x="471" y="757" type="curve" smooth="yes"/>
			<point x="471" y="803"/>
			<point x="434" y="843"/>
			<point x="383" y="843" type="curve" smooth="yes"/>
			<point x="328" y="843"/>
			<point x="294" y="803"/>
		</contour>
	</outline>
</glyph>
<glyph name="Igrave" format="1">
	<unicode hex="00CC"/>
	<advance width="305"/>
	<outline>
		<contour>
			<point x="155" y="666" type="line"/>
			<point x="175" y="658"/>
			<point x="194" y="653"/>
			<point x="212" y="653" type="curve" smooth="yes"/>
			<point x="246" y="653"/>
			<point x="273" y="683"/>
			<point x="273" y="730" type="curve" smooth="yes"/>
			<point x="273" y="735"/>
			<point x="273" y="741"/>
			<point x="272" y="746" type="curve"/>
			<point x="136" y="816" type="line" smooth="yes"/>
			<point x="109" y="830"/>
			<point x="90" y="840"/>
			<point x="66" y="840" type="curve" smooth="yes"/>
			<point x="21" y="840"/>
			<point x="-7" y="810"/>
			<point x="-7" y="768" type="curve" smooth="yes"/>
			<point x="-7" y="756"/>
			<point x="-5" y="740"/>
			<point x="1" y="726" type="curve"/>
		</contour>
		<contour>
			<point x="240" y="532" type="line"/>
			<point x="240" y="601"/>
			<point x="207" y="615"/>
			<point x="146" y="615" type="curve" smooth="yes"/>
			<point x="117" y="615"/>
			<point x="79" y="609"/>
			<point x="65" y="606" type="curve"/>
			<point x="65" y="78" type="line" smooth="yes"/>
			<point x="65" y="9"/>
			<point x="97" y="-5"/>
			<point x="159" y="-5" type="curve" smooth="yes"/>
			<point x="189" y="-5"/>
			<point x="226" y="0"/>
			<point x="240" y="4" type="curve"/>
		</contour>
	</outline>
</glyph>
<glyph name="Iacute" format="1">
	<unicode hex="00CD"/>
	<advance width="305"/>
	<outline>
		<contour>
			<point x="73" y="763" type="line"/>
			<point x="52" y="752"/>
			<point x="42" y="734"/>
			<point x="42" y="715" type="curve" smooth="yes"/>
			<point x="42" y="686"/>
			<point x="68" y="659"/>
			<point x="106" y="651" type="curve"/>
			<point x="243" y="705" type="line" smooth="yes"/>
			<point x="289" y="723"/>
			<point x="311" y="744"/>
			<point x="311" y="782" type="curve" smooth="yes"/>
			<point x="311" y="816"/>
			<point x="285" y="846"/>
			<point x="220" y="851" type="curve"/>
		</contour>
		<contour>
			<point x="240" y="532" type="line"/>
			<point x="240" y="601"/>
			<point x="207" y="615"/>
			<point x="146" y="615" type="curve" smooth="yes"/>
			<point x="117" y="615"/>
			<point x="79" y="609"/>
			<point x="65" y="606" type="curve"/>
			<point x="65" y="78" type="line" smooth="yes"/>
			<point x="65" y="9"/>
			<point x="97" y="-5"/>
			<point x="159" y="-5" type="curve" smooth="yes"/>
			<point x="189" y="-5"/>
			<point x="226" y="0"/>
			<point x="240" y="4" type="curve"/>
		</contour>
	</outline>
</glyph>
<glyph name="Icircumflex" format="1">
	<unicode hex="00CE"/>
	<advance width="305"/>
	<outline>
		<contour>
			<point x="176" y="713" type="line"/>
			<point x="220" y="673"/>
			<point x="237" y="665"/>
			<point x="263" y="665" type="curve" smooth="yes"/>
			<point x="304" y="665"/>
			<point x="323" y="697"/>
			<point x="323" y="742" type="curve"/>
			<point x="242" y="813" type="line"/>
			<point x="207" y="844"/>
			<point x="187" y="854"/>
			<point x="151" y="854" type="curve" smooth="yes"/>
			<point x="125" y="854"/>
			<point x="96" y="841"/>
			<point x="63" y="818" type="curve" smooth="yes"/>
			<point x="27" y="792" type="line" smooth="yes"/>
			<point x="-9" y="767"/>
			<point x="-19" y="750"/>
			<point x="-19" y="723" type="curve" smooth="yes"/>
			<point x="-19" y="688"/>
			<point x="12" y="662"/>
			<point x="52" y="662" type="curve"/>
			<point x="81" y="683"/>
			<point x="112" y="703"/>
			<point x="153" y="734" type="curve"/>
		</contour>
		<contour>
			<point x="240" y="532" type="line"/>
			<point x="240" y="601"/>
			<point x="207" y="615"/>
			<point x="146" y="615" type="curve" smooth="yes"/>
			<point x="117" y="615"/>
			<point x="79" y="609"/>
			<point x="65" y="606" type="curve"/>
			<point x="65" y="78" type="line" smooth="yes"/>
			<point x="65" y="9"/>
			<point x="97" y="-5"/>
			<point x="159" y="-5" type="curve" smooth="yes"/>
			<point x="189" y="-5"/>
			<point x="226" y="0"/>
			<point x="240" y="4" type="curve"/>
		</contour>
	</outline>
</glyph>
<glyph name="Idieresis" format="1">
	<unicode hex="00CF"/>
	<advance width="305"/>
	<outline>
		<contour>
			<point x="-53" y="755" type="curve" smooth="yes"/>
			<point x="-53" y="708"/>
			<point x="-15" y="669"/>
			<point x="34" y="669" type="curve" smooth="yes"/>
			<point x="89" y="669"/>
			<point x="124" y="708"/>
			<point x="124" y="755" type="curve" smooth="yes"/>
			<point x="124" y="801"/>
			<point x="89" y="841"/>
			<point x="34" y="841" type="curve" smooth="yes"/>
			<point x="-15" y="841"/>
			<point x="-53" y="801"/>
		</contour>
		<contour>
			<point x="171" y="755" type="curve" smooth="yes"/>
			<point x="171" y="708"/>
			<point x="205" y="669"/>
			<point x="260" y="669" type="curve" smooth="yes"/>
			<point x="311" y="669"/>
			<point x="348" y="708"/>
			<point x="348" y="755" type="curve" smooth="yes"/>
			<point x="348" y="801"/>
			<point x="311" y="841"/>
			<point x="260" y="841" type="curve" smooth="yes"/>
			<point x="205" y="841"/>
			<point x="171" y="801"/>
		</contour>
		<contour>
			<point x="240" y="532" type="line"/>
			<point x="240" y="601"/>
			<point x="207" y="615"/>
			<point x="146" y="615" type="curve" smooth="yes"/>
			<point x="117" y="615"/>
			<point x="79" y="609"/>
			<point x="65" y="606" type="curve"/>
			<point x="65" y="78" type="line" smooth="yes"/>
			<point x="65" y="9"/>
			<point x="97" y="-5"/>
			<point x="159" y="-5" type="curve" smooth="yes"/>
			<point x="189" y="-5"/>
			<point x="226" y="0"/>
			<point x="240" y="4" type="curve"/>
		</contour>
	</outline>
</glyph>
<glyph name="Eth" format="1">
	<unicode hex="00D0"/>
	<advance width="700"/>
	<outline>
		<contour>
			<point x="99" y="238" type="line"/>
			<point x="99" y="82" type="line" smooth="yes"/>
			<point x="99" y="46"/>
			<point x="118" y="23"/>
			<point x="154" y="9" type="curve" smooth="yes"/>
			<point x="207" y="-11"/>
			<point x="283" y="-16"/>
			<point x="329" y="-16" type="curve" smooth="yes"/>
			<point x="530" y="-16"/>
			<point x="665" y="92"/>
			<point x="665" y="304" type="curve" smooth="yes"/>
			<point x="665" y="522"/>
			<point x="526" y="623"/>
			<point x="319" y="623" type="curve" smooth="yes"/>
			<point x="268" y="623"/>
			<point x="199" y="619"/>
			<point x="142" y="600" type="curve" smooth="yes"/>
			<point x="116" y="591"/>
			<point x="99" y="577"/>
			<point x="99" y="549" type="curve" smooth="yes"/>
			<point x="99" y="375" type="line"/>
			<point x="80" y="375" type="line" smooth="yes"/>
			<point x="45" y="375"/>
			<point x="20" y="355"/>
			<point x="20" y="305" type="curve" smooth="yes"/>
			<point x="20" y="278"/>
			<point x="29" y="252"/>
			<point x="38" y="238" type="curve"/>
		</contour>
		<contour>
			<point x="273" y="238" type="line"/>
			<point x="326" y="238" type="line" smooth="yes"/>
			<point x="361" y="238"/>
			<point x="386" y="258"/>
			<point x="386" y="308" type="curve" smooth="yes"/>
			<point x="386" y="335"/>
			<point x="377" y="361"/>
			<point x="368" y="375" type="curve"/>
			<point x="273" y="375" type="line"/>
			<point x="273" y="478" type="line"/>
			<point x="293" y="481"/>
			<point x="312" y="482"/>
			<point x="331" y="482" type="curve" smooth="yes"/>
			<point x="424" y="482"/>
			<point x="485" y="420"/>
			<point x="485" y="301" type="curve" smooth="yes"/>
			<point x="485" y="176"/>
			<point x="421" y="125"/>
			<point x="330" y="125" type="curve" smooth="yes"/>
			<point x="312" y="125"/>
			<point x="287" y="127"/>
			<point x="273" y="130" type="curve"/>
		</contour>
	</outline>
</glyph>
<glyph name="Ntilde" format="1">
	<unicode hex="00D1"/>
	<advance width="665"/>
	<outline>
		<contour>
			<point x="607" y="535" type="line" smooth="yes"/>
			<point x="607" y="601"/>
			<point x="576" y="615"/>
			<point x="517" y="615" type="curve" smooth="yes"/>
			<point x="488" y="615"/>
			<point x="453" y="610"/>
			<point x="439" y="606" type="curve"/>
			<point x="439" y="444" type="line" smooth="yes"/>
			<point x="439" y="372"/>
			<point x="440" y="300"/>
			<point x="445" y="228" type="curve"/>
			<point x="440" y="227" type="line"/>
			<point x="421" y="275"/>
			<point x="407" y="308"/>
			<point x="387" y="349" type="curve" smooth="yes"/>
			<point x="287" y="551" type="line" smooth="yes"/>
			<point x="260" y="606"/>
			<point x="212" y="615"/>
			<point x="163" y="615" type="curve" smooth="yes"/>
			<point x="119" y="615"/>
			<point x="76" y="601"/>
			<point x="58" y="575" type="curve"/>
			<point x="58" y="75" type="line" smooth="yes"/>
			<point x="58" y="9"/>
			<point x="89" y="-5"/>
			<point x="148" y="-5" type="curve" smooth="yes"/>
			<point x="177" y="-5"/>
			<point x="212" y="0"/>
			<point x="226" y="4" type="curve"/>
			<point x="226" y="159" type="line" smooth="yes"/>
			<point x="226" y="230"/>
			<point x="226" y="307"/>
			<point x="221" y="379" type="curve"/>
			<point x="227" y="380" type="line"/>
			<point x="246" y="332"/>
			<point x="260" y="299"/>
			<point x="280" y="258" type="curve" smooth="yes"/>
			<point x="379" y="56" type="line" smooth="yes"/>
			<point x="407" y="0"/>
			<point x="454" y="-8"/>
			<point x="503" y="-8" type="curve" smooth="yes"/>
			<point x="552" y="-8"/>
			<point x="588" y="3"/>
			<point x="607" y="21" type="curve"/>
		</contour>
		<contour>
			<point x="338" y="816" type="curve" smooth="yes"/>
			<point x="283" y="832"/>
			<point x="265" y="834"/>
			<point x="247" y="834" type="curve" smooth="yes"/>
			<point x="200" y="834"/>
			<point x="149" y="807"/>
			<point x="149" y="747" type="curve" smooth="yes"/>
			<point x="149" y="700"/>
			<point x="184" y="667"/>
			<point x="231" y="667" type="curve"/>
			<point x="239" y="680"/>
			<point x="253" y="702"/>
			<point x="282" y="702" type="curve" smooth="yes"/>
			<point x="294" y="702"/>
			<point x="306" y="698"/>
			<point x="324" y="693" type="curve" smooth="yes"/>
			<point x="364" y="681" type="line" smooth="yes"/>
			<point x="386" y="675"/>
			<point x="405" y="673"/>
			<point x="423" y="673" type="curve" smooth="yes"/>
			<point x="479" y="673"/>
			<point x="521" y="701"/>
			<point x="521" y="760" type="curve" smooth="yes"/>
			<point x="521" y="807"/>
			<point x="486" y="840"/>
			<point x="439" y="840" type="curve"/>
			<point x="432" y="828"/>
			<point x="417" y="805"/>
			<point x="388" y="805" type="curve" smooth="yes"/>
			<point x="377" y="805"/>
			<point x="362" y="809"/>
		</contour>
	</outline>
</glyph>
<glyph name="Ograve" format="1">
	<unicode hex="00D2"/>
	<advance width="703"/>
	<outline>
		<contour>
			<point x="35" y="304" type="curve" smooth="yes"/>
			<point x="35" y="99"/>
			<point x="169" y="-18"/>
			<point x="351" y="-18" type="curve" smooth="yes"/>
			<point x="533" y="-18"/>
			<point x="668" y="95"/>
			<point x="668" y="304" type="curve" smooth="yes"/>
			<point x="668" y="512"/>
			<point x="529" y="625"/>
			<point x="351" y="625" type="curve" smooth="yes"/>
			<point x="173" y="625"/>
			<point x="35" y="512"/>
		</contour>
		<contour>
			<point x="215" y="304" type="curve" smooth="yes"/>
			<point x="215" y="424"/>
			<point x="270" y="484"/>
			<point x="352" y="484" type="curve" smooth="yes"/>
			<point x="435" y="484"/>
			<point x="488" y="423"/>
			<point x="488" y="304" type="curve" smooth="yes"/>
			<point x="488" y="183"/>
			<point x="434" y="123"/>
			<point x="351" y="123" type="curve" smooth="yes"/>
			<point x="269" y="123"/>
			<point x="215" y="183"/>
		</contour>
		<contour>
			<point x="367" y="666" type="line"/>
			<point x="387" y="658"/>
			<point x="406" y="653"/>
			<point x="424" y="653" type="curve" smooth="yes"/>
			<point x="458" y="653"/>
			<point x="485" y="683"/>
			<point x="485" y="730" type="curve" smooth="yes"/>
			<point x="485" y="735"/>
			<point x="485" y="741"/>
			<point x="484" y="746" type="curve"/>
			<point x="348" y="816" type="line" smooth="yes"/>
			<point x="321" y="830"/>
			<point x="302" y="840"/>
			<point x="278" y="840" type="curve" smooth="yes"/>
			<point x="233" y="840"/>
			<point x="205" y="810"/>
			<point x="205" y="768" type="curve" smooth="yes"/>
			<point x="205" y="756"/>
			<point x="207" y="740"/>
			<point x="213" y="726" type="curve"/>
		</contour>
	</outline>
</glyph>
<glyph name="Oacute" format="1">
	<unicode hex="00D3"/>
	<advance width="703"/>
	<outline>
		<contour>
			<point x="35" y="304" type="curve" smooth="yes"/>
			<point x="35" y="99"/>
			<point x="169" y="-18"/>
			<point x="351" y="-18" type="curve" smooth="yes"/>
			<point x="533" y="-18"/>
			<point x="668" y="95"/>
			<point x="668" y="304" type="curve" smooth="yes"/>
			<point x="668" y="512"/>
			<point x="529" y="625"/>
			<point x="351" y="625" type="curve" smooth="yes"/>
			<point x="173" y="625"/>
			<point x="35" y="512"/>
		</contour>
		<contour>
			<point x="215" y="304" type="curve" smooth="yes"/>
			<point x="215" y="424"/>
			<point x="270" y="484"/>
			<point x="352" y="484" type="curve" smooth="yes"/>
			<point x="435" y="484"/>
			<point x="488" y="423"/>
			<point x="488" y="304" type="curve" smooth="yes"/>
			<point x="488" y="183"/>
			<point x="434" y="123"/>
			<point x="351" y="123" type="curve" smooth="yes"/>
			<point x="269" y="123"/>
			<point x="215" y="183"/>
		</contour>
		<contour>
			<point x="259" y="763" type="line"/>
			<point x="238" y="752"/>
			<point x="228" y="734"/>
			<point x="228" y="715" type="curve" smooth="yes"/>
			<point x="228" y="686"/>
			<point x="254" y="659"/>
			<point x="292" y="651" type="curve"/>
			<point x="429" y="705" type="line" smooth="yes"/>
			<point x="475" y="723"/>
			<point x="497" y="744"/>
			<point x="497" y="782" type="curve" smooth="yes"/>
			<point x="497" y="816"/>
			<point x="471" y="846"/>
			<point x="406" y="851" type="curve"/>
		</contour>
	</outline>
</glyph>
<glyph name="Otilde" format="1">
	<unicode hex="00D5"/>
	<advance width="703"/>
	<outline>
		<contour>
			<point x="35" y="304" type="curve" smooth="yes"/>
			<point x="35" y="99"/>
			<point x="169" y="-18"/>
			<point x="351" y="-18" type="curve" smooth="yes"/>
			<point x="533" y="-18"/>
			<point x="668" y="95"/>
			<point x="668" y="304" type="curve" smooth="yes"/>
			<point x="668" y="512"/>
			<point x="529" y="625"/>
			<point x="351" y="625" type="curve" smooth="yes"/>
			<point x="173" y="625"/>
			<point x="35" y="512"/>
		</contour>
		<contour>
			<point x="215" y="304" type="curve" smooth="yes"/>
			<point x="215" y="424"/>
			<point x="270" y="484"/>
			<point x="352" y="484" type="curve" smooth="yes"/>
			<point x="435" y="484"/>
			<point x="488" y="423"/>
			<point x="488" y="304" type="curve" smooth="yes"/>
			<point x="488" y="183"/>
			<point x="434" y="123"/>
			<point x="351" y="123" type="curve" smooth="yes"/>
			<point x="269" y="123"/>
			<point x="215" y="183"/>
		</contour>
		<contour>
			<point x="357" y="825" type="curve" smooth="yes"/>
			<point x="302" y="841"/>
			<point x="284" y="843"/>
			<point x="266" y="843" type="curve" smooth="yes"/>
			<point x="219" y="843"/>
			<point x="168" y="816"/>
			<point x="168" y="756" type="curve" smooth="yes"/>
			<point x="168" y="709"/>
			<point x="203" y="676"/>
			<point x="250" y="676" type="curve"/>
			<point x="258" y="689"/>
			<point x="272" y="711"/>
			<point x="301" y="711" type="curve" smooth="yes"/>
			<point x="313" y="711"/>
			<point x="325" y="707"/>
			<point x="343" y="702" type="curve" smooth="yes"/>
			<point x="383" y="690" type="line" smooth="yes"/>
			<point x="405" y="684"/>
			<point x="424" y="682"/>
			<point x="442" y="682" type="curve" smooth="yes"/>
			<point x="498" y="682"/>
			<point x="540" y="710"/>
			<point x="540" y="769" type="curve" smooth="yes"/>
			<point x="540" y="816"/>
			<point x="505" y="849"/>
			<point x="458" y="849" type="curve"/>
			<point x="451" y="837"/>
			<point x="436" y="814"/>
			<point x="407" y="814" type="curve" smooth="yes"/>
			<point x="396" y="814"/>
			<point x="381" y="818"/>
		</contour>
	</outline>
</glyph>
<glyph name="Odieresis" format="1">
	<unicode hex="00D6"/>
	<advance width="703"/>
	<outline>
		<contour>
			<point x="35" y="304" type="curve" smooth="yes"/>
			<point x="35" y="99"/>
			<point x="169" y="-18"/>
			<point x="351" y="-18" type="curve" smooth="yes"/>
			<point x="533" y="-18"/>
			<point x="668" y="95"/>
			<point x="668" y="304" type="curve" smooth="yes"/>
			<point x="668" y="512"/>
			<point x="529" y="625"/>
			<point x="351" y="625" type="curve" smooth="yes"/>
			<point x="173" y="625"/>
			<point x="35" y="512"/>
		</contour>
		<contour>
			<point x="215" y="304" type="curve" smooth="yes"/>
			<point x="215" y="424"/>
			<point x="270" y="484"/>
			<point x="352" y="484" type="curve" smooth="yes"/>
			<point x="435" y="484"/>
			<point x="488" y="423"/>
			<point x="488" y="304" type="curve" smooth="yes"/>
			<point x="488" y="183"/>
			<point x="434" y="123"/>
			<point x="351" y="123" type="curve" smooth="yes"/>
			<point x="269" y="123"/>
			<point x="215" y="183"/>
		</contour>
		<contour>
			<point x="149" y="755" type="curve" smooth="yes"/>
			<point x="149" y="708"/>
			<point x="187" y="669"/>
			<point x="236" y="669" type="curve" smooth="yes"/>
			<point x="291" y="669"/>
			<point x="326" y="708"/>
			<point x="326" y="755" type="curve" smooth="yes"/>
			<point x="326" y="801"/>
			<point x="291" y="841"/>
			<point x="236" y="841" type="curve" smooth="yes"/>
			<point x="187" y="841"/>
			<point x="149" y="801"/>
		</contour>
		<contour>
			<point x="373" y="755" type="curve" smooth="yes"/>
			<point x="373" y="708"/>
			<point x="407" y="669"/>
			<point x="462" y="669" type="curve" smooth="yes"/>
			<point x="513" y="669"/>
			<point x="550" y="708"/>
			<point x="550" y="755" type="curve" smooth="yes"/>
			<point x="550" y="801"/>
			<point x="513" y="841"/>
			<point x="462" y="841" type="curve" smooth="yes"/>
			<point x="407" y="841"/>
			<point x="373" y="801"/>
		</contour>
	</outline>
</glyph>
<glyph name="multiply" format="1">
	<unicode hex="00D7"/>
	<advance width="504"/>
	<outline>
		<contour>
			<point x="256" y="376" type="line"/>
			<point x="162" y="478" type="line" smooth="yes"/>
			<point x="150" y="492"/>
			<point x="134" y="500"/>
			<point x="116" y="500" type="curve" smooth="yes"/>
			<point x="77" y="500"/>
			<point x="38" y="459"/>
			<point x="28" y="418" type="curve"/>
			<point x="152" y="291" type="line"/>
			<point x="59" y="191" type="line" smooth="yes"/>
			<point x="41" y="172"/>
			<point x="33" y="157"/>
			<point x="33" y="143" type="curve" smooth="yes"/>
			<point x="33" y="108"/>
			<point x="73" y="68"/>
			<point x="126" y="60" type="curve"/>
			<point x="250" y="194" type="line"/>
			<point x="333" y="94" type="line" smooth="yes"/>
			<point x="348" y="76"/>
			<point x="371" y="67"/>
			<point x="386" y="67" type="curve" smooth="yes"/>
			<point x="430" y="67"/>
			<point x="462" y="96"/>
			<point x="476" y="143" type="curve"/>
			<point x="353" y="285" type="line"/>
			<point x="432" y="367" type="line" smooth="yes"/>
			<point x="451" y="386"/>
			<point x="458" y="402"/>
			<point x="458" y="418" type="curve" smooth="yes"/>
			<point x="458" y="457"/>
			<point x="420" y="492"/>
			<point x="379" y="505" type="curve"/>
		</contour>
	</outline>
</glyph>
<glyph name="Oslash" format="1">
	<unicode hex="00D8"/>
	<advance width="703"/>
	<outline>
		<contour>
			<point x="35" y="304" type="curve" smooth="yes"/>
			<point x="35" y="198"/>
			<point x="71" y="116"/>
			<point x="130" y="61" type="curve"/>
			<point x="117" y="39"/>
			<point x="103" y="10"/>
			<point x="103" y="-8" type="curve" smooth="yes"/>
			<point x="103" y="-41"/>
			<point x="138" y="-69"/>
			<point x="193" y="-69" type="curve"/>
			<point x="234" y="0" type="line"/>
			<point x="270" y="-12"/>
			<point x="309" y="-18"/>
			<point x="351" y="-18" type="curve" smooth="yes"/>
			<point x="533" y="-18"/>
			<point x="668" y="95"/>
			<point x="668" y="304" type="curve" smooth="yes"/>
			<point x="668" y="412"/>
			<point x="630" y="494"/>
			<point x="569" y="549" type="curve"/>
			<point x="583" y="571"/>
			<point x="597" y="598"/>
			<point x="597" y="619" type="curve" smooth="yes"/>
			<point x="597" y="649"/>
			<point x="560" y="677"/>
			<point x="507" y="677" type="curve"/>
			<point x="465" y="607" type="line"/>
			<point x="430" y="619"/>
			<point x="391" y="625"/>
			<point x="351" y="625" type="curve" smooth="yes"/>
			<point x="173" y="625"/>
			<point x="35" y="512"/>
		</contour>
		<contour>
			<point x="351" y="123" type="curve" smooth="yes"/>
			<point x="338" y="123"/>
			<point x="325" y="124"/>
			<point x="313" y="127" type="curve"/>
			<point x="477" y="398" type="line"/>
			<point x="487" y="372"/>
			<point x="493" y="341"/>
			<point x="493" y="304" type="curve" smooth="yes"/>
			<point x="493" y="183"/>
			<point x="434" y="123"/>
		</contour>
		<contour>
			<point x="210" y="304" type="curve" smooth="yes"/>
			<point x="210" y="424"/>
			<point x="270" y="484"/>
			<point x="352" y="484" type="curve" smooth="yes"/>
			<point x="365" y="484"/>
			<point x="377" y="482"/>
			<point x="389" y="479" type="curve"/>
			<point x="226" y="208" type="line"/>
			<point x="216" y="234"/>
			<point x="210" y="266"/>
		</contour>
	</outline>
</glyph>
<glyph name="Ugrave" format="1">
	<unicode hex="00D9"/>
	<advance width="664"/>
	<outline>
		<contour>
			<point x="602" y="532" type="line"/>
			<point x="602" y="601"/>
			<point x="569" y="615"/>
			<point x="508" y="615" type="curve" smooth="yes"/>
			<point x="479" y="615"/>
			<point x="441" y="609"/>
			<point x="427" y="606" type="curve"/>
			<point x="427" y="227" type="line" smooth="yes"/>
			<point x="427" y="164"/>
			<point x="389" y="125"/>
			<point x="332" y="125" type="curve" smooth="yes"/>
			<point x="276" y="125"/>
			<point x="237" y="164"/>
			<point x="237" y="227" type="curve" smooth="yes"/>
			<point x="237" y="532" type="line" smooth="yes"/>
			<point x="237" y="601"/>
			<point x="204" y="615"/>
			<point x="143" y="615" type="curve" smooth="yes"/>
			<point x="114" y="615"/>
			<point x="76" y="609"/>
			<point x="62" y="606" type="curve"/>
			<point x="62" y="224" type="line" smooth="yes"/>
			<point x="62" y="79"/>
			<point x="164" y="-16"/>
			<point x="332" y="-16" type="curve" smooth="yes"/>
			<point x="500" y="-16"/>
			<point x="602" y="79"/>
			<point x="602" y="224" type="curve" smooth="yes"/>
		</contour>
		<contour>
			<point x="335" y="666" type="line"/>
			<point x="355" y="658"/>
			<point x="374" y="653"/>
			<point x="392" y="653" type="curve" smooth="yes"/>
			<point x="426" y="653"/>
			<point x="453" y="683"/>
			<point x="453" y="730" type="curve" smooth="yes"/>
			<point x="453" y="735"/>
			<point x="453" y="741"/>
			<point x="452" y="746" type="curve"/>
			<point x="316" y="816" type="line" smooth="yes"/>
			<point x="289" y="830"/>
			<point x="270" y="840"/>
			<point x="246" y="840" type="curve" smooth="yes"/>
			<point x="201" y="840"/>
			<point x="173" y="810"/>
			<point x="173" y="768" type="curve" smooth="yes"/>
			<point x="173" y="756"/>
			<point x="175" y="740"/>
			<point x="181" y="726" type="curve"/>
		</contour>
	</outline>
</glyph>
